<svg width="24" height="24" viewBox="0 0 24 24" fill="none" xmlns="http://www.w3.org/2000/svg">
<g clip-path="url(#clip0)">
<path d="M21.75 20.25H2.25C1.836 20.25 1.5 19.9147 1.5 19.5V7.5C1.5 7.086 1.836 6.75 2.25 6.75C2.664 6.75 3 7.086 3 7.5V18.75H21V5.25H2.25C1.836 5.25 1.5 4.914 1.5 4.5C1.5 4.086 1.836 3.75 2.25 3.75H21.75C22.1647 3.75 22.5 4.086 22.5 4.5V19.5C22.5 19.9147 22.1647 20.25 21.75 20.25Z" fill="#1EBAE5"/>
<path d="M11.9999 14.2502C11.8079 14.2502 11.6159 14.1767 11.4697 14.0304L5.46969 8.03044C5.17644 7.73719 5.17644 7.26319 5.46969 6.96994C5.76294 6.67669 6.23694 6.67669 6.53019 6.96994L11.9999 12.4397L17.4697 6.96994C17.7629 6.67669 18.2369 6.67669 18.5302 6.96994C18.8234 7.26319 18.8234 7.73719 18.5302 8.03044L12.5302 14.0304C12.3839 14.1767 12.1919 14.2502 11.9999 14.2502Z" fill="#1EBAE5"/>
<path d="M18.0007 17.2502C17.8087 17.2502 17.6167 17.1767 17.4705 17.0305L15.219 14.779C14.9257 14.4857 14.9257 14.0117 15.219 13.7185C15.5122 13.4252 15.9862 13.4252 16.2795 13.7185L18.531 15.97C18.8242 16.2632 18.8242 16.7372 18.531 17.0305C18.3847 17.1767 18.1927 17.2502 18.0007 17.2502Z" fill="#1EBAE5"/>
<path d="M6.00068 17.2499C5.80868 17.2499 5.61668 17.1764 5.47043 17.0302C5.17718 16.7369 5.17718 16.2629 5.47043 15.9697L7.71968 13.7204C8.01293 13.4272 8.48693 13.4272 8.78018 13.7204C9.07343 14.0137 9.07343 14.4877 8.78018 14.7809L6.53093 17.0302C6.38468 17.1764 6.19268 17.2499 6.00068 17.2499Z" fill="#1EBAE5"/>
</g>
<defs>
<clipPath id="clip0">
<rect width="24" height="24" fill="white"/>
</clipPath>
</defs>
</svg>
