<svg width="24" height="24" viewBox="0 0 24 24" fill="none" xmlns="http://www.w3.org/2000/svg">
<g clip-path="url(#clip0)">
<path d="M21.75 9.75H17.25V2.25C17.25 1.836 16.9148 1.5 16.5 1.5H7.5C7.086 1.5 6.75 1.836 6.75 2.25V9.75H2.25C1.836 9.75 1.5 10.086 1.5 10.5C1.5 10.914 1.836 11.25 2.25 11.25H6.75V12.75C6.75 13.1648 7.086 13.5 7.5 13.5H16.5C16.9148 13.5 17.25 13.1648 17.25 12.75V11.25H21V18.75H17.25V18C17.25 17.5853 16.9148 17.25 16.5 17.25H7.5C7.086 17.25 6.75 17.5853 6.75 18V18.75H3V13.5C3 13.0852 2.664 12.75 2.25 12.75C1.836 12.75 1.5 13.0852 1.5 13.5V19.5C1.5 19.9147 1.836 20.25 2.25 20.25H6.75V21.75C6.75 22.1647 7.086 22.5 7.5 22.5H16.5C16.9148 22.5 17.25 22.1647 17.25 21.75V20.25H21.75C22.1647 20.25 22.5 19.9147 22.5 19.5V10.5C22.5 10.086 22.1647 9.75 21.75 9.75ZM15.75 12H8.25V3H15.75V12ZM15.75 21H8.25V18.75H15.75V21Z" fill="#1EBAE5"/>
</g>
<defs>
<clipPath id="clip0">
<rect width="24" height="24" fill="white"/>
</clipPath>
</defs>
</svg>
