<svg width="40" height="44" viewBox="0 0 40 44" fill="none" xmlns="http://www.w3.org/2000/svg">
<path d="M28.2894 18.9062C28.2894 17.957 27.52 17.1875 26.5707 17.1875H8.86755C7.91829 17.1875 7.1488 17.957 7.1488 18.9062C7.1488 19.8555 7.91829 20.625 8.86755 20.625H26.5707C27.52 20.625 28.2894 19.8555 28.2894 18.9062Z" fill="#1EBAE5"/>
<path d="M8.86755 24.0625C7.91829 24.0625 7.1488 24.832 7.1488 25.7812C7.1488 26.7305 7.91829 27.5 8.86755 27.5H19.6193C20.5685 27.5 21.338 26.7305 21.338 25.7812C21.338 24.832 20.5685 24.0625 19.6193 24.0625H8.86755Z" fill="#1EBAE5"/>
<path d="M12.9066 40.5625H7.15833C5.26289 40.5625 3.72083 39.0204 3.72083 37.125V6.875C3.72083 4.97956 5.26289 3.4375 7.15833 3.4375H28.2894C30.1849 3.4375 31.7269 4.97956 31.7269 6.875V17.4453C31.7269 18.3946 32.4964 19.1641 33.4457 19.1641C34.3949 19.1641 35.1644 18.3946 35.1644 17.4453V6.875C35.1644 3.08413 32.0803 0 28.2894 0H7.15833C3.36745 0 0.283325 3.08413 0.283325 6.875V37.125C0.283325 40.9159 3.36745 44 7.15833 44H12.9066C13.8559 44 14.6254 43.2305 14.6254 42.2812C14.6254 41.332 13.8559 40.5625 12.9066 40.5625Z" fill="#1EBAE5"/>
<path d="M38.2087 24.8855C36.1983 22.875 32.9271 22.875 30.918 24.8841L21.4818 34.2994C21.2814 34.4994 21.1336 34.7457 21.0513 35.0165L18.9962 41.782C18.8141 42.3818 18.9728 43.0331 19.4105 43.4818C19.7385 43.8179 20.184 44.0004 20.6409 44.0004C20.7938 44.0004 20.9481 43.9799 21.0997 43.9379L28.037 42.0162C28.3224 41.9372 28.5827 41.7857 28.7923 41.5763L38.2088 32.1776C40.2192 30.1672 40.2192 26.8961 38.2087 24.8855ZM26.6838 38.8242L23.1937 39.791L24.2151 36.4283L30.5821 30.0754L33.0133 32.5066L26.6838 38.8242ZM35.7793 29.7459L35.4463 30.0782L33.0156 27.6475L33.3475 27.3163C34.0176 26.6461 35.108 26.6461 35.7781 27.3163C36.4483 27.9864 36.4483 29.0768 35.7793 29.7459Z" fill="#1EBAE5"/>
<path d="M26.5707 10.3125H8.86755C7.91829 10.3125 7.1488 11.082 7.1488 12.0312C7.1488 12.9805 7.91829 13.75 8.86755 13.75H26.5707C27.52 13.75 28.2894 12.9805 28.2894 12.0312C28.2894 11.082 27.52 10.3125 26.5707 10.3125Z" fill="#1EBAE5"/>
</svg>
