<?xml version="1.0" standalone="no"?>
<!DOCTYPE svg PUBLIC "-//W3C//DTD SVG 1.1//EN" "http://www.w3.org/Graphics/SVG/1.1/DTD/svg11.dtd" >
<svg xmlns="http://www.w3.org/2000/svg">
<metadata>Generated by IcoMoon</metadata>
<defs>
<font id="q4b" horiz-adv-x="1024">
<font-face units-per-em="1024" ascent="960" descent="-64" />
<missing-glyph horiz-adv-x="1024" />
<glyph unicode="&#x20;" horiz-adv-x="512" d="" />
<glyph unicode="&#xe900;" glyph-name="edition" d="M96.549 960c-23.406 0-40.96-17.554-40.96-40.96 0 0 0 0 0 0v-942.080c0-20.48 17.554-40.96 38.034-40.96 0 0 0 0 0 0h550.034c11.703 0 20.48 2.926 29.257 11.703l283.794 242.834c8.777 8.777 11.703 17.554 11.703 29.257v699.246c0 20.48-17.554 40.96-38.034 40.96 0 0 0 0 0 0h-833.829zM181.394 828.343h658.286v-541.257h-245.76c-11.703 0-20.48-8.777-20.48-20.48 0 0 0 0 0 0v-201.874h-392.046v763.611zM512 728.869c-29.257 0-52.663-23.406-52.663-52.663 0 0 0 0 0 0v-114.103h-108.251c-29.257 0-52.663-23.406-52.663-52.663s23.406-52.663 52.663-52.663h111.177v-111.177c-2.926-29.257 17.554-52.663 46.811-55.589s52.663 17.554 55.589 46.811c0 2.926 0 5.851 0 11.703v114.103h108.251c29.257 0 52.663 23.406 52.663 52.663s-23.406 52.663-52.663 52.663h-111.177v108.251c2.926 29.257-20.48 52.663-49.737 52.663 0 0 0 0 0 0v0zM664.137 199.314h140.434l-140.434-96.549v96.549z" />
<glyph unicode="&#xe901;" glyph-name="floor" d="M971.337 758.126h-187.246c-29.257 0-52.663-23.406-52.663-52.663 0 0 0 0 0 0v-134.583h-134.583c-29.257 0-52.663-23.406-52.663-52.663v-134.583h-134.583c-29.257 0-52.663-23.406-52.663-52.663v-140.434h-140.434c-29.257 0-52.663-23.406-52.663-52.663 0 0 0 0 0 0v-108.251c0-29.257 23.406-52.663 52.663-52.663 0 0 0 0 0 0h754.834c29.257 0 52.663 23.406 52.663 52.663 0 0 0 0 0 0v675.84c0 29.257-23.406 52.663-52.663 52.663 0 0 0 0 0 0zM699.246 907.337c-14.629 14.629-35.109 14.629-49.737 0 0 0 0 0 0 0-222.354-216.503-435.931-427.154-640.731-631.954-5.851-5.851-8.777-14.629-8.777-23.406v-236.983c0-20.48 14.629-35.109 35.109-35.109s35.109 14.629 35.109 35.109c0 0 0 0 0 0v222.354c201.874 201.874 409.6 409.6 629.029 623.177 11.703 11.703 11.703 35.109 0 46.811v0z" />
<glyph unicode="&#xe902;" glyph-name="upload" d="M880.64-64h-737.28c-46.811 2.926-84.846 43.886-81.92 90.697 2.926 43.886 38.034 78.994 81.92 81.92h734.354c46.811-2.926 84.846-43.886 81.92-90.697 0-43.886-35.109-78.994-78.994-81.92zM450.56 933.669c14.629 14.629 32.183 23.406 52.663 26.331 2.926 0 5.851 0 5.851 0 2.926 0 5.851 0 5.851 0 20.48-2.926 40.96-11.703 52.663-26.331l263.314-272.091c32.183-35.109 32.183-87.771 0-122.88-32.183-32.183-84.846-35.109-117.029-2.926 0 0-2.926 2.926-2.926 2.926l-122.88 125.806v-406.674c0-46.811-38.034-84.846-81.92-84.846-46.811 0-84.846 38.034-84.846 81.92 0 0 0 0 0 0v409.6l-122.88-125.806c-32.183-32.183-84.846-35.109-117.029-2.926 0 0-2.926 2.926-2.926 2.926-32.183 35.109-32.183 87.771 0 122.88l272.091 272.091z" />
<glyph unicode="&#xe903;" glyph-name="settings2" d="M974.263 562.103h-49.737c-8.777 35.109-23.406 67.291-40.96 99.474l35.109 35.109c20.48 20.48 20.48 49.737 0 70.217 0 0 0 0 0 0l-90.697 90.697c-17.554 20.48-49.737 20.48-70.217 0 0 0 0 0 0 0l-35.109-35.109c-32.183 17.554-64.366 32.183-99.474 40.96v46.811c0 26.331-23.406 49.737-49.737 49.737 0 0 0 0 0 0h-128.731c-26.331 0-49.737-20.48-49.737-49.737 0 0 0 0 0 0v-49.737c-35.109-8.777-67.291-23.406-99.474-40.96l-29.257 38.034c-17.554 20.48-49.737 20.48-70.217 0 0 0 0 0 0 0l-93.623-93.623c-17.554-17.554-17.554-49.737 0-67.291 0 0 0 0 0 0l35.109-35.109c-17.554-32.183-32.183-64.366-40.96-99.474h-46.811c-26.331 0-49.737-20.48-49.737-49.737 0 0 0 0 0 0v-128.731c0-26.331 20.48-49.737 49.737-49.737 0 0 0 0 0 0h49.737c8.777-35.109 23.406-67.291 40.96-99.474l-35.109-35.109c-20.48-20.48-20.48-49.737 0-70.217 0 0 0 0 0 0l90.697-90.697c17.554-20.48 49.737-20.48 70.217 0 0 0 0 0 0 0l35.109 35.109c32.183-17.554 64.366-32.183 99.474-40.96v-49.737c0-26.331 20.48-49.737 49.737-49.737 0 0 0 0 0 0h128.731c26.331 0 49.737 20.48 49.737 49.737 0 0 0 0 0 0v49.737c35.109 8.777 67.291 23.406 99.474 40.96l35.109-35.109c17.554-20.48 49.737-20.48 70.217 0 0 0 0 0 0 0l90.697 90.697c20.48 20.48 20.48 49.737 0 70.217 0 0 0 0 0 0l-35.109 35.109c17.554 32.183 32.183 64.366 40.96 99.474h49.737c26.331 0 49.737 20.48 49.737 49.737 0 0 0 0 0 0v128.731c-5.851 26.331-26.331 49.737-55.589 49.737 0 0 0 0 0 0zM512 219.794c-125.806 0-228.206 102.4-228.206 228.206s102.4 228.206 228.206 228.206c125.806 0 228.206-102.4 228.206-228.206s-102.4-228.206-228.206-228.206c0 0 0 0 0 0z" />
<glyph unicode="&#xe943;" glyph-name="appartment" d="M555.886 693.76l99.474 99.474-40.96 38.034-117.029-117.029v-210.651h-58.514v-58.514h58.514v-58.514h58.514v58.514h371.566v-453.486h-371.566v283.794h-58.514v-55.589h-225.28v-58.514h225.28v-172.617h-397.897v172.617h58.514v58.514h-58.514v228.206h228.206v58.514h-228.206v397.897h397.897v-58.514h58.514v114.103h-514.926v-1024h942.080v570.514h-430.080l2.926 187.246z" />
<glyph unicode="&#xe944;" glyph-name="balcony" d="M956.709 389.486v0c35.109 0 58.514 26.331 58.514 58.514 0 35.109-26.331 58.514-58.514 58.514-35.109 0-58.514-26.331-58.514-58.514h43.886c0 8.777 5.851 17.554 17.554 17.554 8.777 0 17.554-5.851 17.554-17.554 0-8.777-5.851-17.554-17.554-17.554v0h-895.269c-8.777 0-17.554 5.851-17.554 17.554 0 8.777 8.777 17.554 17.554 17.554s17.554-5.851 17.554-17.554h43.886c0 35.109-26.331 58.514-58.514 58.514s-58.514-26.331-58.514-58.514c0-35.109 26.331-58.514 58.514-58.514v0c-2.926-14.629-5.851-38.034-11.703-58.514-14.629-46.811-32.183-111.177-32.183-146.286 0-26.331 8.777-46.811 17.554-70.217 2.926-2.926 2.926-8.777 5.851-14.629 2.926-14.629 11.703-35.109 17.554-46.811v-117.029h895.269v117.029c2.926 11.703 11.703 35.109 17.554 46.811 2.926 5.851 2.926 8.777 5.851 14.629 8.777 23.406 17.554 43.886 17.554 70.217 0 35.109-14.629 99.474-32.183 146.286-5.851 20.48-8.777 43.886-11.703 58.514zM822.126 316.343c11.703-38.034 20.48-114.103 20.48-131.657s-5.851-49.737-14.629-70.217c-5.851-11.703-11.703-38.034-14.629-52.663h-64.366c2.926 14.629 5.851 32.183 5.851 35.109 8.777 17.554 11.703 73.143 11.703 90.697s-5.851 114.103-14.629 146.286c-2.926 11.703-5.851 38.034-5.851 61.44h64.366c0-23.406 2.926-55.589 11.703-78.994zM207.726 61.806c-2.926 14.629-8.777 38.034-14.629 52.663-8.777 20.48-14.629 52.663-14.629 70.217s8.777 96.549 20.48 131.657c5.851 23.406 11.703 52.663 11.703 73.143h64.366c0-20.48-2.926-49.737-5.851-61.44-8.777-26.331-14.629-128.731-14.629-146.286 0-14.629 5.851-67.291 11.703-90.697 2.926-2.926 2.926-17.554 5.851-35.109l-64.366 5.851zM315.977 61.806c-2.926 17.554-5.851 40.96-8.777 49.737s-8.777 58.514-8.777 70.217c0 14.629 5.851 108.251 14.629 131.657 5.851 17.554 8.777 52.663 8.777 73.143h64.366c0-26.331-2.926-55.589-2.926-61.44-5.851-17.554-8.777-140.434-8.777-140.434s2.926-70.217 5.851-90.697c0-2.926 2.926-17.554 2.926-35.109l-67.291 2.926zM424.229 61.806c-2.926 35.109-2.926 43.886-5.851 46.811-2.926 8.777-5.851 64.366-5.851 73.143 0 11.703 2.926 117.029 5.851 128.731 2.926 8.777 2.926 43.886 5.851 73.143h64.366v-327.68l-64.366 5.851zM532.48 389.486h64.366c0-32.183 2.926-64.366 5.851-73.143 2.926-14.629 5.851-119.954 5.851-128.731s-2.926-64.366-5.851-73.143c0-2.926-2.926-11.703-5.851-46.811h-64.366v321.829zM640.731 328.046c0 5.851-2.926 35.109-2.926 61.44h64.366c0-20.48 2.926-55.589 8.777-73.143 5.851-20.48 14.629-117.029 14.629-131.657 0-11.703-5.851-61.44-8.777-70.217s-8.777-35.109-8.777-49.737h-64.366c0 14.629 2.926 32.183 2.926 35.109 5.851 17.554 5.851 87.771 5.851 90.697-2.926-5.851-5.851 117.029-11.703 137.509zM90.697 319.269c8.777 26.331 11.703 55.589 14.629 70.217h64.366c-2.926-17.554-5.851-43.886-8.777-61.44-11.703-40.96-23.406-119.954-23.406-146.286 0-20.48 8.777-61.44 17.554-87.771 2.926-8.777 5.851-20.48 8.777-35.109h-61.44c-2.926 11.703-11.703 38.034-17.554 52.663-2.926 5.851-2.926 8.777-5.851 14.629-8.777 20.48-14.629 38.034-14.629 52.663-2.926 29.257 8.777 84.846 26.331 140.434zM918.674-20.114h-816.274v43.886h813.349v-43.886zM945.006 129.097c-2.926-5.851-2.926-8.777-5.851-14.629-5.851-17.554-14.629-40.96-17.554-52.663h-64.366c2.926 11.703 5.851 26.331 8.777 35.109 11.703 23.406 17.554 64.366 17.554 87.771s-8.777 102.4-23.406 146.286c-8.777 14.629-11.703 40.96-11.703 58.514h64.366c2.926-14.629 5.851-43.886 14.629-70.217 17.554-55.589 32.183-111.177 32.183-131.657s-5.851-35.109-14.629-58.514zM289.646 693.76h201.874v-228.206h43.886v228.206h196.023v-228.206h43.886v494.446h-529.554v-494.446h43.886c0 0 0 228.206 0 228.206zM532.48 919.040h198.949v-181.394h-201.874v181.394zM289.646 919.040h201.874v-181.394h-201.874c0 0 0 181.394 0 181.394z" />
<glyph unicode="&#xe945;" glyph-name="cafe" d="M892.343 418.743h-70.217l2.926 78.994c0 8.777-2.926 17.554-8.777 23.406s-14.629 8.777-23.406 8.777h-713.874c-8.777 0-17.554-2.926-23.406-8.777s-8.777-14.629-8.777-23.406l14.629-304.274c2.926-76.069 49.737-137.509 111.177-166.766h-140.434c-17.554 0-32.183-14.629-32.183-32.183s17.554-29.257 32.183-29.257h804.571c17.554 0 32.183 14.629 32.183 32.183s-14.629 32.183-32.183 32.183h-143.36c52.663 23.406 90.697 70.217 105.326 125.806h87.771c73.143 0 134.583 61.44 134.583 134.583s-55.589 128.731-128.731 128.731zM620.251 73.509h-368.64c-67.291 0-125.806 55.589-128.731 122.88l-11.703 266.24h649.509l-11.703-266.24c-5.851-67.291-61.44-122.88-128.731-122.88zM892.343 216.869h-78.994l5.851 137.509h73.143c35.109 0 67.291-29.257 67.291-67.291 0-40.96-29.257-70.217-67.291-70.217zM339.383 582.583c5.851-2.926 11.703-2.926 17.554-2.926 11.703 0 20.48 5.851 26.331 14.629 8.777 14.629 2.926 35.109-11.703 46.811-17.554 11.703-29.257 29.257-32.183 55.589-2.926 23.406 2.926 49.737 17.554 67.291v0c2.926 2.926 5.851 8.777 8.777 11.703 29.257 32.183 61.44 70.217 70.217 122.88 2.926 14.629-11.703 29.257-29.257 32.183-14.629 2.926-29.257-8.777-32.183-26.331-5.851-35.109-29.257-61.44-55.589-90.697-2.926-2.926-5.851-8.777-11.703-11.703-26.331-32.183-40.96-76.069-35.109-119.954s32.183-78.994 67.291-99.474zM441.783 658.651c11.703-26.331 29.257-52.663 55.589-70.217 5.851-2.926 11.703-5.851 17.554-5.851 8.777 0 17.554 2.926 26.331 11.703 11.703 14.629 8.777 32.183-5.851 46.811-14.629 11.703-26.331 26.331-32.183 43.886-11.703 32.183 0 64.366 40.96 108.251 29.257 29.257 49.737 67.291 55.589 105.326 0 17.554-14.629 32.183-32.183 35.109-17.554 0-32.183-11.703-35.109-29.257-2.926-23.406-14.629-49.737-35.109-70.217-23.406-23.406-90.697-93.623-55.589-175.543z" />
<glyph unicode="&#xe946;" glyph-name="canteen" d="M1018.149 351.451v579.291c0 5.851 0 8.777-2.926 14.629-5.851 11.703-20.48 14.629-32.183 5.851-96.549-58.514-152.137-160.914-152.137-272.091v0-304.274c0-29.257 20.48-49.737 49.737-49.737v-315.977c0-38.034 32.183-70.217 70.217-70.217s70.217 32.183 70.217 70.217l-2.926 342.309zM877.714 371.931c-2.926 0-2.926 2.926 0 0l-2.926 310.126c0 78.994 35.109 155.063 96.549 207.726v-517.851h-93.623zM971.337 9.143c0-11.703-8.777-23.406-23.406-23.406-11.703 0-23.406 8.777-23.406 23.406v315.977h46.811v-315.977zM277.943 895.634c-29.257 40.96-70.217 64.366-117.029 64.366-43.886 0-87.771-20.48-117.029-64.366-29.257-38.034-43.886-90.697-43.886-146.286s14.629-105.326 46.811-146.286c17.554-20.48 38.034-40.96 58.514-49.737l-35.109-517.851c-2.926-23.406 5.851-49.737 23.406-67.291s40.96-29.257 67.291-29.257c23.406 0 49.737 8.777 67.291 29.257s23.406 43.886 23.406 67.291l-32.183 517.851c20.48 8.777 43.886 29.257 58.514 49.737 29.257 40.96 46.811 90.697 46.811 146.286s-14.629 108.251-46.811 146.286zM196.023-2.56c-8.777-8.777-20.48-14.629-35.109-14.629s-23.406 5.851-35.109 14.629c-8.777 8.777-11.703 20.48-11.703 35.109l35.109 506.149c2.926 0 5.851 0 11.703 0 2.926 0 5.851 0 11.703 0l35.109-506.149c0-11.703-2.926-26.331-11.703-35.109zM160.914 588.434c-8.777 0-14.629 0-23.406 2.926 0 0 0 0-2.926 0-52.663 14.629-90.697 78.994-90.697 157.989 0 90.697 52.663 160.914 114.103 160.914 64.366 0 114.103-73.143 114.103-160.914s-46.811-160.914-111.177-160.914zM661.211 960c-11.703 0-23.406-8.777-23.406-23.406v-266.24h-58.514v266.24c0 11.703-8.777 23.406-23.406 23.406s-23.406-8.777-23.406-23.406v-266.24h-58.514v266.24c0 11.703-8.777 23.406-23.406 23.406-11.703 0-23.406-8.777-23.406-23.406v-339.383c0-38.034 32.183-67.291 67.291-67.291h2.926l-35.109-494.446c-2.926-23.406 5.851-49.737 23.406-67.291 14.629-17.554 40.96-29.257 64.366-29.257s49.737 8.777 64.366 29.257c14.629 17.554 23.406 43.886 23.406 67.291l-35.109 494.446h2.926c38.034 0 67.291 32.183 67.291 67.291v339.383c11.703 11.703 2.926 23.406-11.703 23.406zM585.143-2.56c-8.777-8.777-17.554-11.703-32.183-11.703s-20.48 5.851-32.183 11.703c-8.777 8.777-11.703 17.554-11.703 32.183l35.109 497.371h17.554l35.109-497.371c0-8.777-2.926-23.406-11.703-32.183zM637.806 597.211c0-11.703-8.777-20.48-20.48-20.48h-122.88c-11.703 0-20.48 8.777-20.48 20.48v23.406h166.766v-23.406h-2.926z" />
<glyph unicode="&#xe947;" glyph-name="cellar" d="M851.383 919.040v-146.286h-146.286v-146.286h-146.286v-146.286h-146.286v-146.286h-149.211v-146.286h-149.211v-146.286h-114.103v-67.291h175.543v146.286h146.286v146.286h146.286v146.286h146.286v146.286h146.286v152.137h146.286v149.211h117.029v58.514h-172.617zM866.011 474.331l-169.691-169.691v76.069h-58.514v-175.543h175.543v58.514h-76.069l169.691 169.691-40.96 40.96z" />
<glyph unicode="&#xe948;" glyph-name="electricity_room" d="M775.314 535.771c-2.926 5.851-8.777 11.703-17.554 11.703h-178.469l108.251 386.194c2.926 14.629-2.926 23.406-14.629 26.331-2.926 0-2.926 0-5.851 0h-239.909c-8.777 0-17.554-5.851-17.554-14.629l-160.914-570.514c-2.926-5.851 0-11.703 2.926-17.554s8.777-8.777 14.629-5.851h178.469l-108.251-386.194c-2.926-8.777 2.926-17.554 11.703-26.331 2.926 0 5.851-2.926 8.777-2.926 5.851 0 11.703 2.926 14.629 8.777l397.897 570.514c8.777 8.777 8.777 14.629 5.851 20.48zM409.6 67.657l84.846 298.423c2.926 11.703-2.926 20.48-14.629 26.331-2.926 0-2.926 0-5.851 0h-178.469l146.286 529.554h198.949l-108.251-386.194c-2.926-11.703 2.926-20.48 14.629-26.331 2.926 0 2.926 0 5.851 0h163.84l-307.2-441.783zM532.48 684.983c-8.777 2.926-20.48-2.926-26.331-14.629l-2.926-8.777c-2.926-8.777 2.926-20.48 11.703-26.331v0c2.926 0 2.926 0 5.851 0 8.777 0 17.554 5.851 17.554 14.629l2.926 8.777c5.851 11.703 0 23.406-8.777 26.331zM590.994 901.486c-8.777 2.926-20.48-2.926-26.331-11.703v0l-43.886-155.063c-2.926-8.777 2.926-20.48 11.703-26.331v0c2.926 0 2.926 0 5.851 0 8.777 0 17.554 5.851 17.554 14.629l43.886 155.063c8.777 5.851 2.926 20.48-8.777 23.406 2.926 0 0 0 0 0v0z" />
<glyph unicode="&#xe949;" glyph-name="elevator" d="M968.411 960h-918.674c-11.703 0-17.554-5.851-17.554-17.554v-988.891c0-8.777 5.851-17.554 17.554-17.554h921.6c8.777 0 17.554 5.851 17.554 17.554v988.891c0 11.703-11.703 17.554-20.48 17.554zM441.783-31.817h-272.091v751.909h272.091v-751.909zM476.891-31.817v751.909h272.091v-751.909h-272.091zM950.857-31.817h-169.691v769.463c0 8.777-5.851 17.554-17.554 17.554h-611.474c-8.777 0-17.554-5.851-17.554-17.554v-766.537h-67.291v953.783h886.491l-2.926-956.709zM371.566 790.309h169.691c29.257 0 52.663 20.48 52.663 52.663s-20.48 52.663-52.663 52.663h-169.691c-29.257-2.926-49.737-23.406-49.737-52.663s20.48-52.663 49.737-52.663zM371.566 857.6h169.691c8.777 0 17.554-5.851 17.554-17.554s-5.851-14.629-17.554-14.629h-169.691c-8.777 0-17.554 5.851-17.554 17.554s8.777 14.629 17.554 14.629zM845.531 383.634l20.48 20.48 20.48-20.48c2.926-2.926 5.851-5.851 11.703-5.851s8.777 2.926 11.703 5.851 5.851 17.554 0 23.406l-32.183 35.109c-5.851 5.851-17.554 5.851-23.406 0l-32.183-32.183c-5.851-5.851-5.851-17.554 0-23.406 5.851-8.777 17.554-8.777 23.406-2.926zM854.309 249.051c2.926-2.926 5.851-5.851 11.703-5.851s8.777 2.926 11.703 5.851l32.183 32.183c5.851 5.851 5.851 17.554 0 23.406s-17.554 5.851-23.406 0l-20.48-20.48-20.48 20.48c-5.851 5.851-17.554 5.851-23.406 0s-5.851-17.554 0-23.406l32.183-32.183z" />
<glyph unicode="&#xe94a;" glyph-name="escalator" d="M655.36 901.486c23.406 0 43.886-17.554 43.886-43.886s-17.554-43.886-43.886-43.886c-23.406 0-43.886 17.554-43.886 43.886s23.406 43.886 43.886 43.886zM494.446 649.874c23.406 0 43.886 17.554 43.886 43.886 0 23.406-17.554 43.886-43.886 43.886s-43.886-17.554-43.886-43.886c0-26.331 17.554-43.886 43.886-43.886zM310.126 562.103c23.406 0 43.886-17.554 43.886-43.886 0-23.406-17.554-43.886-43.886-43.886-23.406 0-43.886 17.554-43.886 43.886 0 23.406 17.554 43.886 43.886 43.886zM895.269 720.091h-134.583c-14.629 0-38.034-8.777-58.514-23.406v58.514c0 23.406-17.554 43.886-43.886 43.886h-5.851c-23.406 0-43.886-17.554-43.886-43.886v-140.434c-20.48-17.554-46.811-46.811-73.143-73.143v46.811c0 23.406-17.554 43.886-43.886 43.886h-5.851c-23.406 0-43.886-17.554-43.886-43.886v-131.657c-35.109-35.109-64.366-64.366-93.623-90.697v52.663c0 23.406-17.554 43.886-43.886 43.886h-5.851c-23.406 0-43.886-17.554-43.886-43.886v-137.509c-2.926-2.926-2.926-2.926-5.851-5.851h-111.177c-76.069 0-137.509-61.44-137.509-137.509s61.44-137.509 137.509-137.509l140.434-5.851c11.703 0 55.589 2.926 90.697 40.96l412.526 412.526h102.4c76.069 0 137.509 61.44 137.509 137.509 11.703 73.143-49.737 134.583-125.806 134.583zM895.269 477.257h-114.103l-427.154-424.229c-26.331-26.331-58.514-29.257-67.291-29.257h-2.926l-140.434 2.926c-58.514 0-105.326 46.811-105.326 105.326s46.811 105.326 105.326 105.326h128.731l5.851 5.851c2.926 2.926 354.011 348.16 397.897 392.046s70.217 55.589 81.92 55.589h134.583c58.514 0 105.326-46.811 105.326-105.326s-46.811-108.251-102.4-108.251z" />
<glyph unicode="&#xe94b;" glyph-name="hair_salon" d="M746.057 240.274l-131.657 190.171 175.543 201.874c38.034 43.886 58.514 105.326 52.663 163.84-8.777 114.103-32.183 152.137-32.183 155.063-2.926 5.851-8.777 8.777-14.629 8.777s-11.703-2.926-14.629-5.851l-269.166-380.343-269.166 380.343c0 0-5.851 2.926-11.703 2.926s-11.703-2.926-14.629-8.777c-2.926-2.926-26.331-40.96-35.109-155.063-5.851-58.514 14.629-119.954 52.663-163.84l172.617-198.949-131.657-187.246c-84.846-2.926-149.211-70.217-149.211-152.137 0-87.771 70.217-152.137 152.137-152.137s152.137 70.217 152.137 152.137c0 38.034-14.629 76.069-35.109 102.4l114.103 128.731 114.103-128.731c-20.48-26.331-35.109-58.514-35.109-99.474 0-87.771 70.217-152.137 152.137-152.137s152.137 70.217 152.137 152.137c2.926 78.994-64.366 143.36-146.286 146.286zM280.869-34.743c-67.291 0-119.954 52.663-119.954 119.954s52.663 119.954 119.954 119.954c29.257 0 52.663-8.777 76.069-26.331 2.926-2.926 2.926-2.926 5.851-5.851l2.926-2.926c20.48-20.48 35.109-49.737 35.109-84.846 0-64.366-52.663-119.954-119.954-119.954zM374.491 208.091c-14.629 11.703-35.109 20.48-55.589 26.331l117.029 163.84 52.663-61.44-114.103-128.731zM532.48 538.697l257.463 362.789c5.851-20.48 14.629-55.589 17.554-114.103 2.926-49.737-14.629-102.4-43.886-140.434l-169.691-196.023-61.44 87.771zM216.503 793.234c2.926 52.663 11.703 87.771 17.554 114.103l263.314-371.566c0 0 0-2.926 2.926-2.926l78.994-114.103c2.926-2.926 2.926-2.926 5.851-2.926l125.806-175.543c-8.777-2.926-17.554-5.851-23.406-8.777-11.703-5.851-20.48-11.703-29.257-17.554l-394.971 438.857c-32.183 38.034-49.737 87.771-46.811 140.434zM743.131-34.743c-67.291 0-119.954 52.663-119.954 119.954 0 32.183 14.629 61.44 35.109 84.846 0 0 2.926 0 2.926 2.926 17.554 17.554 43.886 29.257 73.143 32.183 2.926 0 8.777 0 11.703 0 67.291 0 119.954-52.663 119.954-119.954s-58.514-119.954-122.88-119.954zM743.131 172.983c-46.811 0-87.771-38.034-87.771-87.771 0-46.811 38.034-87.771 87.771-87.771 46.811 0 87.771 38.034 87.771 87.771-2.926 49.737-40.96 87.771-87.771 87.771zM743.131 35.474c-29.257 0-49.737 20.48-49.737 49.737s20.48 49.737 49.737 49.737 49.737-20.48 49.737-49.737c0-26.331-20.48-49.737-49.737-49.737zM280.869 172.983c-46.811 0-87.771-38.034-87.771-87.771 0-46.811 38.034-87.771 87.771-87.771s87.771 38.034 87.771 87.771c0 49.737-38.034 87.771-87.771 87.771zM280.869 35.474c-29.257 0-49.737 20.48-49.737 49.737s20.48 49.737 49.737 49.737 49.737-20.48 49.737-49.737c2.926-26.331-20.48-49.737-49.737-49.737z" />
<glyph unicode="&#xe94c;" glyph-name="parking" d="M807.497 960h-593.92c-117.029 0-213.577-96.549-213.577-213.577v-599.771c0-114.103 96.549-210.651 213.577-210.651h599.771c117.029 0 213.577 96.549 213.577 213.577v596.846c-5.851 117.029-99.474 213.577-219.429 213.577zM983.040 149.577c0-96.549-78.994-172.617-172.617-172.617h-596.846c-96.549 0-172.617 78.994-172.617 172.617v596.846c-2.926 96.549 76.069 172.617 172.617 172.617h599.771c96.549 0 172.617-78.994 172.617-172.617v-596.846h-2.926zM532.48 790.309h-196.023c-32.183 0-55.589-23.406-55.589-55.589v-570.514c0-32.183 23.406-55.589 55.589-55.589s55.589 23.406 55.589 55.589v190.171h137.509c114.103 0 207.726 93.623 207.726 207.726v17.554c2.926 117.029-90.697 210.651-204.8 210.651zM629.029 562.103c0-52.663-43.886-96.549-96.549-96.549h-137.509v210.651h137.509c52.663 0 96.549-43.886 96.549-96.549v-17.554z" />
<glyph unicode="&#xe94d;" glyph-name="pharmacy" d="M424.229 278.309c0-11.703 11.703-23.406 23.406-20.48s17.554 11.703 17.554 20.48v131.657c152.137 17.554 277.943 157.989 277.943 318.903 0 11.703-8.777 20.48-20.48 20.48h-573.44c-11.703 0-20.48-8.777-20.48-20.48 0-166.766 140.434-313.051 301.349-321.829l-5.851-128.731zM169.691 702.537h532.48c-11.703-140.434-131.657-254.537-269.166-254.537s-251.611 119.954-263.314 254.537zM532.48-23.040h-61.44v108.251c0 11.703-8.777 20.48-17.554 20.48-11.703 2.926-23.406-8.777-23.406-20.48v-108.251h-61.44c-11.703 0-20.48-8.777-20.48-17.554-2.926-11.703 8.777-23.406 20.48-23.406h169.691c11.703 0 23.406 11.703 20.48 23.406-5.851 8.777-14.629 17.554-26.331 17.554zM845.531 837.12c-99.474 114.103-307.2 125.806-427.154 122.88-29.257 0-67.291-5.851-90.697-29.257-5.851-8.777-11.703-20.48-11.703-35.109 0-17.554 8.777-35.109 23.406-46.811 26.331-20.48 70.217-29.257 137.509-23.406 93.623 8.777 163.84 58.514 181.394 73.143 58.514-14.629 117.029-40.96 152.137-81.92s46.811-93.623 38.034-157.989c-40.96-239.909-289.646-269.166-298.423-269.166-11.703 0-20.48-11.703-20.48-20.48 0-11.703 11.703-20.48 20.48-20.48 0 0 0 0 2.926 0s292.571 29.257 336.457 304.274c14.629 70.217 0 134.583-43.886 184.32zM476.891 863.451c-67.291-5.851-96.549 5.851-105.326 14.629-5.851 5.851-8.777 11.703-8.777 20.48 0 2.926 0 5.851 2.926 5.851 8.777 8.777 29.257 14.629 55.589 14.629 8.777 0 14.629 0 23.406 0 43.886 0 102.4-2.926 157.989-11.703-29.257-17.554-73.143-40.96-125.806-43.886zM491.52 202.24c-137.509 8.777-163.84 40.96-169.691 55.589-11.703 29.257 26.331 67.291 26.331 67.291 8.777 8.777 8.777 20.48 0 29.257s-20.48 8.777-29.257 0c-2.926-2.926-58.514-55.589-38.034-114.103 17.554-49.737 84.846-76.069 204.8-81.92 117.029-5.851 146.286-35.109 152.137-52.663 11.703-32.183-26.331-76.069-40.96-93.623-8.777-8.777-8.777-20.48 0-29.257s20.48-8.777 29.257 0c8.777 5.851 73.143 73.143 49.737 137.509-14.629 46.811-78.994 76.069-184.32 81.92z" />
<glyph unicode="&#xe94e;" glyph-name="playground" d="M561.737 702.537c8.777 0 17.554 5.851 20.48 14.629s0 17.554-5.851 23.406l-251.611 213.577c-8.777 5.851-20.48 5.851-29.257 0l-251.611-210.651c-5.851-5.851-5.851-14.629-2.926-23.406s11.703-14.629 20.48-14.629h32.183v-339.383h-17.554c-11.703 0-23.406-8.777-23.406-20.48v0-386.194c0-11.703 8.777-23.406 23.406-20.48h389.12c11.703 0 20.48 8.777 20.48 20.48v359.863h14.629c11.703 0 20.48 8.777 20.48 20.48v0 362.789h40.96zM310.126 907.337l187.246-157.989h-374.491l187.246 157.989zM441.783-20.114h-342.309v339.383h342.309c0 0 0-339.383 0-339.383zM482.743 363.154h-342.309v339.383h342.309v-339.383zM965.486 363.154h-389.12c-11.703 0-20.48-8.777-20.48-20.48v0-386.194c0-11.703 8.777-20.48 20.48-20.48v0h389.12c11.703 0 20.48 8.777 20.48 20.48v0 383.269c0 11.703-8.777 23.406-20.48 23.406v0 0zM939.154-20.114h-342.309v339.383h342.309c0 0 0-339.383 0-339.383zM248.686 439.223h119.954c11.703 0 20.48 8.777 20.48 20.48v78.994c0 46.811-35.109 81.92-81.92 81.92s-81.92-35.109-81.92-81.92v-78.994c2.926-8.777 11.703-20.48 23.406-20.48v0zM272.091 541.623c0 20.48 17.554 35.109 35.109 35.109s35.109-17.554 35.109-35.109v-58.514h-70.217v58.514zM210.651 55.954h119.954c11.703 0 23.406 8.777 23.406 20.48v0 81.92c0 46.811-35.109 81.92-81.92 81.92s-81.92-35.109-81.92-81.92v-78.994c-2.926-11.703 8.777-23.406 20.48-23.406v0 0zM234.057 158.354c0 20.48 17.554 35.109 35.109 35.109 20.48 0 35.109-17.554 35.109-35.109v-58.514h-70.217v58.514zM710.949 55.954h119.954c11.703 0 20.48 8.777 20.48 20.48v0 81.92c0 46.811-35.109 81.92-81.92 81.92s-81.92-35.109-81.92-81.92v-78.994c-2.926-11.703 11.703-23.406 23.406-23.406v0 0zM734.354 158.354c0 20.48 17.554 35.109 35.109 35.109s35.109-17.554 35.109-35.109v-58.514h-73.143v58.514h2.926z" />
<glyph unicode="&#xe94f;" glyph-name="reception" d="M1009.371 480.183h-119.954v35.109c0 8.777-5.851 14.629-14.629 14.629v35.109c8.777 0 14.629 5.851 14.629 14.629 0 64.366-52.663 119.954-119.954 119.954s-119.954-52.663-119.954-119.954c0-8.777 5.851-14.629 14.629-14.629v-35.109c-8.777 0-14.629-5.851-14.629-14.629v-35.109h-204.8v102.4c0 49.737-26.331 96.549-64.366 125.806-5.851 2.926-14.629 2.926-20.48 0-40.96-29.257-96.549-29.257-137.509 0-8.777 2.926-17.554 2.926-26.331 0-40.96-29.257-64.366-76.069-64.366-125.806v-102.4h-119.954c-8.777 0-14.629-5.851-14.629-14.629v-102.4c0-8.777 5.851-14.629 14.629-14.629v-359.863c0-29.257 20.48-49.737 49.737-49.737h892.343c29.257 0 49.737 20.48 49.737 49.737v354.011c8.777 0 14.629 5.851 14.629 14.629v105.326c8.777 11.703 2.926 17.554-8.777 17.554zM769.463 667.429c40.96 0 76.069-29.257 84.846-70.217h-169.691c8.777 43.886 43.886 70.217 84.846 70.217zM702.171 565.029h137.509v-35.109h-137.509v35.109zM684.617 497.737h172.617v-14.629h-172.617v14.629zM289.646 644.023l29.257-32.183-29.257-49.737-29.257 49.737 29.257 32.183zM172.617 585.509c0 35.109 14.629 64.366 40.96 90.697 11.703-8.777 29.257-11.703 43.886-17.554l-29.257-29.257c-5.851-5.851-5.851-11.703-2.926-20.48l49.737-81.92c2.926-5.851 8.777-8.777 14.629-8.777s11.703 2.926 14.629 8.777l49.737 84.846c2.926 5.851 2.926 14.629-2.926 20.48l-29.257 29.257c14.629 2.926 29.257 8.777 43.886 17.554 26.331-26.331 40.96-55.589 40.96-90.697v-102.4h-234.057v99.474zM35.109 445.074h959.634v-70.217h-959.634v70.217zM977.189 105.691h-102.4c-8.777 0-14.629-5.851-14.629-14.629s5.851-14.629 14.629-14.629h102.4v-35.109h-102.4c-8.777 0-14.629-5.851-14.629-14.629s5.851-14.629 14.629-14.629h102.4v-14.629c0-8.777-5.851-14.629-14.629-14.629h-892.343c-8.777 0-14.629 5.851-14.629 14.629v14.629h99.474c8.777 0 14.629 5.851 14.629 14.629s-5.851 11.703-14.629 11.703h-105.326v35.109h102.4c8.777 0 14.629 5.851 14.629 14.629s-5.851 17.554-14.629 17.554h-102.4v239.909h921.6v-239.909h5.851zM289.646 723.017c64.366 0 119.954 52.663 119.954 119.954s-52.663 117.029-119.954 117.029-117.029-52.663-117.029-119.954c0-67.291 52.663-117.029 117.029-117.029zM289.646 924.891c46.811 0 84.846-38.034 84.846-84.846s-35.109-84.846-84.846-84.846-81.92 38.034-81.92 84.846 35.109 84.846 81.92 84.846zM497.371 3.291c84.846 0 152.137 70.217 152.137 152.137s-70.217 152.137-152.137 152.137-155.063-70.217-155.063-152.137 67.291-152.137 155.063-152.137zM497.371 275.383c64.366 0 119.954-52.663 119.954-119.954s-52.663-119.954-119.954-119.954-119.954 52.663-119.954 119.954 52.663 119.954 119.954 119.954zM497.371 70.583c8.777 0 14.629 5.851 14.629 14.629s-5.851 14.629-14.629 14.629c-29.257 0-49.737 20.48-49.737 49.737 0 8.777-5.851 14.629-14.629 14.629s-14.629-5.851-14.629-14.629c-8.777-40.96 29.257-78.994 78.994-78.994zM497.371 205.166c29.257 0 49.737-20.48 49.737-49.737 0-8.777 5.851-14.629 14.629-14.629s14.629 5.851 14.629 14.629c0 46.811-38.034 84.846-84.846 84.846-8.777 0-14.629-5.851-14.629-14.629 2.926-11.703 8.777-20.48 20.48-20.48z" />
<glyph unicode="&#xe950;" glyph-name="residents-club" d="M830.903 471.406c64.366 0 114.103 52.663 114.103 117.029s-52.663 114.103-117.029 114.103c-64.366 0-114.103-52.663-114.103-117.029v0c-2.926-61.44 52.663-114.103 117.029-114.103zM830.903 658.651c38.034 0 70.217-29.257 70.217-70.217s-29.257-70.217-70.217-70.217-70.217 32.183-70.217 70.217 29.257 70.217 70.217 70.217zM830.903 424.594c-29.257 0-64.366-8.777-90.697-20.48-11.703-5.851-14.629-20.48-8.777-32.183 5.851-8.777 17.554-14.629 29.257-8.777 20.48 11.703 46.811 17.554 70.217 17.554 73.143 0 134.583-52.663 146.286-119.954h-146.286c-11.703 0-23.406-8.777-23.406-23.406s8.777-23.406 23.406-23.406h169.691c11.703 0 23.406 8.777 23.406 23.406v0c-2.926 102.4-87.771 187.246-193.097 187.246zM196.023 254.903h-146.286c11.703 70.217 73.143 119.954 146.286 119.954 23.406 0 49.737-5.851 70.217-17.554 11.703-5.851 23.406 0 29.257 8.777 5.851 11.703 2.926 23.406-8.777 29.257-26.331 14.629-61.44 20.48-90.697 20.48-108.251 2.926-196.023-81.92-196.023-187.246 0-11.703 8.777-23.406 23.406-23.406v0h172.617c11.703 0 23.406 8.777 23.406 20.48 2.926 20.48-11.703 29.257-23.406 29.257v0zM193.097 471.406c64.366 0 114.103 52.663 114.103 117.029s-52.663 114.103-117.029 114.103c-64.366 0-114.103-52.663-114.103-117.029v0c2.926-61.44 55.589-114.103 117.029-114.103zM193.097 658.651c38.034 0 70.217-29.257 70.217-70.217s-29.257-70.217-70.217-70.217-70.217 29.257-70.217 70.217 32.183 70.217 70.217 70.217zM512 456.777c84.846 0 152.137 70.217 152.137 152.137 0 84.846-70.217 152.137-152.137 152.137-84.846 0-152.137-67.291-152.137-152.137s67.291-152.137 152.137-152.137v0zM512 711.314c58.514 0 102.4-49.737 102.4-105.326s-49.737-102.4-105.326-102.4-102.4 46.811-102.4 102.4c0 58.514 46.811 105.326 105.326 105.326zM512 415.817c-140.434 0-254.537-111.177-254.537-254.537 0-11.703 8.777-23.406 23.406-23.406v0h459.337c11.703 0 23.406 8.777 23.406 23.406v0c2.926 143.36-111.177 254.537-251.611 254.537zM307.2 184.686c11.703 111.177 114.103 193.097 231.131 181.394 96.549-11.703 169.691-84.846 181.394-181.394h-412.526z" />
<glyph unicode="&#xe951;" glyph-name="security_room" d="M102.4 453.851c0-96.549 67.291-184.32 196.023-324.754 58.514-61.44 122.88-119.954 187.246-172.617l26.331-20.48 26.331 20.48c67.291 52.663 128.731 111.177 187.246 172.617 128.731 137.509 196.023 228.206 196.023 324.754v310.126l-412.526 196.023-406.674-196.023v-310.126zM163.84 728.869l345.234 163.84 345.234-163.84v-272.091c0-143.36-228.206-336.457-345.234-433.006-117.029 99.474-345.234 289.646-345.234 433.006 0 0 0 272.091 0 272.091zM672.914 547.474l-52.663 52.663-149.211-149.211-70.217 73.143-52.663-55.589 122.88-125.806z" />
<glyph unicode="&#xe952;" glyph-name="shop" d="M1012.297 603.063l-152.137 266.24h-149.211v90.697h-394.971v-90.697h-149.211l-152.137-266.24c-17.554-32.183-17.554-76.069 0-111.177 14.629-26.331 35.109-43.886 64.366-52.663v-503.223h866.011v500.297c26.331 8.777 46.811 26.331 64.366 52.663 20.48 35.109 20.48 78.994 2.926 114.103zM362.789 916.114h310.126v-46.811h-310.126v46.811zM438.857-23.040h-193.097v315.977h193.097v-315.977zM909.897-23.040h-427.154v354.011h-277.943v-356.937h-81.92v459.337c38.034 2.926 76.069 20.48 93.623 52.663 20.48-32.183 58.514-52.663 99.474-52.663s78.994 20.48 99.474 52.663c20.48-32.183 58.514-52.663 99.474-52.663s78.994 20.48 99.474 52.663c20.48-32.183 58.514-52.663 99.474-52.663s78.994 20.48 99.474 52.663c20.48-29.257 52.663-49.737 93.623-52.663v-456.411h2.926zM974.263 509.44c-11.703-20.48-29.257-32.183-49.737-35.109-2.926 0-5.851 0-8.777 0-43.886 0-78.994 35.109-78.994 78.994h-40.96c0-43.886-35.109-78.994-78.994-78.994s-78.994 35.109-78.994 78.994h-40.96c0-43.886-35.109-78.994-78.994-78.994s-78.994 35.109-78.994 78.994h-40.96c0-43.886-35.109-78.994-78.994-78.994s-78.994 35.109-78.994 78.994h-43.886c0-43.886-35.109-78.994-78.994-78.994-2.926 0-5.851 0-8.777 0-20.48 2.926-40.96 14.629-49.737 35.109-14.629 23.406-14.629 49.737-5.851 73.143l140.434 245.76h640.731l137.509-245.76c14.629-20.48 14.629-49.737 2.926-73.143zM552.96 330.971v-204.8h277.943v204.8h-277.943zM792.869 170.057h-196.023v122.88h196.023v-122.88z" />
<glyph unicode="&#xe953;" glyph-name="smoking_room" d="M889.417 456.777l-213.577-76.069-596.846-216.503c-8.777-2.926-43.886-23.406-52.663-46.811 0 0 0-2.926-2.926-2.926-11.703-26.331-11.703-49.737-2.926-76.069s29.257-43.886 49.737-52.663c20.48-8.777 38.034-14.629 58.514-8.777 5.851 0 11.703 2.926 20.48 5.851v0l596.846 216.503c2.926 0 5.851 2.926 8.777 2.926l204.8 73.143c49.737 20.48 78.994 76.069 61.44 128.731-17.554 46.811-76.069 70.217-131.657 52.663zM734.354 240.274l-550.034-201.874c2.926 14.629 0 35.109-5.851 52.663-5.851 20.48-14.629 32.183-29.257 43.886l544.183 196.023c20.48 5.851 43.886-8.777 52.663-38.034 11.703-17.554 5.851-43.886-11.703-52.663zM945.006 313.417l-146.286-52.663c2.926 14.629 0 35.109-5.851 52.663s-14.629 32.183-29.257 43.886l146.286 52.663c26.331 8.777 58.514-2.926 67.291-32.183 8.777-23.406-5.851-55.589-32.183-64.366zM81.92 670.354c-8.777 0-14.629-2.926-20.48-11.703-5.851-5.851-8.777-14.629-14.629-23.406-35.109-55.589-76.069-114.103-17.554-196.023 5.851-8.777 14.629-20.48 23.406-29.257 20.48-26.331 38.034-46.811 40.96-78.994 2.926-40.96-20.48-67.291-61.44-105.326-8.777-8.777-8.777-26.331 0-35.109s26.331-8.777 35.109 0c38.034 38.034 78.994 78.994 73.143 146.286-5.851 46.811-29.257 76.069-52.663 105.326-5.851 8.777-11.703 14.629-20.48 26.331-35.109 52.663-17.554 81.92 20.48 140.434 5.851 5.851 8.777 14.629 14.629 26.331s2.926 26.331-5.851 32.183c-5.851 2.926-8.777 2.926-14.629 2.926zM190.171 910.263c-5.851 0-14.629-2.926-17.554-11.703-8.777-5.851-14.629-11.703-17.554-23.406-35.109-52.663-76.069-114.103-17.554-193.097 5.851-8.777 14.629-20.48 23.406-29.257 20.48-26.331 38.034-46.811 40.96-78.994 2.926-40.96-20.48-67.291-61.44-105.326-8.777-8.777-8.777-26.331 0-35.109s26.331-8.777 35.109 0c38.034 38.034 78.994 78.994 73.143 146.286-5.851 43.886-29.257 76.069-52.663 105.326-8.777 5.851-14.629 17.554-20.48 26.331-35.109 46.811-17.554 81.92 20.48 140.434 2.926 5.851 11.703 14.629 14.629 20.48 5.851 14.629 2.926 26.331-5.851 32.183-5.851 5.851-11.703 5.851-14.629 5.851z" />
<glyph unicode="&#xe954;" glyph-name="sporthall" d="M1012.297 541.623c-11.703 11.703-26.331 20.48-40.96 20.48h-23.406v17.554c0 32.183-29.257 61.44-67.291 61.44h-29.257v32.183c0 14.629-5.851 32.183-17.554 43.886-23.406 23.406-67.291 23.406-90.697 0-11.703-11.703-17.554-26.331-17.554-43.886v-163.84h-421.303v163.84c0 14.629-5.851 32.183-17.554 43.886-23.406 26.331-67.291 26.331-90.697 2.926-11.703-11.703-20.48-26.331-20.48-46.811v-35.109h-35.109c-14.629 0-29.257-5.851-40.96-14.629s-17.554-23.406-17.554-38.034v-20.48h-23.406c-14.629 0-29.257-5.851-40.96-20.48s-17.554-29.257-17.554-46.811v-93.623c0-17.554 5.851-32.183 14.629-43.886 11.703-14.629 26.331-23.406 43.886-23.406h23.406v-20.48c0-14.629 5.851-29.257 17.554-40.96s26.331-17.554 40.96-17.554h35.109v-35.109c0-14.629 5.851-32.183 17.554-43.886s26.331-17.554 43.886-17.554c17.554 0 32.183 5.851 43.886 17.554s17.554 26.331 17.554 43.886v163.84h415.451v-163.84c0-14.629 5.851-32.183 17.554-43.886s26.331-17.554 43.886-17.554c17.554 0 32.183 5.851 43.886 17.554s17.554 26.331 17.554 43.886v35.109h29.257c35.109 0 67.291 26.331 67.291 61.44v17.554h32.183c14.629 0 29.257 5.851 40.96 20.48 8.777 11.703 14.629 26.331 14.629 43.886v93.623c5.851 17.554 0 35.109-8.777 46.811zM58.514 369.006c-5.851 0-11.703 2.926-17.554 8.777-8.777 5.851-11.703 14.629-11.703 26.331v93.623c0 8.777 2.926 17.554 8.777 23.406s11.703 8.777 17.554 8.777h23.406v-160.914c2.926 0-20.48 0-20.48 0zM140.434 287.086c-8.777 0-14.629 2.926-20.48 8.777s-8.777 11.703-8.777 17.554v266.24c0 5.851 2.926 11.703 8.777 17.554s11.703 8.777 20.48 8.777h35.109v-318.903c0 0-35.109 0-35.109 0zM272.091 222.72c0-8.777-2.926-14.629-8.777-20.48-11.703-11.703-32.183-11.703-43.886 0-5.851 5.851-8.777 11.703-8.777 20.48v450.56c0 8.777 2.926 14.629 8.777 20.48s14.629 8.777 23.406 8.777c8.777 2.926 14.629 0 20.48-5.851s8.777-11.703 8.777-20.48v-453.486zM304.274 415.817v64.366h415.451v-64.366h-415.451zM819.2 222.72c0-8.777-2.926-14.629-8.777-20.48-11.703-11.703-32.183-11.703-43.886 0-5.851 5.851-8.777 11.703-8.777 20.48v450.56c0 8.777 2.926 14.629 8.777 20.48s11.703 8.777 20.48 8.777 17.554-2.926 23.406-8.777c5.851-2.926 8.777-11.703 8.777-20.48v-406.674c0 2.926 0-43.886 0-43.886zM915.749 319.269c0-14.629-14.629-29.257-32.183-29.257h-29.257v318.903h29.257c17.554 0 32.183-11.703 32.183-29.257v-260.389zM991.817 398.263c0-8.777-2.926-17.554-8.777-23.406s-8.777-8.777-14.629-8.777h-23.406v160.914h23.406c5.851 0 11.703-2.926 14.629-8.777 5.851-5.851 8.777-14.629 8.777-23.406v-96.549z" />
<glyph unicode="&#xe955;" glyph-name="stairway" d="M570.514 222.72c-17.554 0-35.109 8.777-46.811 20.48l-117.029 146.286h-32.183c-70.217 0-128.731 58.514-128.731 131.657 0 0 0 0 0 2.926v149.211c0 35.109 29.257 67.291 64.366 67.291h49.737c35.109 0 64.366-32.183 64.366-67.291v-55.589l96.549-38.034-14.629-40.96-122.88 49.737v87.771c0 11.703-11.703 23.406-23.406 23.406h-49.737c-11.703 0-23.406-11.703-23.406-23.406v-149.211c0-46.811 38.034-87.771 84.846-90.697 0 0 0 0 2.926 0h52.663l131.657-160.914c2.926-5.851 8.777-5.851 14.629-5.851 2.926 0 8.777 0 11.703 2.926s5.851 8.777 5.851 11.703c0 5.851-2.926 11.703-2.926 17.554l-140.434 172.617h-40.96v46.811h55.589l152.137-190.171c11.703-14.629 17.554-32.183 14.629-49.737-2.926-14.629-8.777-29.257-20.48-40.96-8.777-11.703-23.406-17.554-38.034-17.554zM196.023 102.766c-17.554 0-32.183 5.851-43.886 20.48-23.406 26.331-20.48 64.366 2.926 90.697l117.029 108.251 17.554 114.103 40.96-5.851-20.48-131.657-125.806-119.954c-5.851-8.777-8.777-17.554 0-26.331v0c5.851-8.777 17.554-8.777 23.406-2.926 0 0 0 0 2.926 2.926l134.583 125.806 23.406 140.434 40.96-5.851-26.331-155.063-146.286-137.509c-11.703-14.629-26.331-20.48-40.96-17.554v0zM348.16 784.457c-46.811-2.926-87.771 35.109-90.697 84.846s35.109 87.771 84.846 90.697c46.811 2.926 87.771-35.109 90.697-84.846v-2.926c0-46.811-38.034-84.846-84.846-87.771v0zM348.16 916.114c-23.406 0-43.886-17.554-43.886-40.96s17.554-43.886 40.96-43.886 43.886 17.554 43.886 40.96v0c0 23.406-17.554 43.886-40.96 43.886v0zM362.789-64h-324.754v43.886h283.794v99.474h178.469v96.549h175.543v96.549h310.126v-43.886h-266.24v-99.474h-175.543v-96.549h-178.469l-2.926-96.549z" />
<glyph unicode="&#xe956;" glyph-name="washing_room" d="M880.64-64h-737.28c-38.034 0-70.217 29.257-70.217 70.217v883.566c0 38.034 29.257 70.217 70.217 70.217h740.206c38.034 0 70.217-29.257 70.217-70.217v-880.64c-2.926-40.96-32.183-73.143-73.143-73.143zM128.731 898.56v-904.046l763.611-2.926c0 0 2.926 0 2.926 2.926v904.046h-766.537zM512 50.103c-149.211 0-272.091 122.88-272.091 272.091s122.88 272.091 272.091 272.091 272.091-122.88 272.091-272.091-122.88-272.091-272.091-272.091zM512 526.994c-114.103 0-207.726-93.623-207.726-207.726s93.623-207.726 207.726-207.726 207.726 93.623 207.726 207.726-93.623 207.726-207.726 207.726zM512 202.24c-64.366 0-119.954 55.589-119.954 119.954s55.589 119.954 119.954 119.954 119.954-55.589 119.954-119.954-55.589-119.954-119.954-119.954zM512 383.634c-32.183 0-64.366-29.257-64.366-64.366 0-32.183 29.257-64.366 64.366-64.366 32.183 0 64.366 29.257 64.366 64.366 0 32.183-32.183 64.366-64.366 64.366zM722.651 649.874c-58.514 0-99.474 43.886-99.474 99.474s43.886 99.474 99.474 99.474 99.474-43.886 99.474-99.474-40.96-99.474-99.474-99.474zM722.651 804.937c-29.257 0-52.663-20.48-52.663-52.663s20.48-52.663 52.663-52.663c29.257 0 52.663 20.48 52.663 52.663s-20.48 52.663-52.663 52.663zM512 717.166h-280.869c-20.48 0-32.183 8.777-32.183 23.406s11.703 23.406 32.183 23.406h280.869c20.48 0 32.183-8.777 32.183-23.406s-11.703-23.406-32.183-23.406z" />
<glyph unicode="&#xe957;" glyph-name="wc" d="M514.926-23.040c-14.629 0-23.406 5.851-23.406 14.629v912.823c0 8.777 11.703 14.629 23.406 14.629s23.406-5.851 23.406-14.629v-909.897c2.926-8.777-8.777-17.554-23.406-17.554zM207.726 123.246c-5.851 0-11.703 2.926-14.629 8.777l-193.097 380.343c0 2.926 0 8.777 2.926 11.703 2.926 5.851 8.777 5.851 11.703 5.851h386.194c5.851 0 8.777-2.926 11.703-5.851 2.926-5.851 2.926-8.777 0-14.629l-193.097-380.343c0-2.926-5.851-5.851-11.703-5.851zM49.737 491.886l157.989-310.126 157.989 310.126c0 0-315.977 0-315.977 0zM1009.371 123.246h-386.194c-5.851 0-8.777 2.926-11.703 5.851-2.926 5.851-2.926 8.777 0 14.629l193.097 380.343c2.926 5.851 8.777 8.777 14.629 8.777s11.703-2.926 14.629-8.777l193.097-380.343c2.926-5.851 2.926-8.777 0-14.629-8.777-2.926-11.703-5.851-17.554-5.851zM664.137 170.057h304.274l-152.137 298.423-152.137-298.423zM207.726 562.103c-61.44 0-114.103 49.737-114.103 114.103s49.737 114.103 114.103 114.103 114.103-49.737 114.103-114.103-52.663-114.103-114.103-114.103zM207.726 755.2c-43.886 0-76.069-35.109-76.069-78.994s35.109-76.069 76.069-76.069 76.069 35.109 76.069 76.069-35.109 78.994-76.069 78.994zM816.274 565.029c-61.44 0-114.103 49.737-114.103 114.103s49.737 114.103 114.103 114.103 114.103-49.737 114.103-114.103-49.737-114.103-114.103-114.103zM816.274 755.2c-43.886 0-76.069-35.109-76.069-76.069s35.109-76.069 76.069-76.069 76.069 35.109 76.069 76.069c0 40.96-32.183 76.069-76.069 76.069z" />
<glyph unicode="&#xe958;" glyph-name="address" d="M512 436.297c-93.623-2.926-169.691 73.143-169.691 163.84 2.926 93.623 78.994 166.766 169.691 163.84 93.623 2.926 169.691-73.143 169.691-163.84 0-96.549-76.069-166.766-169.691-163.84zM512 960c-204.8 2.926-374.491-160.914-377.417-365.714 0-190.171 169.691-435.931 283.794-552.96 43.886-43.886 93.623-105.326 93.623-105.326s52.663 61.44 99.474 105.326c114.103 114.103 277.943 345.234 277.943 550.034-2.926 207.726-172.617 371.566-377.417 368.64z" />
<glyph unicode="&#xe959;" glyph-name="archive" d="M906.971 608.914v131.657h-453.486l-64.366 128.731h-260.389l-64.366-128.731h-64.366v-614.4l193.097 482.743h713.874zM239.909 544.549l-207.726-517.851h830.903l160.914 517.851h-784.091z" />
<glyph unicode="&#xe95a;" glyph-name="arrow_bottom" d="M994.743 708.389c-29.257 40.96-81.92 40.96-111.177 0l-371.566-356.937-377.417 356.937c-29.257 40.96-81.92 40.96-111.177 0v0c-29.257-29.257-29.257-81.92 0-111.177l430.080-418.377c29.257-29.257 81.92-29.257 111.177 0l430.080 418.377c38.034 40.96 38.034 81.92 0 111.177z" />
<glyph unicode="&#xe95b;" glyph-name="arrow_left" d="M661.211 927.817v0l-418.377-427.154c-29.257-29.257-29.257-81.92 0-111.177l418.377-430.080c29.257-29.257 81.92-29.257 111.177 0v0c40.96 29.257 40.96 81.92 0 111.177l-356.937 377.417 356.937 368.64c40.96 29.257 40.96 81.92 0 111.177-29.257 43.886-70.217 43.886-111.177 0z" />
<glyph unicode="&#xe95c;" glyph-name="arrow_right" d="M251.611 927.817c-40.96-29.257-40.96-81.92 0-111.177l356.937-368.64-356.937-377.417c-40.96-29.257-40.96-81.92 0-111.177v0c29.257-29.257 81.92-29.257 111.177 0l418.377 430.080c29.257 29.257 29.257 81.92 0 111.177l-418.377 427.154c-40.96 43.886-81.92 43.886-111.177 0z" />
<glyph unicode="&#xe95d;" glyph-name="arrow_top" d="M994.743 298.789v0l-430.080 418.377c-29.257 29.257-81.92 29.257-111.177 0l-430.080-418.377c-29.257-29.257-29.257-81.92 0-111.177v0c29.257-40.96 81.92-40.96 111.177 0l377.417 356.937 368.64-356.937c29.257-40.96 81.92-40.96 111.177 0 40.96 29.257 40.96 70.217 2.926 111.177z" />
<glyph unicode="&#xe95e;" glyph-name="checked" d="M766.537 509.44v272.091l-181.394 178.469h-585.143v-1024h766.537v2.926c143.36 14.629 257.463 137.509 257.463 283.794s-114.103 269.166-257.463 286.72zM573.44 883.931l114.103-114.103h-114.103v114.103zM64.366 0.366v895.269h447.634v-193.097h190.171v-196.023c-58.514-5.851-108.251-29.257-149.211-61.44h-424.229v-64.366h368.64c-11.703-20.48-23.406-40.96-32.183-64.366h-336.457v-64.366h321.829c0-8.777-2.926-23.406-2.926-32.183 0-90.697 40.96-172.617 105.326-225.28h-488.594v5.851zM734.354 3.291c-122.88 0-219.429 99.474-219.429 219.429s99.474 219.429 219.429 219.429 219.429-99.474 219.429-219.429-99.474-219.429-219.429-219.429zM128.731 576.731h512v-64.366h-512v64.366zM827.977 351.451l-125.806-128.731-64.366 64.366-64.366-64.366 128.731-125.806 190.171 190.171z" />
<glyph unicode="&#xe95f;" glyph-name="close" d="M1024 901.486l-58.514 58.514-459.337-459.337-447.634 444.709-58.514-58.514 447.634-444.709-418.377-418.377 64.366-58.514 412.526 418.377 444.709-447.634 58.514 58.514-444.709 447.634z" />
<glyph unicode="&#xe960;" glyph-name="companies" horiz-adv-x="1004" d="M374.491 796.16h-93.623c0 78.994 61.44 140.434 140.434 140.434h184.32c78.994 0 140.434-61.44 140.434-140.434h-93.623c0 26.331-20.48 46.811-46.811 46.811h-187.246c-23.406-2.926-43.886-23.406-43.886-46.811zM602.697 260.754c0-11.703-8.777-23.406-23.406-23.406v0h-140.434c-11.703 0-23.406 8.777-23.406 23.406v0 49.737l-415.451 105.326v-362.789c0-49.737 40.96-93.623 93.623-93.623h836.754c49.737 0 93.623 40.96 93.623 93.623v362.789l-418.377-105.326v-49.737h-2.926zM927.451 749.349h-833.829c-52.663 0-93.623-43.886-93.623-93.623v-155.063l418.377-105.326v5.851c0 11.703 8.777 23.406 23.406 23.406v0h140.434c11.703 0 23.406-8.777 23.406-23.406v-5.851l418.377 105.326v155.063c-2.926 49.737-40.96 93.623-96.549 93.623v0z" />
<glyph unicode="&#xe961;" glyph-name="company_id" d="M945.006 848.823h-866.011c-43.886 0-78.994-32.183-78.994-76.069v-649.509c0-43.886 35.109-78.994 78.994-76.069h866.011c43.886 0 78.994 35.109 78.994 76.069v649.509c0 43.886-35.109 76.069-78.994 76.069 0 0 0 0 0 0zM512 673.28h254.537c14.629 0 29.257-11.703 29.257-29.257 0-14.629-11.703-29.257-29.257-29.257h-254.537c-14.629 0-29.257 11.703-29.257 29.257 0 14.629 11.703 29.257 29.257 29.257zM406.674 228.571h-277.943v435.931h277.943v-435.931zM901.12 225.646h-389.12c-14.629 0-29.257 11.703-29.257 29.257 0 14.629 11.703 29.257 29.257 29.257h389.12c14.629 0 29.257-11.703 29.257-29.257 0-14.629-14.629-29.257-29.257-29.257zM901.12 330.971h-389.12c-14.629 0-29.257 11.703-29.257 29.257s11.703 29.257 29.257 29.257v0h389.12c14.629 0 29.257-11.703 29.257-29.257s-14.629-29.257-29.257-29.257zM901.12 433.371h-389.12c-14.629 0-29.257 11.703-29.257 29.257s11.703 29.257 29.257 29.257h389.12c14.629 0 29.257-11.703 29.257-29.257 0-14.629-14.629-29.257-29.257-29.257 0 0 0 0 0 0v0z" />
<glyph unicode="&#xe962;" glyph-name="company_status" d="M590.994 960h-526.629v-55.589h11.703c0-8.777 0-20.48 0-29.257v-35.109c0-29.257-35.109-38.034-46.811-58.514-5.851-20.48-8.777-43.886-5.851-64.366v-157.989c0-117.029 0-234.057 0-351.086v-190.171h-23.406v-81.92h585.143v43.886c-38.034 17.554-70.217 43.886-99.474 76.069h-155.063v225.28h70.217c0 32.183 5.851 64.366 14.629 96.549h-14.629v125.806h78.994v-11.703c29.257 32.183 64.366 58.514 102.4 78.994v333.531h8.777v55.589zM152.137 869.303h78.994v-125.806h-78.994v125.806zM152.137 684.983h78.994v-5.851c0-2.926 0-5.851 0-5.851 0-35.109 0-67.291 0-102.4 0-2.926 0-2.926 0-5.851v-5.851h-2.926c-2.926 0-5.851 0-8.777 0-23.406 0-43.886 0-67.291 0v125.806zM231.131 500.663v-125.806h-78.994v125.806h78.994zM301.349 55.954h-155.063v225.28h157.989v-225.28zM356.937 377.783h-81.92v125.806h78.994v-125.806h2.926zM356.937 559.177v0 0c-26.331 0-49.737 0-76.069 0 0 0 0 0-2.926 0h-2.926v2.926c0 0 0 0 0 2.926 0 38.034 0 78.994 0 119.954v0 0h78.994v-125.806h2.926zM356.937 743.497h-81.92v125.806h78.994v-2.926c2.926 2.926 2.926-122.88 2.926-122.88zM482.743 559.177h-78.994v125.806h78.994v-125.806zM482.743 743.497v0 0h-78.994v125.806h78.994v-125.806zM734.354 562.103c-157.989-2.926-283.794-131.657-280.869-289.646s131.657-283.794 289.646-280.869c155.063 2.926 280.869 128.731 280.869 286.72-2.926 155.063-131.657 283.794-289.646 283.794v0zM734.354 477.257c32.183 0 55.589-26.331 55.589-55.589 0-32.183-26.331-55.589-55.589-55.589-32.183 0-55.589 26.331-55.589 55.589-2.926 29.257 23.406 55.589 55.589 55.589v0 0zM813.349 79.36c-5.851-2.926-14.629-2.926-20.48-2.926-52.663 0-64.366 0-117.029 0-23.406-2.926-40.96 14.629-43.886 38.034s14.629 40.96 38.034 43.886c2.926 0 2.926 0 5.851 0 11.703 0 5.851 0 20.48 0v29.257c0 14.629 0 29.257 0 43.886 0 2.926-2.926 5.851-5.851 8.777-20.48 2.926-35.109 23.406-35.109 43.886 2.926 23.406 20.48 38.034 43.886 38.034 11.703 0 23.406 0 35.109 0 23.406 0 40.96-17.554 43.886-38.034 0 0 0-2.926 0-2.926 0-38.034 0-78.994 0-119.954 14.629 0 8.777 0 20.48 0 20.48 0 35.109-14.629 40.96-32.183 0-26.331-8.777-43.886-26.331-49.737z" />
<glyph unicode="&#xe963;" glyph-name="copy" d="M722.651 702.537h-678.766c-23.406 2.926-43.886-14.629-43.886-35.109 0-2.926 0-2.926 0-5.851v-678.766c0-26.331 14.629-46.811 38.034-46.811 2.926 0 2.926 0 5.851 0h678.766c23.406 0 40.96 14.629 43.886 38.034 0 2.926 0 2.926 0 5.851v681.691c0 23.406-14.629 40.96-38.034 43.886-2.926 0-5.851 0-5.851-2.926zM593.92 129.097c0-11.703-8.777-20.48-20.48-20.48 0 0 0 0-2.926 0h-380.343c-11.703 0-20.48 8.777-20.48 20.48 0 0 0 0 0 2.926v380.343c0 11.703 8.777 20.48 20.48 20.48 0 0 0 0 2.926 0h383.269c11.703 0 20.48-8.777 20.48-20.48 0 0 0 0 0-2.926l-2.926-380.343zM977.189 960h-678.766c-20.48 0-40.96-14.629-40.96-38.034 0-2.926 0-2.926 0-5.851v-84.846c0-23.406 14.629-40.96 38.034-43.886 2.926 0 2.926 0 5.851 0h529.554c11.703 0 20.48-8.777 20.48-20.48 0 0 0 0 0-2.926v-529.554c0-23.406 14.629-40.96 38.034-43.886 2.926 0 2.926 0 5.851 0h84.846c23.406 0 40.96 14.629 43.886 38.034 0 2.926 0 2.926 0 5.851v681.691c-2.926 23.406-17.554 43.886-40.96 43.886 0 0-2.926 0-5.851 0z" />
<glyph unicode="&#xe964;" glyph-name="country" d="M877.714 810.789c-201.874 198.949-529.554 198.949-728.503 0s-198.949-526.629 0-725.577 526.629-198.949 725.577 0c146.286 146.286 190.171 368.64 108.251 564.663-23.406 58.514-58.514 114.103-105.326 160.914zM942.080 488.96h-140.434c-2.926 61.44-11.703 122.88-29.257 184.32 29.257 8.777 58.514 20.48 87.771 35.109 43.886-64.366 73.143-140.434 81.92-219.429v0zM555.886 851.749c8.777-5.851 20.48-11.703 26.331-17.554 26.331-23.406 49.737-52.663 67.291-84.846 2.926-5.851 5.851-11.703 8.777-17.554-35.109-5.851-70.217-8.777-102.4-11.703v131.657zM371.566 749.349c17.554 32.183 38.034 61.44 67.291 84.846 8.777 5.851 17.554 11.703 26.331 17.554v-131.657c-35.109 2.926-70.217 5.851-105.326 11.703 5.851 5.851 8.777 11.703 11.703 17.554zM324.754 614.766c2.926 11.703 5.851 23.406 8.777 35.109 43.886-8.777 87.771-14.629 134.583-14.629v-146.286h-160.914c2.926 43.886 8.777 84.846 17.554 125.806zM468.114 401.189v-146.286c-43.886-2.926-90.697-5.851-134.583-14.629-2.926 11.703-5.851 23.406-8.777 38.034-8.777 40.96-14.629 81.92-17.554 125.806l160.914-2.926zM468.114 170.057v-128.731c-8.777 5.851-20.48 11.703-26.331 17.554-26.331 23.406-49.737 52.663-67.291 84.846-2.926 5.851-5.851 11.703-8.777 17.554 32.183 2.926 67.291 8.777 102.4 8.777v0zM649.509 143.726c-17.554-32.183-38.034-61.44-67.291-84.846-8.777-5.851-17.554-11.703-26.331-17.554v128.731c35.109-2.926 67.291-5.851 102.4-11.703-2.926-2.926-5.851-8.777-8.777-14.629v0zM699.246 278.309c-2.926-11.703-5.851-26.331-8.777-38.034-43.886 8.777-87.771 14.629-134.583 14.629v146.286h160.914c-2.926-40.96-8.777-81.92-17.554-122.88zM555.886 488.96v146.286c43.886 2.926 90.697 5.851 134.583 14.629 2.926-11.703 5.851-23.406 8.777-35.109 8.777-40.96 14.629-84.846 17.554-125.806h-160.914zM795.794 769.829c-17.554-8.777-35.109-14.629-55.589-20.48-5.851 14.629-11.703 26.331-17.554 38.034-8.777 17.554-20.48 32.183-29.257 46.811 38.034-14.629 73.143-35.109 102.4-64.366zM327.68 837.12c-11.703-14.629-20.48-32.183-29.257-46.811-5.851-11.703-11.703-26.331-17.554-38.034-20.48 2.926-38.034 11.703-55.589 17.554 32.183 29.257 67.291 49.737 102.4 67.291zM166.766 705.463c29.257-14.629 55.589-26.331 87.771-35.109-17.554-58.514-26.331-119.954-29.257-181.394h-143.36c5.851 78.994 35.109 155.063 84.846 216.503zM81.92 401.189h140.434c2.926-61.44 11.703-122.88 29.257-181.394-29.257-8.777-58.514-20.48-87.771-35.109-46.811 64.366-76.069 137.509-81.92 216.503zM225.28 120.32c17.554 8.777 35.109 14.629 55.589 20.48 5.851-11.703 11.703-26.331 17.554-38.034 8.777-17.554 20.48-35.109 32.183-49.737-38.034 17.554-73.143 40.96-105.326 67.291zM690.469 53.029c11.703 17.554 23.406 32.183 32.183 49.737 5.851 11.703 11.703 23.406 17.554 38.034 17.554-5.851 38.034-11.703 55.589-20.48-32.183-26.331-67.291-49.737-105.326-67.291v0zM857.234 184.686c-29.257 14.629-58.514 26.331-87.771 35.109 17.554 58.514 26.331 119.954 29.257 181.394h143.36c-8.777-78.994-38.034-152.137-84.846-216.503v0z" />
<glyph unicode="&#xe965;" glyph-name="date" d="M157.989 401.189v70.217c0 11.703 8.777 20.48 17.554 20.48 0 0 0 0 0 0h70.217c11.703 0 20.48-8.777 20.48-17.554 0 0 0 0 0 0v-70.217c0-11.703-8.777-20.48-20.48-20.48h-67.291c-11.703-2.926-20.48 5.851-20.48 17.554 0 0 0 0 0 0zM327.68 380.709h70.217c11.703 0 20.48 8.777 20.48 17.554 0 0 0 0 0 0v70.217c0 11.703-8.777 20.48-17.554 20.48 0 0 0 0 0 0h-70.217c-11.703 0-20.48-8.777-20.48-20.48 0 0 0 0 0 0v-70.217c-2.926-8.777 5.851-14.629 17.554-17.554v0zM476.891 380.709h73.143c11.703 0 17.554 8.777 20.48 20.48v70.217c0 11.703-8.777 20.48-20.48 20.48h-73.143c-11.703 0-20.48-8.777-20.48-20.48v-70.217c0-11.703 8.777-20.48 20.48-20.48zM327.68 237.349h70.217c11.703 0 20.48 8.777 20.48 17.554 0 0 0 0 0 0v70.217c0 11.703-8.777 20.48-17.554 20.48 0 0 0 0 0 0h-70.217c-11.703 0-20.48-8.777-20.48-20.48 0 0 0 0 0 0v-70.217c-2.926-8.777 5.851-17.554 17.554-17.554v0zM476.891 237.349h73.143c11.703 0 17.554 8.777 20.48 20.48v70.217c0 11.703-8.777 20.48-20.48 20.48h-73.143c-11.703 0-20.48-8.777-20.48-20.48v-70.217c0-11.703 8.777-20.48 20.48-20.48zM626.103 237.349h73.143c11.703 0 17.554 8.777 20.48 20.48v70.217c0 11.703-8.777 20.48-20.48 20.48h-73.143c-11.703 0-20.48-8.777-20.48-20.48v-70.217c0-11.703 8.777-20.48 20.48-20.48 0 0 0 0 0 0v0 0zM178.469 237.349h70.217c11.703 0 20.48 8.777 20.48 20.48 0 0 0 0 0 0v70.217c0 11.703-8.777 20.48-20.48 20.48h-70.217c-11.703 0-17.554-8.777-20.48-17.554 0 0 0 0 0 0v-70.217c0-14.629 8.777-23.406 20.48-23.406 0 0 0 0 0 0v0zM476.891 91.063h73.143c11.703 0 17.554 8.777 20.48 20.48v73.143c0 11.703-8.777 20.48-20.48 20.48h-73.143c-11.703 0-20.48-8.777-20.48-20.48v0-73.143c0-11.703 8.777-20.48 20.48-20.48v0zM327.68 91.063h70.217c11.703 0 17.554 8.777 20.48 17.554 0 0 0 0 0 0v73.143c0 11.703-8.777 20.48-17.554 20.48 0 0 0 0 0 0h-70.217c-11.703 0-20.48-8.777-20.48-17.554 0 0 0 0 0 0v-73.143c-2.926-11.703 5.851-20.48 17.554-20.48v0zM626.103 380.709h73.143c11.703 0 17.554 8.777 20.48 20.48v70.217c0 11.703-8.777 20.48-20.48 20.48h-73.143c-11.703 0-20.48-8.777-20.48-20.48v-70.217c0-11.703 8.777-20.48 20.48-20.48 0 0 0 0 0 0v0zM775.314 237.349h70.217c11.703 0 17.554 8.777 20.48 20.48v70.217c0 11.703-8.777 20.48-20.48 20.48h-70.217c-11.703 0-20.48-8.777-20.48-20.48 0 0 0 0 0 0v-70.217c2.926-11.703 8.777-20.48 20.48-20.48v0zM626.103 91.063h73.143c11.703 0 17.554 8.777 20.48 20.48v73.143c0 11.703-8.777 20.48-20.48 20.48h-73.143c-11.703 0-20.48-8.777-20.48-20.48v-73.143c0-11.703 8.777-20.48 20.48-20.48 0 0 0 0 0 0v0 0zM0 47.177v690.469c0 61.44 49.737 111.177 111.177 111.177 0 0 0 0 0 0h125.806v70.217c0 23.406 17.554 40.96 40.96 40.96h64.366c23.406 0 40.96-17.554 40.96-40.96v0-70.217h257.463v70.217c0 23.406 17.554 40.96 40.96 40.96h64.366c23.406 0 40.96-17.554 40.96-40.96v0-70.217h125.806c61.44 0 111.177-49.737 111.177-111.177v-690.469c0-61.44-49.737-111.177-111.177-111.177v0h-801.646c-61.44 0-111.177 49.737-111.177 111.177 0 0 0 0 0 0v0zM87.771 47.177c0-11.703 8.777-23.406 23.406-23.406h798.72c14.629 0 26.331 11.703 26.331 26.331v509.074h-848.457v-512z" />
<glyph unicode="&#xe966;" glyph-name="delete" d="M228.206-14.263c0-26.331 23.406-49.737 49.737-49.737h465.189c26.331 0 49.737 23.406 49.737 49.737l32.183 725.577h-629.029l32.183-725.577zM617.326 529.92c0 11.703 8.777 20.48 20.48 20.48 0 0 0 0 0 0h32.183c11.703 0 20.48-8.777 20.48-20.48 0 0 0 0 0 0v-415.451c0-11.703-8.777-20.48-20.48-20.48 0 0 0 0 0 0h-32.183c-11.703 0-20.48 8.777-20.48 20.48 0 0 0 0 0 0v415.451zM476.891 529.92c0 11.703 8.777 20.48 20.48 20.48 0 0 0 0 0 0h32.183c11.703 0 20.48-8.777 20.48-20.48 0 0 0 0 0 0v-415.451c0-11.703-8.777-20.48-20.48-20.48 0 0 0 0 0 0h-32.183c-11.703 0-20.48 8.777-20.48 20.48 0 0 0 0 0 0v415.451zM333.531 529.92c0 11.703 8.777 20.48 20.48 20.48 0 0 0 0 0 0h32.183c11.703 0 20.48-8.777 20.48-20.48 0 0 0 0 0 0v-415.451c0-11.703-8.777-20.48-20.48-20.48 0 0 0 0 0 0h-32.183c-11.703 0-20.48 8.777-20.48 20.48 0 0 0 0 0 0v415.451zM848.457 907.337h-213.577v40.96c0 5.851-5.851 11.703-11.703 11.703h-225.28c-5.851 0-11.703-5.851-11.703-11.703v-40.96h-210.651c-17.554 0-32.183-14.629-32.183-32.183 0 0 0 0 0 0v-102.4h737.28v102.4c0 17.554-14.629 32.183-32.183 32.183 0 0 0 0 0 0v0z" />
<glyph unicode="&#xe967;" glyph-name="double_arrow_bottom2" d="M67.291 936.594c26.331 29.257 73.143 29.257 102.4 2.926l2.926-2.926 392.046-403.749c29.257-29.257 29.257-78.994 0-108.251-26.331-29.257-73.143-29.257-102.4-2.926l-2.926 2.926-392.046 403.749c-29.257 29.257-29.257 78.994 0 108.251zM459.337 532.846l392.046 403.749c26.331 29.257 73.143 29.257 102.4 2.926l2.926-2.926c29.257-29.257 29.257-78.994 0-108.251l-392.046-403.749c-26.331-29.257-73.143-29.257-102.4-2.926l-2.926 2.926c-29.257 29.257-29.257 78.994 0 108.251v0zM67.291 471.406c26.331 29.257 73.143 29.257 102.4 2.926l2.926-2.926 392.046-403.749c29.257-29.257 29.257-78.994 0-108.251-26.331-29.257-73.143-29.257-102.4-2.926l-2.926 2.926-392.046 403.749c-29.257 29.257-29.257 78.994 0 108.251zM459.337 67.657l392.046 403.749c26.331 29.257 73.143 29.257 102.4 2.926l2.926-2.926c29.257-29.257 29.257-78.994 0-108.251l-392.046-403.749c-26.331-29.257-73.143-29.257-102.4-2.926l-2.926 2.926c-29.257 29.257-29.257 78.994 0 108.251v0z" />
<glyph unicode="&#xe968;" glyph-name="double_arrow_top" d="M67.291 67.657l394.971 406.674c29.257 26.331 76.069 26.331 102.4-2.926 29.257-29.257 29.257-78.994 0-108.251l-394.971-406.674c-29.257-26.331-76.069-26.331-102.4 2.926-29.257 29.257-29.257 78.994 0 108.251zM459.337 363.154c-29.257 29.257-29.257 78.994 0 108.251l2.926 2.926c29.257 26.331 76.069 26.331 102.4-2.926l392.046-403.749c29.257-29.257 29.257-78.994 0-108.251l-2.926-2.926c-29.257-26.331-76.069-26.331-102.4 2.926l-392.046 403.749zM67.291 532.846l394.971 406.674c29.257 26.331 76.069 26.331 102.4-2.926 29.257-29.257 29.257-78.994 0-108.251l-394.971-406.674c-29.257-26.331-76.069-26.331-102.4 2.926-29.257 29.257-29.257 78.994 0 108.251zM459.337 828.343c-29.257 29.257-29.257 78.994 0 108.251l2.926 2.926c29.257 26.331 76.069 26.331 102.4-2.926l392.046-403.749c29.257-29.257 29.257-78.994 0-108.251l-2.926-2.926c-29.257-26.331-76.069-26.331-102.4 2.926l-392.046 403.749z" />
<glyph unicode="&#xe969;" glyph-name="download" d="M877.714 105.691h-731.429c-46.811 0-84.846-40.96-81.92-87.771 2.926-43.886 38.034-81.92 81.92-81.92h731.429c46.811 0 84.846 40.96 81.92 87.771-2.926 43.886-38.034 81.92-81.92 81.92zM450.56 199.314c14.629-14.629 32.183-23.406 52.663-23.406 2.926 0 5.851 0 5.851 0 2.926 0 5.851 0 5.851 0 20.48 0 38.034 8.777 52.663 23.406l260.389 269.166c32.183 35.109 32.183 87.771 0 122.88-32.183 32.183-81.92 35.109-117.029 2.926l-2.926-2.926-119.954-125.806v406.674c2.926 46.811-32.183 84.846-76.069 87.771-46.811 2.926-84.846-32.183-87.771-76.069 0-2.926 0-8.777 0-11.703v-403.749l-119.954 125.806c-32.183 32.183-81.92 35.109-117.029 2.926l-2.926-2.926c-32.183-35.109-32.183-87.771 0-122.88l266.24-272.091z" />
<glyph unicode="&#xe96a;" glyph-name="edit" d="M5.851 29.623c-14.629-35.109 2.926-73.143 35.109-87.771 17.554-5.851 35.109-5.851 52.663 0l248.686 102.4-231.131 231.131-105.326-245.76zM1003.52 772.754l-166.766 166.766c-26.331 26.331-70.217 26.331-96.549 0v0l-570.514-570.514 263.314-263.314 570.514 570.514c26.331 26.331 26.331 70.217 0 96.549v0z" />
<glyph unicode="&#xe96c;" glyph-name="email" d="M512 404.114c-81.92 0-512 348.16-512 348.16v38.034c0 46.811 38.034 84.846 84.846 84.846h854.309c46.811 0 84.846-38.034 84.846-84.846v-43.886c0 0-424.229-342.309-512-342.309zM512 287.086c90.697 0 512 330.606 512 330.606v-512c0-46.811-38.034-84.846-84.846-84.846v0h-854.309c-46.811 0-84.846 38.034-84.846 84.846v512c0 0 430.080-330.606 512-330.606z" />
<glyph unicode="&#xe96d;" glyph-name="export" d="M974.263 363.154h-84.846c-23.406 0-40.96-14.629-43.886-38.034 0-2.926 0-2.926 0-5.851v-193.097c0-11.703-8.777-20.48-17.554-20.48h-637.806c-11.703 0-20.48 8.777-20.48 17.554v643.657c0 11.703 8.777 20.48 17.554 20.48h193.097c23.406 0 40.96 14.629 43.886 38.034 0 2.926 0 2.926 0 5.851v84.846c2.926 23.406-14.629 43.886-38.034 43.886-2.926 0-2.926 0-5.851 0h-336.457c-23.406 0-43.886-14.629-43.886-38.034 0-2.926 0-2.926 0-5.851v-936.229c0-23.406 14.629-43.886 38.034-43.886 2.926 0 2.926 0 5.851 0h930.377c23.406 0 40.96 14.629 43.886 38.034 0 2.926 0 2.926 0 5.851v339.383c0 23.406-14.629 40.96-38.034 43.886-2.926 0-2.926 0-5.851 0zM974.263 960h-339.383c-23.406 0-40.96-14.629-43.886-38.034 0-2.926 0-2.926 0-5.851v-84.846c0-23.406 14.629-40.96 38.034-43.886 2.926 0 2.926 0 5.851 0h43.886c11.703 0 23.406-11.703 23.406-26.331 0-5.851-2.926-8.777-5.851-14.629l-339.383-336.457c-17.554-14.629-17.554-40.96 0-58.514v0l58.514-58.514c14.629-17.554 40.96-17.554 58.514-2.926 0 0 0 0 2.926 2.926l339.383 342.309c8.777 8.777 23.406 8.777 32.183-2.926 2.926-2.926 5.851-8.777 5.851-14.629v-43.886c0-23.406 14.629-40.96 38.034-43.886 2.926 0 2.926 0 5.851 0h84.846c23.406 0 40.96 14.629 43.886 38.034 0 2.926 0 2.926 0 5.851v339.383c-5.851 26.331-26.331 46.811-52.663 46.811z" />
<glyph unicode="&#xe96e;" glyph-name="file" d="M512-64h327.68c35.109 0 61.44 29.257 61.44 64.366 0 0 0 0 0 0v895.269c0 35.109-26.331 64.366-61.44 64.366 0 0 0 0 0 0h-438.857v-20.48c0-2.926 0-5.851 0-5.851v-172.617c0-49.737-38.034-87.771-84.846-90.697h-166.766c-2.926-2.926-2.926-2.926-5.851-2.926h-20.48v-667.063c0-35.109 26.331-64.366 61.44-64.366 0 0 0 0 0 0h327.68zM523.703 152.503h-213.577c-17.554 0-29.257 14.629-29.257 32.183 0 14.629 11.703 29.257 29.257 29.257h213.577c17.554 0 29.257-14.629 29.257-32.183 0-14.629-11.703-29.257-29.257-29.257zM737.28 307.566h-427.154c-17.554 0-29.257 14.629-29.257 32.183 0 14.629 11.703 29.257 29.257 29.257h427.154c17.554 0 29.257-14.629 29.257-32.183s-11.703-29.257-29.257-29.257zM310.126 529.92h427.154c17.554 0 29.257-14.629 29.257-32.183 0-14.629-11.703-29.257-29.257-29.257h-427.154c-17.554 0-29.257 14.629-29.257 29.257 0 20.48 11.703 32.183 29.257 32.183v0zM149.211 702.537h166.766c29.257 0 52.663 23.406 49.737 52.663v175.543c0 14.629-11.703 26.331-26.331 26.331 0 0 0 0 0 0-5.851 0-14.629-2.926-17.554-8.777l-190.171-198.949c-11.703-11.703-11.703-26.331 0-38.034 2.926-5.851 11.703-5.851 17.554-8.777z" />
<glyph unicode="&#xe96f;" glyph-name="head_office" d="M646.583 960c-2.926 0-5.851 0-8.777-2.926l-579.291-272.091c-8.777-2.926-11.703-11.703-11.703-20.48v-705.097c0-11.703 8.777-20.48 20.48-20.48h886.491c11.703 0 20.48 8.777 20.48 20.48v775.314c0 11.703-8.777 20.48-20.48 20.48v0h-289.646v184.32c2.926 11.703-5.851 20.48-17.554 20.48zM623.177 901.486v-921.6h-175.543v114.103c0 11.703-8.777 20.48-20.48 20.48h-134.583c-11.703 0-20.48-8.777-20.48-20.48v-114.103h-181.394v669.989l532.48 251.611zM667.063 708.389h266.24v-728.503h-266.24v728.503zM731.429 664.503c-11.703 0-20.48-11.703-20.48-20.48v-137.509c0-11.703 8.777-20.48 20.48-20.48h134.583c11.703 0 20.48 8.777 20.48 20.48v137.509c0 11.703-8.777 20.48-20.48 20.48h-134.583zM157.989 617.691c-11.703 0-20.48-8.777-20.48-20.48v-157.989c0-11.703 8.777-20.48 20.48-20.48h155.063c11.703 0 20.48 8.777 20.48 20.48v157.989c0 11.703-8.777 20.48-20.48 20.48h-155.063zM400.823 617.691c-11.703 0-20.48-8.777-20.48-20.48v-157.989c0-11.703 8.777-20.48 20.48-20.48h155.063c11.703 0 20.48 8.777 20.48 20.48v157.989c0 11.703-8.777 20.48-20.48 20.48h-155.063zM757.76 617.691h90.697v-90.697h-90.697v90.697zM181.394 570.88h111.177v-114.103h-111.177v114.103zM421.303 570.88h111.177v-114.103h-111.177v114.103zM731.429 436.297c-11.703 0-20.48-11.703-20.48-20.48v-137.509c0-11.703 8.777-20.48 20.48-20.48h134.583c11.703 0 20.48 8.777 20.48 20.48v137.509c0 11.703-8.777 20.48-20.48 20.48h-134.583zM757.76 392.411h90.697v-90.697h-90.697v90.697zM157.989 366.080c-11.703 0-20.48-8.777-20.48-20.48v-157.989c0-11.703 8.777-20.48 20.48-20.48h155.063c11.703 0 20.48 8.777 20.48 20.48v157.989c0 11.703-8.777 20.48-20.48 20.48h-155.063zM400.823 366.080c-11.703 0-20.48-8.777-20.48-20.48v-157.989c0-11.703 8.777-20.48 20.48-20.48h155.063c11.703 0 20.48 8.777 20.48 20.48v157.989c0 11.703-8.777 20.48-20.48 20.48h-155.063zM181.394 325.12h111.177v-114.103h-111.177v114.103zM421.303 325.12h111.177v-114.103h-111.177v114.103zM731.429 208.091c-11.703 0-20.48-11.703-20.48-20.48v-137.509c0-11.703 8.777-20.48 20.48-20.48h134.583c11.703 0 20.48 8.777 20.48 20.48v137.509c0 11.703-8.777 20.48-20.48 20.48h-134.583zM757.76 161.28h90.697v-90.697h-90.697v90.697zM313.051 73.509h90.697v-90.697h-90.697v90.697z" />
<glyph unicode="&#xe970;" glyph-name="menu" d="M0 790.309h1024v-137.509h-1024v137.509zM0 515.291h1024v-137.509h-1024v137.509zM0 243.2h1024v-137.509h-1024v137.509z" />
<glyph unicode="&#xe971;" glyph-name="minus" d="M102.4 550.4h819.2c55.589 2.926 102.4-43.886 102.4-99.474 2.926-55.589-43.886-102.4-99.474-102.4-2.926 0-2.926 0-5.851 0h-816.274c-55.589-2.926-99.474 40.96-102.4 96.549 0 55.589 43.886 102.4 99.474 105.326h2.926z" />
<glyph unicode="&#xe972;" glyph-name="not_found" d="M860.16-11.337h-696.32c-70.217 0-122.88 23.406-149.211 70.217-26.331 43.886-20.48 102.4 14.629 163.84l348.16 593.92c35.109 61.44 81.92 93.623 134.583 93.623s99.474-32.183 134.583-93.623l348.16-596.846c35.109-61.44 40.96-117.029 14.629-163.84-29.257-40.96-78.994-67.291-149.211-67.291zM512 875.154c-38.034 0-76.069-26.331-102.4-76.069l-345.234-599.771c-29.257-49.737-32.183-93.623-14.629-125.806 20.48-32.183 61.44-49.737 117.029-49.737h690.469c55.589 0 99.474 17.554 117.029 49.737 20.48 32.183 14.629 78.994-14.629 125.806l-345.234 599.771c-26.331 46.811-64.366 76.069-102.4 76.069v0zM582.217 196.389c0 35.109-29.257 64.366-64.366 64.366s-64.366-29.257-64.366-64.366c0-35.109 29.257-64.366 64.366-64.366v0c35.109 0 64.366 29.257 64.366 64.366v0zM585.143 588.434c0 38.034-29.257 67.291-67.291 67.291s-67.291-29.257-67.291-67.291l14.629-236.983c2.926-29.257 26.331-49.737 55.589-46.811 23.406 2.926 40.96 17.554 46.811 40.96 0 2.926 0 2.926 0 5.851v0l17.554 236.983z" />
<glyph unicode="&#xe973;" glyph-name="owner" d="M626.103 448c26.331 26.331 46.811 58.514 61.44 90.697 2.926 14.629 5.851 26.331 8.777 40.96 11.703 5.851 23.406 17.554 29.257 29.257 5.851 20.48 11.703 40.96 11.703 61.44 2.926 17.554 0 35.109-8.777 52.663 14.629 128.731-29.257 155.063-58.514 160.914-11.703 0-23.406 5.851-32.183 11.703-8.777 20.48-29.257 32.183-52.663 35.109-11.703 0-23.406 2.926-32.183 8.777-11.703 8.777-23.406 14.629-38.034 17.554-14.629-2.926-26.331-8.777-35.109-17.554-8.777-5.851-20.48-8.777-32.183-8.777-23.406 0-40.96-14.629-52.663-35.109-8.777-5.851-20.48-11.703-32.183-11.703-29.257-5.851-73.143-29.257-58.514-160.914-14.629-14.629-20.48-32.183-17.554-49.737 2.926-20.48 5.851-40.96 11.703-61.44 5.851-14.629 17.554-23.406 29.257-29.257 2.926-14.629 5.851-26.331 8.777-40.96 11.703-35.109 35.109-67.291 61.44-93.623v0c-5.851-181.394-409.6-81.92-321.829-406.674 26.331-90.697 380.343-108.251 435.931-105.326 55.589-2.926 406.674 14.629 435.931 105.326 84.846 324.754-318.903 228.206-321.829 406.674z" />
<glyph unicode="&#xe974;" glyph-name="password" d="M874.789-64h-725.577c-32.183 0-61.44 26.331-61.44 61.44v479.817c0 32.183 26.331 61.44 61.44 61.44h61.44v119.954c0 166.766 134.583 301.349 301.349 301.349s301.349-134.583 301.349-301.349v-119.954h61.44c32.183 0 61.44-26.331 61.44-61.44v-482.743c-2.926-32.183-29.257-58.514-61.44-58.514zM693.394 658.651c0 99.474-81.92 181.394-181.394 181.394s-181.394-81.92-181.394-181.394v-119.954h362.789v119.954z" />
<glyph unicode="&#xe975;" glyph-name="phone" d="M737.28 960h-450.56c-43.886-2.926-78.994-40.96-76.069-84.846v-854.309c-2.926-43.886 32.183-81.92 78.994-84.846h447.634c43.886 2.926 78.994 40.96 78.994 84.846v854.309c0 43.886-35.109 81.92-78.994 84.846zM400.823 907.337h222.354c11.703-8.777 14.629-23.406 5.851-35.109 0-2.926-2.926-2.926-5.851-5.851h-222.354c-11.703 8.777-14.629 23.406-5.851 35.109 2.926 2.926 5.851 5.851 5.851 5.851v0zM512 20.846c-29.257-2.926-55.589 20.48-58.514 49.737s20.48 55.589 49.737 58.514 55.589-20.48 58.514-49.737c0-2.926 0-2.926 0-5.851 0-29.257-20.48-52.663-49.737-52.663v0zM754.834 205.166h-485.669v611.474h488.594v-611.474h-2.926z" />
<glyph unicode="&#xe976;" glyph-name="plus" d="M912.823 553.326h-304.274v304.274c0 58.514-43.886 102.4-102.4 102.4s-102.4-43.886-102.4-102.4v-304.274h-304.274c0 0 0 0-5.851 0-58.514 0-102.4-49.737-93.623-102.4 0-58.514 49.737-102.4 102.4-102.4h304.274v-304.274c0 0 0 0 0-5.851 0-58.514 49.737-102.4 102.4-102.4 58.514 0 102.4 49.737 102.4 102.4v304.274h304.274c0 0 0 0 5.851 0 58.514 0 102.4 49.737 102.4 102.4-8.777 64.366-52.663 108.251-111.177 108.251z" />
<glyph unicode="&#xe977;" glyph-name="position" d="M743.131 576.731c-52.663-128.731-196.023-190.171-324.754-137.509-61.44 26.331-114.103 76.069-137.509 137.509-102.4-49.737-169.691-155.063-169.691-272.091v-266.24c0-55.589 46.811-102.4 102.4-102.4v0h596.846c55.589 0 102.4 46.811 99.474 102.4v0 266.24c2.926 117.029-61.44 222.354-166.766 272.091zM687.543 322.194l-184.32-245.76c-5.851-8.777-17.554-14.629-29.257-14.629-2.926 0-2.926 0-5.851 0-8.777 0-17.554 2.926-26.331 8.777l-111.177 93.623c-17.554 14.629-20.48 40.96-5.851 58.514s38.034 20.48 55.589 5.851v0l78.994-67.291 160.914 213.577c14.629 17.554 38.034 20.48 55.589 8.777v0c20.48-14.629 23.406-40.96 11.703-61.44zM512 488.96c117.029 0 210.651 140.434 210.651 260.389 0 117.029-93.623 210.651-210.651 210.651s-210.651-93.623-210.651-210.651v0c0-119.954 93.623-260.389 210.651-260.389v0z" />
<glyph unicode="&#xe978;" glyph-name="preview" d="M512 752.274c-196.023 0-374.491-108.251-503.223-280.869-11.703-14.629-11.703-35.109 0-49.737 131.657-175.543 307.2-280.869 503.223-280.869s374.491 108.251 503.223 280.869c11.703 14.629 11.703 35.109 0 49.737-128.731 175.543-307.2 280.869-503.223 280.869zM526.629 231.497c-128.731-8.777-236.983 99.474-228.206 228.206 5.851 108.251 93.623 193.097 201.874 201.874 128.731 8.777 236.983-99.474 228.206-228.206-8.777-105.326-96.549-193.097-201.874-201.874zM520.777 330.971c-70.217-5.851-128.731 52.663-122.88 122.88 2.926 58.514 49.737 105.326 108.251 108.251 70.217 5.851 128.731-52.663 122.88-122.88-5.851-55.589-52.663-102.4-108.251-108.251z" />
<glyph unicode="&#xe979;" glyph-name="print" d="M898.194 761.051h-70.217v64.366c2.926 32.183-23.406 61.44-55.589 61.44-2.926 0-5.851 0-8.777 0h-506.149c-35.109 2.926-61.44-23.406-64.366-55.589 0-2.926 0-5.851 0-8.777v-61.44h-78.994c-61.44 0-114.103-49.737-114.103-114.103v-330.606c2.926-64.366 55.589-117.029 122.88-119.954h70.217v-125.806c-2.926-32.183 23.406-61.44 55.589-61.44 2.926 0 5.851 0 8.777 0h512c32.183-2.926 61.44 23.406 64.366 55.589 0 2.926 0 5.851 0 8.777v125.806h70.217c64.366 2.926 119.954 52.663 122.88 119.954v321.829c0 64.366-49.737 117.029-114.103 119.954-8.777 0-11.703 0-14.629 0zM318.903 761.051h383.269v-61.44h-383.269v61.44zM702.171 134.949h-383.269v187.246h383.269v-187.246zM892.343 322.194h-64.366v61.44c2.926 32.183-23.406 61.44-55.589 61.44-2.926 0-5.851 0-8.777 0h-506.149c-32.183 2.926-61.44-23.406-64.366-55.589 0-2.926 0-5.851 0-8.777v-61.44h-64.366v315.977h64.366c-2.926-32.183 23.406-61.44 55.589-61.44 2.926 0 5.851 0 8.777 0h512c32.183-2.926 61.44 23.406 64.366 55.589 0 2.926 0 5.851 0 8.777h64.366l-5.851-315.977z" />
<glyph unicode="&#xe97a;" glyph-name="private" d="M699.246 957.074c-178.469 0-321.829-143.36-321.829-318.903 0 0 0 0 0 0 0-38.034 5.851-76.069 17.554-114.103l-394.971-397.897v-187.246h187.246v114.103h114.103v114.103h114.103l169.691 169.691c35.109-11.703 76.069-17.554 114.103-17.554 178.469-2.926 321.829 137.509 324.754 315.977s-137.509 321.829-315.977 324.754c-2.926-2.926-5.851-2.926-8.777-2.926zM792.869 617.691c-61.44 0-111.177 46.811-114.103 108.251 0 2.926 0 2.926 0 5.851 0 61.44 49.737 114.103 114.103 114.103 61.44-2.926 114.103-52.663 114.103-114.103s-46.811-111.177-108.251-114.103c-2.926 0-5.851 0-5.851 0v0z" />
<glyph unicode="&#xe97b;" glyph-name="project" d="M614.4 96.914c0 5.851-5.851 11.703-8.777 11.703 0 0 0 0 0 0h-184.32c-5.851 0-11.703-5.851-11.703-11.703 0 0 0 0 0 0v-160.914h-371.566v43.886c0 23.406 17.554 40.96 40.96 43.886h40.96v892.343c0 23.406 17.554 43.886 40.96 43.886h702.171c23.406 0 40.96-20.48 40.96-43.886v-895.269h40.96c23.406 0 40.96-20.48 40.96-43.886v-40.96h-371.566v160.914zM356.937 278.309h-102.4c-5.851 0-11.703-5.851-11.703-11.703 0 0 0 0 0 0v-64.366c0-5.851 5.851-11.703 8.777-11.703 0 0 0 0 0 0h102.4c5.851 0 11.703 5.851 11.703 11.703 0 0 0 0 0 0v64.366c2.926 5.851-2.926 11.703-8.777 11.703 0 0 0 0 0 0zM356.937 448h-102.4c-5.851 0-11.703-5.851-11.703-11.703 0 0 0 0 0 0v-61.44c0-5.851 5.851-11.703 8.777-11.703 0 0 0 0 0 0h102.4c5.851 0 11.703 5.851 11.703 11.703 0 0 0 0 0 0v64.366c2.926 2.926-2.926 8.777-8.777 8.777 0 0 0 0 0 0zM356.937 617.691h-102.4c-5.851 0-11.703-5.851-11.703-11.703v-64.366c0-5.851 5.851-11.703 8.777-11.703 0 0 0 0 0 0h102.4c5.851 0 11.703 5.851 11.703 11.703 0 0 0 0 0 0v67.291c2.926 5.851-2.926 8.777-8.777 8.777zM356.937 790.309h-102.4c-5.851 0-11.703-5.851-11.703-11.703v-64.366c0-5.851 5.851-11.703 11.703-11.703h102.4c5.851 0 11.703 5.851 11.703 11.703v64.366c0 5.851-5.851 11.703-11.703 11.703v0zM564.663 278.309h-102.4c-5.851 0-11.703-5.851-11.703-11.703 0 0 0 0 0 0v-64.366c0-5.851 5.851-11.703 8.777-11.703 0 0 0 0 0 0h102.4c5.851 0 11.703 5.851 11.703 11.703 0 0 0 0 0 0v64.366c0 5.851-2.926 11.703-8.777 11.703 0 0 0 0 0 0v0zM564.663 448h-102.4c-5.851 0-11.703-5.851-11.703-11.703 0 0 0 0 0 0v-64.366c0-5.851 5.851-11.703 8.777-11.703 0 0 0 0 0 0h102.4c5.851 0 11.703 5.851 11.703 11.703 0 0 0 0 0 0v64.366c0 5.851-2.926 11.703-8.777 11.703 0 0 0 0 0 0v0zM564.663 617.691h-102.4c-5.851 0-11.703-5.851-11.703-11.703v-64.366c0-5.851 5.851-11.703 8.777-11.703 0 0 0 0 0 0h102.4c5.851 0 11.703 5.851 11.703 11.703 0 0 0 0 0 0v67.291c0 5.851-2.926 8.777-8.777 8.777 0 0 0 0 0 0v0zM564.663 790.309h-102.4c-5.851 0-11.703-5.851-11.703-11.703v-64.366c0-5.851 5.851-11.703 11.703-11.703h102.4c5.851 0 11.703 5.851 11.703 11.703v64.366c-2.926 5.851-5.851 11.703-11.703 11.703 0 0 0 0 0 0v0zM769.463 278.309h-102.4c-5.851 0-11.703-5.851-11.703-11.703 0 0 0 0 0 0v-64.366c0-5.851 5.851-11.703 8.777-11.703 0 0 0 0 0 0h102.4c5.851 0 11.703 5.851 11.703 11.703 0 0 0 0 0 0v64.366c2.926 5.851-2.926 11.703-8.777 11.703 0 0 0 0 0 0v0zM769.463 448h-102.4c-5.851 0-11.703-5.851-11.703-11.703 0 0 0 0 0 0v-64.366c0-5.851 5.851-11.703 8.777-11.703 0 0 0 0 0 0h102.4c5.851 0 11.703 5.851 11.703 11.703 0 0 0 0 0 0v64.366c2.926 5.851-2.926 11.703-8.777 11.703 0 0 0 0 0 0v0zM769.463 617.691h-102.4c-5.851 0-11.703-5.851-11.703-11.703v-64.366c0-5.851 5.851-11.703 8.777-11.703 0 0 0 0 0 0h102.4c5.851 0 11.703 5.851 11.703 11.703 0 0 0 0 0 0v67.291c2.926 5.851-2.926 8.777-8.777 8.777v0zM769.463 790.309h-102.4c-5.851 0-11.703-5.851-11.703-11.703v-64.366c0-5.851 5.851-11.703 11.703-11.703h102.4c5.851 0 11.703 5.851 11.703 11.703v64.366c0 5.851-5.851 11.703-11.703 11.703v0z" />
<glyph unicode="&#xe97c;" glyph-name="property" d="M190.171 904.411v-55.589h643.657v55.589c0 32.183-26.331 55.589-55.589 55.589 0 0 0 0 0 0h-532.48c-29.257 0-55.589-26.331-55.589-55.589zM892.343 731.794h-760.686c-32.183 0-55.589-26.331-55.589-55.589 0 0 0 0 0 0v-681.691c0-32.183 26.331-55.589 55.589-55.589 0 0 0 0 0 0h321.829v169.691c0 32.183 23.406 58.514 55.589 58.514s58.514-23.406 58.514-55.589c0 0 0-2.926 0-2.926v-172.617h321.829c32.183 0 55.589 26.331 55.589 55.589v0 684.617c2.926 29.257-23.406 55.589-52.663 55.589 0 0 0 0 0 0v0zM456.411 503.589h-266.24v114.103h266.24v-114.103zM833.829 503.589h-266.24v114.103h266.24v-114.103z" />
<glyph unicode="&#xe97d;" glyph-name="public" d="M269.166 53.029v26.331c0 137.509 0-2.926 0 134.583-8.777 137.509 96.549 254.537 234.057 260.389 11.703 0 26.331 0 38.034 0 117.029-17.554 204.8-114.103 210.651-231.131 2.926-155.063 0-26.331 0-181.394 0-2.926 0-5.851-2.926-8.777h-479.817zM807.497 354.377c84.846 26.331 175.543-17.554 204.8-105.326 2.926-14.629 5.851-26.331 8.777-40.96 2.926-17.554 2.926-35.109 0-55.589h-181.394v29.257c0 84.846 0-17.554 0 64.366 0 70.217 0 43.886-32.183 108.251v0zM181.394 152.503h-178.469c0 8.777-2.926 14.629-2.926 23.406 0 93.623 0 0 0 93.623 0 111.177 76.069 96.549 172.617 93.623 11.703 0 26.331-2.926 38.034-5.851 0-2.926 0-5.851 0-8.777-26.331-58.514-29.257-26.331-29.257-87.771 0-96.549 0-2.926 0-99.474 2.926-2.926 2.926-5.851 0-8.777zM512 518.217c-87.771 2.926-157.989 76.069-155.063 163.84v0c0 87.771 70.217 157.989 155.063 160.914 87.771-2.926 155.063-76.069 155.063-160.914 2.926-87.771-67.291-160.914-155.063-163.84v0zM64.366 518.217c0 58.514 49.737 105.326 108.251 105.326 61.44-2.926 105.326-55.589 102.4-117.029-5.851-55.589-52.663-102.4-108.251-102.4-58.514 2.926-105.326 55.589-102.4 114.103v0zM959.634 512.366c2.926-58.514-43.886-108.251-102.4-108.251s-108.251 43.886-108.251 102.4c0 2.926 0 5.851 0 8.777-2.926 58.514 43.886 108.251 102.4 108.251 58.514 2.926 108.251-43.886 108.251-102.4 0-2.926 0-5.851 0-8.777z" />
<glyph unicode="&#xe97e;" glyph-name="quantity" d="M1018.149 225.646l-193.097 81.92-277.943-108.251c-11.703-2.926-23.406-5.851-35.109-5.851s-23.406 2.926-35.109 5.851l-277.943 108.251-193.097-81.92c-8.777-2.926-8.777-8.777 0-11.703l491.52-190.171c11.703-2.926 20.48-2.926 32.183 0l488.594 190.171c8.777 2.926 8.777 8.777 0 11.703zM1018.149 445.074l-193.097 81.92-277.943-108.251c-11.703-2.926-23.406-5.851-35.109-5.851s-23.406 2.926-35.109 5.851l-277.943 108.251-193.097-81.92c-8.777-2.926-8.777-8.777 0-11.703l491.52-190.171c11.703-2.926 20.48-2.926 32.183 0l488.594 190.171c8.777 2.926 8.777 8.777 0 11.703zM5.851 652.8l254.537-99.474 234.057-90.697c11.703-2.926 20.48-2.926 32.183 0l234.057 90.697 254.537 99.474c8.777 2.926 8.777 8.777 0 11.703l-488.594 207.726c-11.703 2.926-20.48 2.926-32.183 0l-488.594-204.8c-8.777-5.851-8.777-11.703 0-14.629z" />
<glyph unicode="&#xe97f;" glyph-name="reports" d="M895.269 632.32c0 38.034-29.257 67.291-67.291 67.291h-87.771c-52.663 0-93.623 43.886-93.623 96.549v96.549c0 35.109-29.257 64.366-64.366 67.291h-275.017c-43.886 0-78.994-35.109-78.994-78.994v-766.537c0-43.886 35.109-78.994 78.994-78.994h509.074c43.886 0 78.994 35.109 78.994 78.994v517.851c0 0 0 0 0 0zM795.794-64h-509.074c-87.771 0-157.989 73.143-157.989 160.914v763.611h61.44v-766.537c0-55.589 43.886-99.474 96.549-99.474h509.074v-58.514zM684.617 802.011c0-38.034 29.257-67.291 67.291-67.291h76.069c14.629 0 29.257-2.926 40.96-8.777-11.703 23.406-26.331 43.886-43.886 61.44l-111.177 117.029c-11.703 11.703-26.331 23.406-40.96 32.183 5.851-14.629 11.703-29.257 11.703-43.886v-90.697z" />
<glyph unicode="&#xe980;" glyph-name="search" d="M1006.446-43.52c-26.331-26.331-64.366-26.331-90.697 0l-201.874 201.874c-198.949-146.286-473.966-108.251-623.177 90.697s-105.326 473.966 90.697 620.251 473.966 108.251 623.177-90.697c119.954-157.989 119.954-374.491 0-532.48l201.874-201.874c20.48-20.48 20.48-61.44 0-87.771zM672.914 737.646c-125.806 125.806-327.68 125.806-447.634 0s-125.806-327.68 0-450.56 327.68-125.806 447.634 0v0c122.88 122.88 119.954 324.754 0 450.56v0z" />
<glyph unicode="&#xe981;" glyph-name="send-by-email" d="M898.194 837.12h-775.314c-67.291 2.926-122.88-49.737-122.88-117.029v-544.183c0-64.366 55.589-117.029 122.88-117.029h778.24c64.366 0 119.954 52.663 122.88 117.029v544.183c-2.926 67.291-58.514 119.954-125.806 117.029zM898.194 164.206h-775.314c-8.777 0-17.554 5.851-17.554 14.629v471.040l354.011-298.423c5.851-5.851 17.554-8.777 26.331-8.777h61.44c8.777 0 17.554 2.926 26.331 8.777l354.011 298.423v-473.966c-11.703-5.851-20.48-11.703-29.257-11.703zM512 442.149l-342.309 292.571h684.617l-342.309-292.571z" />
<glyph unicode="&#xe982;" glyph-name="setting" d="M997.669 652.8c0-49.737-32.183-96.549-76.069-117.029v-547.109c0-29.257-20.48-49.737-49.737-49.737s-49.737 20.48-49.737 49.737v547.109c-64.366 29.257-93.623 102.4-64.366 169.691 11.703 29.257 35.109 52.663 64.366 64.366v137.509c0 29.257 20.48 49.737 49.737 49.737s49.737-20.48 49.737-49.737v-137.509c46.811-20.48 76.069-64.366 76.069-117.029zM561.737 126.171v-137.509c0-29.257-20.48-49.737-49.737-49.737s-49.737 20.48-49.737 49.737v137.509c-64.366 29.257-93.623 102.4-64.366 169.691 11.703 29.257 35.109 52.663 64.366 64.366v547.109c0 29.257 20.48 49.737 49.737 49.737s49.737-20.48 49.737-49.737v-547.109c64.366-29.257 93.623-102.4 64.366-169.691-11.703-26.331-32.183-52.663-64.366-64.366v0zM204.8 330.971v-345.234c0-29.257-20.48-49.737-49.737-49.737s-49.737 20.48-49.737 49.737v345.234c-64.366 29.257-93.623 102.4-64.366 169.691 11.703 29.257 35.109 52.663 64.366 64.366v345.234c0 29.257 20.48 49.737 49.737 49.737s49.737-20.48 49.737-49.737v-345.234c64.366-29.257 93.623-102.4 64.366-169.691-11.703-29.257-38.034-49.737-64.366-64.366v0z" />
<glyph unicode="&#xe983;" glyph-name="sygment_type" d="M901.12 585.509h-778.24c-17.554 0-32.183-14.629-32.183-32.183v0-585.143c0-17.554 14.629-32.183 32.183-32.183h778.24c17.554 0 32.183 14.629 32.183 32.183v585.143c0 17.554-14.629 32.183-32.183 32.183zM187.246 676.206h649.509c17.554 0 32.183 14.629 32.183 32.183s-14.629 93.623-32.183 93.623h-649.509c-17.554 0-32.183-76.069-32.183-93.623s14.629-32.183 32.183-32.183zM283.794 895.634h453.486c17.554 0 32.183 14.629 32.183 32.183s-11.703 32.183-29.257 32.183h-456.411c-17.554 0-32.183-14.629-32.183-32.183s14.629-32.183 32.183-32.183v0z" />
<glyph unicode="&#xe984;" glyph-name="tick" d="M1024 693.76l-637.806-684.617-178.469 193.097-207.726 225.28 178.469 193.097 210.651-225.28 456.411 491.52 178.469-193.097z" />
<glyph unicode="&#xe985;" glyph-name="uncheked" d="M801.646 790.309h-111.177v20.48c0 26.331-23.406 49.737-49.737 49.737h-5.851c-14.629 67.291-78.994 111.177-146.286 96.549-49.737-8.777-87.771-46.811-96.549-96.549h-5.851c-26.331 0-49.737-23.406-49.737-49.737v-20.48h-114.103c-46.811 0-81.92-38.034-81.92-84.846v-687.543c0-43.886 35.109-81.92 81.92-81.92h579.291c46.811 0 81.92 38.034 81.92 81.92v687.543c0 46.811-35.109 84.846-81.92 84.846zM389.12 804.937h242.834v-90.697h-242.834v90.697zM512 904.411c29.257 0 52.663-17.554 64.366-43.886h-128.731c11.703 26.331 35.109 43.886 64.366 43.886zM827.977 17.92c0-14.629-11.703-29.257-29.257-29.257h-576.366c-14.629 0-29.257 11.703-29.257 29.257v687.543c0 14.629 11.703 29.257 29.257 29.257h111.177v-26.331c0-26.331 23.406-49.737 49.737-49.737h254.537c26.331 0 49.737 23.406 49.737 49.737v26.331h111.177c14.629 0 29.257-11.703 29.257-29.257v-687.543zM699.246 559.177h-374.491c-14.629-2.926-26.331-14.629-23.406-32.183 0-11.703 11.703-23.406 23.406-23.406h374.491c14.629 2.926 26.331 14.629 23.406 32.183 0 11.703-8.777 23.406-23.406 23.406zM699.246 421.669h-374.491c-14.629-2.926-26.331-14.629-23.406-32.183 2.926-11.703 11.703-23.406 23.406-23.406h374.491c14.629 2.926 26.331 14.629 23.406 32.183 0 11.703-11.703 23.406-23.406 23.406zM699.246 284.16h-374.491c-14.629-2.926-26.331-14.629-23.406-32.183 0-11.703 11.703-23.406 23.406-23.406h374.491c14.629 2.926 26.331 14.629 23.406 32.183 0 11.703-8.777 23.406-23.406 23.406z" />
<glyph unicode="&#xe986;" glyph-name="user_group" d="M573.44 415.817c14.629 14.629 26.331 35.109 32.183 52.663 2.926 8.777 2.926 17.554 5.851 23.406 8.777 2.926 14.629 8.777 17.554 17.554 2.926 11.703 5.851 23.406 5.851 35.109 2.926 11.703 0 20.48-5.851 29.257 8.777 76.069-17.554 90.697-32.183 93.623-5.851 0-11.703 2.926-17.554 8.777-5.851 11.703-17.554 20.48-29.257 20.48-5.851 0-11.703 2.926-17.554 5.851-5.851 5.851-11.703 8.777-20.48 11.703-8.777 0-14.629-5.851-20.48-11.703-5.851-2.926-11.703-5.851-17.554-5.851-11.703 0-23.406-8.777-29.257-20.48-5.851-2.926-11.703-5.851-17.554-8.777-17.554-2.926-40.96-17.554-32.183-93.623-5.851-8.777-5.851-20.48-5.851-29.257 0-11.703 2.926-23.406 5.851-35.109 2.926-8.777 8.777-14.629 17.554-17.554 0-8.777 2.926-17.554 5.851-23.406 5.851-20.48 17.554-38.034 35.109-55.589v0c-2.926-105.326-225.28-46.811-178.469-236.983 14.629-52.663 210.651-64.366 239.909-61.44 29.257-2.926 225.28 8.777 239.909 61.44 46.811 190.171-178.469 131.657-181.394 239.909zM845.531 491.886c14.629 14.629 26.331 32.183 32.183 52.663 2.926 8.777 2.926 14.629 5.851 23.406 5.851 2.926 11.703 8.777 14.629 17.554 2.926 11.703 5.851 23.406 5.851 35.109 2.926 8.777 0 20.48-5.851 29.257 8.777 73.143-17.554 87.771-32.183 90.697-5.851 0-11.703 2.926-17.554 5.851-5.851 11.703-14.629 17.554-29.257 20.48-5.851 0-11.703 0-17.554 5.851s-11.703 8.777-20.48 11.703c-5.851 0-14.629-5.851-17.554-8.777-5.851-2.926-11.703-5.851-17.554-5.851-11.703 0-23.406-8.777-29.257-20.48-5.851-2.926-11.703-5.851-17.554-5.851-14.629-2.926-38.034-17.554-32.183-90.697-5.851-8.777-5.851-20.48-5.851-29.257 0-11.703 2.926-23.406 5.851-35.109 2.926-8.777 8.777-14.629 14.629-17.554 0-8.777 2.926-14.629 5.851-23.406 5.851-20.48 17.554-38.034 32.183-52.663v0c0-55.589-64.366-64.366-114.103-90.697 14.629-17.554 35.109-29.257 58.514-35.109 55.589-23.406 134.583-55.589 122.88-166.766 40.96 0 213.577 8.777 228.206 58.514 49.737 184.32-166.766 128.731-169.691 231.131zM356.937 369.006c23.406 5.851 43.886 17.554 58.514 35.109-49.737 26.331-114.103 35.109-114.103 90.697v0c14.629 14.629 26.331 32.183 32.183 52.663 2.926 8.777 2.926 14.629 5.851 23.406 5.851 2.926 11.703 8.777 14.629 17.554 2.926 11.703 5.851 23.406 5.851 35.109 2.926 8.777 0 20.48-5.851 29.257 8.777 73.143-17.554 87.771-32.183 90.697-5.851 0-11.703 2.926-17.554 5.851-5.851 11.703-14.629 17.554-29.257 20.48-5.851-2.926-11.703 0-17.554 2.926-5.851 5.851-11.703 8.777-17.554 8.777-8.777 0-14.629-2.926-20.48-8.777-5.851-2.926-11.703-5.851-17.554-5.851-11.703 0-23.406-8.777-29.257-20.48-2.926-2.926-8.777-5.851-17.554-5.851-14.629-2.926-38.034-17.554-29.257-90.697-5.851-8.777-5.851-20.48-5.851-29.257 0-11.703 2.926-23.406 5.851-35.109 2.926-8.777 8.777-14.629 14.629-17.554 0-8.777 2.926-14.629 5.851-23.406 5.851-20.48 17.554-38.034 32.183-52.663-2.926-102.4-216.503-46.811-172.617-234.057 14.629-49.737 187.246-61.44 228.206-58.514-11.703 114.103 67.291 146.286 122.88 169.691z" />
<glyph unicode="&#xe987;" glyph-name="user_status" d="M734.354 597.211c-52.663-122.88-196.023-178.469-318.903-125.806-55.589 23.406-102.4 70.217-125.806 125.806-99.474-46.811-160.914-143.36-160.914-251.611v-313.051c0-52.663 43.886-96.549 96.549-96.549v0h573.44c52.663 0 96.549 43.886 96.549 96.549 0 0 0 0 0 0v310.126c0 111.177-64.366 207.726-160.914 254.537zM512 515.291c111.177 0 201.874 131.657 201.874 242.834s-90.697 201.874-201.874 201.874-201.874-90.697-201.874-201.874c0-111.177 90.697-242.834 201.874-242.834zM541.257 357.303c23.406 0 40.96-17.554 43.886-40.96 0-23.406-17.554-40.96-40.96-43.886 0 0-2.926 0-2.926 0-23.406 0-40.96 20.48-40.96 43.886s17.554 40.96 40.96 40.96v0zM599.771 67.657c-5.851-2.926-8.777-2.926-14.629-2.926-38.034 0-46.811 0-84.846 0-17.554 0-29.257 11.703-32.183 26.331 0 17.554 11.703 29.257 26.331 32.183 0 0 2.926 0 2.926 0 8.777 0 2.926 0 14.629 0v23.406c0 11.703 0 20.48 0 32.183 0 2.926-2.926 5.851-5.851 5.851-14.629 2.926-26.331 14.629-26.331 32.183 2.926 17.554 14.629 29.257 32.183 26.331 8.777 0 17.554 0 26.331 0 17.554 0 29.257-11.703 32.183-29.257 0 0 0-2.926 0-2.926 0-29.257 0-58.514 0-87.771 11.703 0 5.851 0 14.629 0 14.629 0 26.331-8.777 29.257-23.406 5.851-14.629-2.926-26.331-14.629-32.183v0z" />
<glyph unicode="&#xe988;" glyph-name="username" d="M705.097 778.606c-2.926-102.4-90.697-184.32-193.097-181.394-102.4-2.926-190.171 76.069-193.097 181.394 2.926 102.4 90.697 184.32 193.097 181.394 105.326 2.926 190.171-78.994 193.097-181.394zM664.137 582.583c-90.697-64.366-210.651-64.366-304.274 0-172.617-38.034-298.423-137.509-298.423-254.537v-257.463c0-17.554 14.629-32.183 32.183-32.183h64.366c17.554 0 32.183 11.703 32.183 29.257v201.874c0 17.554 8.777 8.777 20.48 8.777s20.48-8.777 20.48-20.48v-175.543c0-29.257 8.777-58.514 20.48-87.771 0 0 67.291-58.514 257.463-58.514s257.463 58.514 257.463 58.514c11.703 26.331 20.48 55.589 20.48 87.771v-64.366 242.834c0 11.703 11.703 20.48 23.406 20.48s20.48-8.777 20.48-20.48c0 0 0-184.32 0-193.097 0-17.554 14.629-29.257 32.183-29.257h64.366c17.554 0 32.183 14.629 32.183 32.183v257.463c0 119.954-122.88 216.503-295.497 254.537z" />
</font>
</defs>
</svg>
