<?xml version="1.0" standalone="no"?>
<!DOCTYPE svg PUBLIC "-//W3C//DTD SVG 1.1//EN" "http://www.w3.org/Graphics/SVG/1.1/DTD/svg11.dtd" >
<svg xmlns="http://www.w3.org/2000/svg">
<metadata>Generated by IcoMoon</metadata>
<defs>
<font id="q4u" horiz-adv-x="1024">
<font-face units-per-em="1024" ascent="960" descent="-64" />
<missing-glyph horiz-adv-x="1024" />
<glyph unicode="&#x20;" horiz-adv-x="512" d="" />
<glyph unicode="&#xe900;" glyph-name="address" d="M512 407.347c-0.769-0.013-1.675-0.021-2.584-0.021-86.892 0-157.512 69.666-159.053 156.19 1.484 86.857 72.127 156.581 159.054 156.581 0.908 0 1.814-0.008 2.718-0.023 0.632 0.015 1.538 0.023 2.447 0.023 86.91 0 157.541-69.695 159.054-156.244-1.512-86.833-72.144-156.528-159.054-156.528-0.908 0-1.815 0.008-2.719 0.023zM512 908.442c-1.706 0.030-3.718 0.047-5.733 0.047-192.343 0-348.659-154.249-351.997-345.795-0.004-180.793 162.044-413.701 270.229-527.007 40.397-42.342 87.501-99.379 87.501-99.379s50.586 57.344 93.952 100.915c108.083 108.595 263.782 326.707 263.782 525.107-3.314 191.881-159.641 346.159-352.002 346.159-2.016 0-4.027-0.017-6.035-0.051z" />
<glyph unicode="&#xe901;" glyph-name="archive" horiz-adv-x="1247" d="M1104.139 645.142v157.607h-552.070l-78.803 157.696h-315.125l-78.803-157.696h-78.893v-748.945l236.499 591.338h867.194zM292.152 566.25l-252.349-630.695h1009.219l197.142 630.695h-953.923z" />
<glyph unicode="&#xe902;" glyph-name="arrow_bottom" horiz-adv-x="1877" d="M1740.8 891.733c-51.2 68.267-136.533 68.267-187.733 0l-614.4-597.333-631.467 597.333c-51.2 68.267-136.533 68.267-187.733 0v0c-51.2-51.2-51.2-136.533 0-187.733l716.8-699.733c51.2-51.2 136.533-51.2 187.733 0l716.8 699.733c68.267 68.267 68.267 136.533 0 187.733z" />
<glyph unicode="&#xe903;" glyph-name="arrow_left" horiz-adv-x="559" d="M502.691 19.782c37.236 27.927 37.236 74.473 0 102.4l-325.818 335.127 325.818 344.436c37.236 27.927 37.236 74.473 0 102.4v0c-27.927 27.927-74.473 27.927-102.4 0l-381.673-390.982c-27.927-27.927-27.927-74.473 0-102.4l381.673-390.982c37.236-37.236 74.473-37.236 102.4 0z" />
<glyph unicode="&#xe904;" glyph-name="arrow_right" horiz-adv-x="559" d="M37.236 894.836c-37.236-27.927-37.236-74.473 0-102.4l325.818-335.127-325.818-344.436c-37.236-27.927-37.236-74.473 0-102.4v0c27.927-27.927 74.473-27.927 102.4 0l381.673 390.982c27.927 27.927 27.927 74.473 0 102.4l-381.673 390.982c-37.236 37.236-74.473 37.236-102.4 0z" />
<glyph unicode="&#xe905;" glyph-name="arrow_top" horiz-adv-x="1877" d="M1740.8 209.067v0l-716.8 699.733c-51.2 51.2-136.533 51.2-187.733 0l-716.8-699.733c-51.2-51.2-51.2-136.533 0-187.733v0c51.2-68.267 136.533-68.267 187.733 0l631.467 597.333 614.4-597.333c51.2-68.267 136.533-68.267 187.733 0 68.267 51.2 68.267 119.467 0 187.733z" />
<glyph unicode="&#xe906;" glyph-name="checked" d="M768 508.8v272l-179.2 179.2h-588.8v-1024h768v3.2c144 16 256 137.6 256 284.8s-112 268.8-256 284.8zM576 883.2l115.2-115.2h-115.2v115.2zM64 0v896h448v-192h192v-195.2c-57.6-6.4-108.8-28.8-150.4-60.8h-425.6v-64h368c-12.8-19.2-22.4-41.6-32-64h-336v-64h323.2c0-9.6-3.2-22.4-3.2-32 0-89.6 41.6-172.8 105.6-224h-489.6zM736 3.2c-121.6 0-220.8 99.2-220.8 220.8s99.2 220.8 220.8 220.8c121.6 0 220.8-99.2 220.8-220.8s-99.2-220.8-220.8-220.8zM128 576h512v-64h-512v64zM832 352l-128-128-64 64-64-64 128-128 192 192z" />
<glyph unicode="&#xe907;" glyph-name="close" d="M960 844.8l-51.2 51.2-403.2-403.2-390.4 390.4-51.2-51.2 390.4-390.4-364.8-364.8 57.6-51.2 358.4 364.8 390.4-390.4 51.2 51.2-390.4 390.4z" />
<glyph unicode="&#xe908;" glyph-name="company" d="M432.998 704h-69.478c0.692 56.703 46.82 102.403 103.622 102.403 0.255 0 0.509-0.001 0.763-0.003h139.43c0.215 0.002 0.469 0.003 0.724 0.003 56.801 0 102.929-45.7 103.621-102.337l-69.478-0.065c-0.231 18.911-15.614 34.152-34.558 34.152-0.109 0-0.218-0.001-0.326-0.002h-139.452c-0.092 0.001-0.201 0.001-0.31 0.001-18.943 0-34.327-15.241-34.557-34.13zM607.078 311.45c-0.115-9.441-7.796-17.050-17.253-17.050-0.054 0-0.109 0-0.163 0.001h-104.337c-0.046 0-0.1-0.001-0.155-0.001-9.458 0-17.138 7.609-17.253 17.039v38.411l-313.754 76.8v-268.8c0.547-37.81 31.327-68.251 69.216-68.251 0.164 0 0.329 0.001 0.493 0.002h627.482c0.154-0.001 0.336-0.002 0.519-0.002 37.889 0 68.668 30.441 69.215 68.2l0.001 268.851-313.754-76.8v-38.349zM851.098 669.85h-627.251c-0.154 0.001-0.336 0.002-0.519 0.002-37.889 0-68.668-30.441-69.215-68.2l-0.001-115.251 313.754-76.8v4.25c0.115 9.441 7.796 17.050 17.253 17.050 0.054 0 0.109 0 0.163-0.001h104.593c0.046 0 0.1 0.001 0.155 0.001 9.458 0 17.138-7.609 17.253-17.039v-4.26l313.754 76.8v115.2c-0.519 37.833-31.309 68.302-69.216 68.302-0.164 0-0.328-0.001-0.492-0.002z" />
<glyph unicode="&#xe909;" glyph-name="company_id" d="M904.909 800.666h-773.632c-0.137 0.001-0.3 0.002-0.463 0.002-38.277 0-69.341-30.885-69.63-69.094v-578.997c0.289-38.237 31.353-69.122 69.63-69.122 0.163 0 0.325 0.001 0.488 0.002h773.607c0.137-0.001 0.3-0.002 0.463-0.002 38.277 0 69.341 30.885 69.63 69.094v578.946c-0.26 38.259-31.335 69.173-69.63 69.173-0.163 0-0.325-0.001-0.487-0.002zM517.478 642.56h227.021c14.322 0 25.933-11.611 25.933-25.933s-11.611-25.933-25.933-25.933h-227.021c-14.322 0-25.933 11.611-25.933 25.933s11.611 25.933 25.933 25.933zM423.27 247.347h-248.218v389.12h248.218v-389.12zM865.28 244.378h-348.16c-14.322 0-25.933 11.611-25.933 25.933s11.611 25.933 25.933 25.933h348.16c14.322 0 25.933-11.611 25.933-25.933s-11.611-25.933-25.933-25.933zM865.28 337.254h-348.16c-14.322 0-25.933 11.611-25.933 25.933s11.611 25.933 25.933 25.933h348.16c14.322 0 25.933-11.611 25.933-25.933s-11.611-25.933-25.933-25.933zM865.28 430.131h-348.16c-14.322 0-25.933 11.611-25.933 25.933s11.611 25.933 25.933 25.933h348.16c14.308 0 25.907-11.599 25.907-25.907s-11.599-25.907-25.907-25.907z" />
<glyph unicode="&#xe90a;" glyph-name="company_status" d="M579.482 883.2h-447.232v-46.080h9.472c0-8.090 0-16.333 0.717-24.422v-30.72c0-26.061-28.723-31.693-40.96-50.33-3.722-10.844-5.872-23.338-5.872-36.334 0-6.916 0.609-13.691 1.775-20.272l-0.102-133.346q0-149.197 0-298.547v-160.41h-20.48v-69.939h496.128v37.786c-33.134 16.521-61.295 37.959-84.79 63.724l-132.708 0.225v191.386h60.058c0.273 29.232 5.199 57.223 14.071 83.392l-11.818-1.882v106.65h67.686v-8.243c24.106 27.183 52.98 49.514 85.406 65.816l1.634 285.314h7.117v46.234zM204.8 806.093h67.584v-0.973h0.154v-106.752h-67.738v107.725zM204.8 649.779h67.738v-4.352c0-2.048 0.307-4.096 0.307-6.195 0-28.826 0-57.754 0-86.733 0.014-0.281 0.022-0.609 0.022-0.94 0-1.48-0.157-2.924-0.455-4.315l0.024-4.32h-3.072c-1.655-0.63-3.568-0.994-5.566-0.994-0.293 0-0.585 0.008-0.874 0.023-19.211 0.561-38.462 0.254-58.123 0.254v107.52zM272.538 494.080v-106.752h-67.738v106.752h67.584zM332.8 114.381h-133.12v191.693h133.12v-191.693zM378.88 387.43h-67.584v106.65h67.584v-106.752zM378.88 542.874h-0.307v-0.666c-21.299 0-42.189 0-63.232 0.256-0.478 0.029-0.916 0.178-1.291 0.416l-2.805-0.007v2.765c-0.463 0.52-0.764 1.193-0.819 1.935-0.257 33.547-0.257 67.492-0.257 101.95h68.71v-106.598zM378.88 698.368h-67.584v108.032h66.867v-1.28h0.717v-106.752zM485.581 542.771h-67.738v106.906h67.738v-107.008zM485.581 699.034v0-0.666h-67.84v106.752h0.256v0.666h67.584v-106.906zM700.621 544.512c-132.786-1.848-239.718-109.923-239.718-242.973 0-134.203 108.793-242.995 242.995-242.995 134.159 0 242.924 108.722 242.995 242.864-1.504 134.586-110.952 243.104-245.746 243.104-0.131 0-0.262 0-0.394 0zM699.494 472.832c0.106 0.001 0.232 0.001 0.358 0.001 26.581 0 48.129-21.548 48.129-48.129 0-26.455-21.344-47.925-47.752-48.128-0.111-0.001-0.219-0.001-0.327-0.001-26.609 0-48.18 21.571-48.18 48.18 0 26.501 21.396 48.005 47.856 48.179zM768 133.888c-5.225-2.252-11.301-3.599-17.682-3.686-45.192 0-54.612 0-99.771 0-0.916-0.086-1.981-0.136-3.058-0.136-19.087 0-34.56 15.473-34.56 34.56s15.473 34.56 34.56 34.56c0.77 0 1.533-0.025 2.29-0.075 10.751 0.313 3.737 0.005 16.332 0.005v25.907c0 12.237 0.307 24.474-0.307 36.864-0.617 3.315-2.819 6.007-5.773 7.297-16.722 2.775-29.272 17.071-29.272 34.299 0 0.803 0.027 1.6 0.081 2.389 1.761 17.852 16.786 31.768 35.060 31.768 0.831 0 1.655-0.029 2.472-0.085 10.13 0.006 20.37 0.006 30.61 0.006 0.534 0.029 1.158 0.046 1.787 0.046 19.228 0 34.816-15.588 34.816-34.816 0-0.628-0.017-1.253-0.050-1.873 0.004-33.091 0.004-66.473 0.004-101.75 12.698 0 6.298 0.41 17.715 0 0.133 0.002 0.291 0.003 0.448 0.003 16.595 0 30.408-11.908 33.362-27.645 0.554-2.399 0.853-4.912 0.853-7.495 0-13.454-8.109-25.015-19.706-30.061z" />
<glyph unicode="&#xe90b;" glyph-name="copy" d="M725.333 704h-682.667c-0.737 0.048-1.598 0.075-2.465 0.075-22.245 0-40.277-18.033-40.277-40.277 0-0.867 0.027-1.728 0.081-2.581l-0.006-682.55c-0.048-0.737-0.075-1.598-0.075-2.465 0-22.245 18.033-40.277 40.277-40.277 0.867 0 1.728 0.027 2.581 0.081l682.55-0.006c0.737-0.048 1.598-0.075 2.465-0.075 22.245 0 40.277 18.033 40.277 40.277 0 0.867-0.027 1.728-0.081 2.581l0.006 682.55c0.048 0.737 0.075 1.598 0.075 2.465 0 22.245-18.033 40.277-40.277 40.277-0.867 0-1.728-0.027-2.581-0.081zM597.333 128.034c0.013-0.271 0.020-0.588 0.020-0.908 0-11.311-9.169-20.48-20.48-20.48-0.319 0-0.637 0.007-0.952 0.022l-383.955-0.002c-0.25-0.011-0.544-0.017-0.839-0.017-11.311 0-20.48 9.169-20.48 20.48 0 0.318 0.007 0.635 0.022 0.949l-0.002 383.955c-0.011 0.249-0.017 0.542-0.017 0.836 0 11.311 9.169 20.48 20.48 20.48 0.294 0 0.587-0.006 0.878-0.018l383.958 0.001c0.27 0.013 0.586 0.020 0.905 0.020 11.311 0 20.48-9.169 20.48-20.48 0-0.295-0.006-0.589-0.019-0.881l0.001-383.958zM981.333 960h-682.667c-0.737 0.048-1.598 0.075-2.465 0.075-22.245 0-40.277-18.033-40.277-40.277 0-0.867 0.027-1.728 0.081-2.581l-0.006-85.217c-0.048-0.737-0.075-1.598-0.075-2.465 0-22.245 18.033-40.277 40.277-40.277 0.867 0 1.728 0.027 2.581 0.081l533.183-0.006c0.27 0.013 0.586 0.020 0.905 0.020 11.311 0 20.48-9.169 20.48-20.48 0-0.295-0.006-0.589-0.019-0.881l0.001-533.326c-0.048-0.737-0.075-1.598-0.075-2.465 0-22.245 18.033-40.277 40.277-40.277 0.867 0 1.728 0.027 2.581 0.081l85.217-0.006c0.737-0.048 1.598-0.075 2.465-0.075 22.245 0 40.277 18.033 40.277 40.277 0 0.867-0.027 1.728-0.081 2.581l0.006 682.55c0.048 0.737 0.075 1.598 0.075 2.465 0 22.245-18.033 40.277-40.277 40.277-0.867 0-1.728-0.027-2.581-0.081z" />
<glyph unicode="&#xe90c;" glyph-name="country" d="M801.946 737.843c-73.811 73.549-175.639 119.022-288.089 119.022-225.424 0-408.166-182.742-408.166-408.166s182.742-408.166 408.166-408.166c225.424 0 408.166 182.742 408.166 408.166 0 57.402-11.849 112.036-33.235 161.591-20.731 47.966-50.37 91.175-86.834 127.545zM853.504 481.382h-113.101c-2.236 52.793-10.521 102.699-24.199 150.326 28.039 3.757 50.851 12.951 72.695 23.801 33.796-49.199 58.070-108.324 64.44-172.712zM545.485 770.253c8.394-3.974 15.624-8.516 22.242-13.793 21.622-18.294 39.537-40.641 52.609-65.899 3.075-5.914 5.686-10.727 7.939-15.744-23.819-4.259-52.32-7.425-81.291-8.799l-1.551 104.236zM402.944 689.306c13.619 26.472 31.538 48.822 53.082 67.014 6.749 5.498 14.010 10.156 21.772 13.947l0.666-104.154c-30.482 1.376-59.022 4.544-86.966 9.441 6.531 4.178 8.937 8.991 11.446 13.752zM364.237 582.451c2.253 9.83 4.659 19.149 7.373 28.621 31.211-6.243 67.984-10.625 105.485-12.188l1.472-117.399h-128c1.809 36.812 6.695 71.421 14.443 104.934zM478.566 414.413v-117.402c-38.788-1.582-75.405-5.928-111.091-12.88 1.677 10.269-0.934 20.509-3.238 30.749-6.878 29.091-11.742 63.215-13.559 98.145l127.94 1.439zM478.566 230.093v-103.014c-8.434 3.962-15.701 8.541-22.326 13.884-21.637 18.308-39.552 40.654-52.627 65.911-2.922 5.454-5.175 9.908-7.325 14.414 23.677 4.236 51.97 7.366 80.733 8.7zM621.005 208.077c-13.64-26.471-31.574-48.821-53.131-67.013-6.716-5.342-13.944-9.882-21.65-13.586l-0.687 102.614c30.218-1.431 58.404-4.541 86.031-9.288-6.108-3.972-8.309-8.324-10.613-12.779zM659.661 314.88c-2.355-10.24-5.12-20.48-7.782-29.952-31.035 6.166-67.632 10.51-104.945 12.084l-1.499 117.452h128c-1.895-36.369-6.814-70.485-14.549-103.518zM545.485 481.382v117.504c38.896 1.573 75.635 5.956 111.425 12.985-1.909-10.015 0.549-19.59 2.802-29.369 7.003-29.562 11.907-64.187 13.667-99.638l-127.945-1.379zM738.355 705.792c-11.263-4.906-25.711-10.132-40.497-14.579-7.682 9.92-12.649 20.211-17.973 29.939-8.022 14.86-15.978 27.413-24.692 39.379 32.233-15.756 59.397-33.73 83.529-55.056zM368.077 759.45c-8.001-10.98-15.925-23.534-23.019-36.604-6.012-11.678-11.132-21.969-15.893-32.516-17.765 5.228-32.177 10.454-46.205 16.412 26.491 20.001 53.61 37.979 83.052 51.835zM237.773 654.182c19.169-9.676 41.971-18.84 65.595-26.128-9.337-43.921-17.622-93.773-19.828-145.2l-113.043-1.318c6.578 65.704 30.837 124.724 67.892 173.491zM170.496 414.464h113.050c2.37-52.795 10.74-102.63 24.466-150.194-28.134-3.694-51.070-12.926-73.007-23.86-33.72 49.21-57.941 108.294-64.392 172.618zM285.645 190.106c11.517 5.106 26.096 10.453 41.036 14.967 7.399-9.489 12.161-19.319 17.383-28.894 8.471-15.658 16.952-28.931 26.269-41.55-32.814 15.906-60.487 34.142-85.068 55.805zM654.285 135.629c8.705 11.695 17.188 24.97 24.722 38.836 5.998 11.237 10.811 21.17 15.367 31.359 17.962-5.362 32.572-10.742 46.779-16.877-26.997-20.194-54.721-38.365-84.777-52.371zM786.227 241.715c-19.292 9.663-42.298 18.861-66.117 26.206 9.324 43.877 17.696 93.661 19.989 145.027l113.2 1.362c-6.459-65.665-30.679-124.67-67.734-173.381z" />
<glyph unicode="&#xe90d;" glyph-name="date" d="M159.061 400.896v71.407c-0.002 0.102-0.003 0.222-0.003 0.342 0 10.444 8.466 18.91 18.91 18.91 0.073 0 0.146 0 0.219-0.001h70.986c0.122 0.003 0.267 0.004 0.411 0.004 10.613 0 19.234-8.528 19.386-19.105v-71.558c-0.113-10.539-8.587-19.061-19.097-19.251h-71.698c-0.021 0-0.045 0-0.069 0-10.519 0-19.046 8.527-19.046 19.046 0 0.072 0 0.144 0.001 0.216zM327.68 381.85h70.997c0.041 0 0.090-0.001 0.139-0.001 10.481 0 18.978 8.497 18.978 18.978 0 0.096-0.001 0.192-0.002 0.288v71.392c0.002 0.102 0.003 0.222 0.003 0.342 0 10.444-8.466 18.91-18.91 18.91-0.073 0-0.146 0-0.219-0.001h-70.986c-0.082 0.001-0.178 0.002-0.275 0.002-10.688 0-19.37-8.587-19.522-19.239v-71.421c0.648-10.55 9.193-18.906 19.764-19.25zM476.501 381.85h71.68c10.527 0.19 19.002 8.712 19.115 19.24v71.418c-0.076 10.554-8.572 19.098-19.1 19.251h-71.694c-10.542-0.153-19.039-8.697-19.115-19.244v-71.414c0.15-10.524 8.603-19.025 19.093-19.251zM327.68 236.373h70.997c0.041 0 0.090-0.001 0.139-0.001 10.481 0 18.978 8.497 18.978 18.978 0 0.096-0.001 0.192-0.002 0.288v71.324c0.002 0.102 0.003 0.222 0.003 0.342 0 10.444-8.466 18.91-18.91 18.91-0.073 0-0.146 0-0.219-0.001h-70.986c-0.082 0.001-0.178 0.002-0.275 0.002-10.688 0-19.37-8.587-19.522-19.239v-71.421c0.683-10.521 9.216-18.841 19.765-19.182zM476.501 236.373h71.68c10.527 0.19 19.002 8.712 19.115 19.24v71.349c-0.076 10.554-8.572 19.098-19.1 19.251h-71.694c-10.542-0.153-19.039-8.697-19.115-19.244v-71.414c0.187-10.495 8.626-18.958 19.093-19.183zM626.005 236.373h71.68c10.527 0.19 19.002 8.712 19.115 19.24v71.349c-0.076 10.554-8.572 19.098-19.1 19.251h-71.694c-10.541-0.039-19.076-8.573-19.115-19.111v-71.547c-0.001-0.082-0.002-0.178-0.002-0.274 0-10.444 8.466-18.91 18.91-18.91 0.073 0 0.145 0 0.218 0.001h-0.011zM178.176 236.373h70.997c0.102-0.002 0.223-0.003 0.344-0.003 10.626 0 19.263 8.519 19.453 19.1v71.493c-0.076 10.554-8.572 19.098-19.1 19.251h-71.694c-0.062 0.001-0.135 0.001-0.208 0.001-10.444 0-18.91-8.466-18.91-18.91 0-0.12 0.001-0.241 0.003-0.36v-71.389c-0.001-0.082-0.002-0.178-0.002-0.274 0-10.444 8.466-18.91 18.91-18.91 0.073 0 0.145 0 0.218 0.001zM476.501 90.965h71.68c10.51 0.114 19 8.604 19.115 19.104v71.691c-0.076 10.554-8.572 19.098-19.1 19.251h-71.694c-10.542-0.153-19.039-8.697-19.115-19.244v-71.414c0.147-10.553 8.586-19.087 19.087-19.387zM327.68 90.965h70.997c0.082-0.001 0.178-0.002 0.275-0.002 10.406 0 18.842 8.436 18.842 18.842 0 0.097-0.001 0.193-0.002 0.29v71.665c0.002 0.102 0.003 0.222 0.003 0.342 0 10.444-8.466 18.91-18.91 18.91-0.073 0-0.146 0-0.219-0.001h-70.986c-0.122 0.003-0.267 0.004-0.411 0.004-10.613 0-19.234-8.528-19.386-19.105v-71.558c0.192-10.748 8.95-19.388 19.726-19.388 0.025 0 0.050 0 0.075 0zM626.005 381.85h71.68c10.527 0.19 19.002 8.712 19.115 19.24v71.418c-0.076 10.554-8.572 19.098-19.1 19.251h-71.694c-10.541-0.039-19.076-8.573-19.115-19.111v-71.547c-0.001-0.061-0.001-0.133-0.001-0.205 0-10.519 8.527-19.046 19.046-19.046 0.024 0 0.049 0 0.073 0h-0.004zM775.509 236.373h70.997c10.527 0.19 19.002 8.712 19.115 19.24v71.349c-0.076 10.554-8.572 19.098-19.1 19.251h-71.012c-0.082 0.001-0.178 0.002-0.275 0.002-10.688 0-19.37-8.587-19.522-19.239v-71.421c0.683-10.521 9.216-18.841 19.765-19.182zM626.005 90.965h71.68c10.51 0.114 19 8.604 19.115 19.104v71.691c-0.076 10.554-8.572 19.098-19.1 19.251h-71.694c-10.541-0.039-19.076-8.573-19.115-19.111v-71.547c-0.001-0.061-0.001-0.133-0.001-0.205 0-10.571 8.55-19.145 19.112-19.183h0.004zM0 48.026v689.493c0 0.041 0 0.089 0 0.137 0 61.795 50.094 111.889 111.889 111.889 0.024 0 0.048 0 0.072 0h125.607v69.495c0 22.622 18.338 40.96 40.96 40.96h63.488c22.622 0 40.96-18.338 40.96-40.96v0-69.154h257.365v69.154c0 22.622 18.338 40.96 40.96 40.96h64.171c22.622 0 40.96-18.338 40.96-40.96v0-69.154h125.611c61.778-0.194 111.803-50.242 111.957-112.011v-689.508c0-0.061 0-0.133 0-0.205 0-61.874-50.1-112.046-111.946-112.162h-800.096c-61.832 0-111.957 50.125-111.957 111.957 0 0.024 0 0.048 0 0.072zM86.699 48.026c0.112-13.96 11.322-25.265 25.234-25.531h799.428c0.021 0 0.046 0 0.071 0 14.169 0 25.678 11.39 25.871 25.514v510.789h-850.603v-510.771z" />
<glyph unicode="&#xe90e;" glyph-name="delete" d="M325.376 100.864c0.507-20.372 16.977-36.734 37.344-37.068h349.267c20.399 0.334 36.869 16.696 37.375 37.021l24.935 544.457h-473.907zM616.397 510.054c-0.003 0.107-0.004 0.232-0.004 0.358 0 8.483 6.877 15.36 15.36 15.36 0.001 0 0.003 0 0.004 0h24.115c0.001 0 0.003 0 0.004 0 8.483 0 15.36-6.877 15.36-15.36 0-0.126-0.002-0.252-0.005-0.377v-311.021c0.003-0.107 0.004-0.232 0.004-0.358 0-8.483-6.877-15.36-15.36-15.36-0.001 0-0.003 0-0.004 0h-24.32c-0.001 0-0.003 0-0.004 0-8.483 0-15.36 6.877-15.36 15.36 0 0.126 0.002 0.252 0.005 0.377v311.021zM510.054 510.054c-0.003 0.107-0.004 0.232-0.004 0.358 0 8.483 6.877 15.36 15.36 15.36 0.001 0 0.003 0 0.004 0h24.32c0.001 0 0.003 0 0.004 0 8.483 0 15.36-6.877 15.36-15.36 0-0.126-0.002-0.252-0.005-0.377v-311.021c0.003-0.107 0.004-0.232 0.004-0.358 0-8.483-6.877-15.36-15.36-15.36-0.001 0-0.003 0-0.004 0h-24.525c-0.001 0-0.003 0-0.004 0-8.483 0-15.36 6.877-15.36 15.36 0 0.126 0.002 0.252 0.005 0.377v311.021zM403.712 510.054c-0.003 0.107-0.004 0.232-0.004 0.358 0 8.483 6.877 15.36 15.36 15.36 0.001 0 0.003 0 0.004 0h24.064c0.001 0 0.003 0 0.004 0 8.483 0 15.36-6.877 15.36-15.36 0-0.126-0.002-0.252-0.005-0.377v-311.021c0.003-0.107 0.004-0.232 0.004-0.358 0-8.483-6.877-15.36-15.36-15.36-0.001 0-0.003 0-0.004 0h-24.269c-0.001 0-0.003 0-0.004 0-8.483 0-15.36 6.877-15.36 15.36 0 0.126 0.002 0.252 0.005 0.377v311.021zM790.938 792.832h-161.178v31.488c0 0.031 0.001 0.067 0.001 0.104 0 4.357-3.489 7.9-7.826 7.986h-168.968c-4.345-0.086-7.834-3.628-7.834-7.986 0-0.037 0-0.073 0.001-0.109v-31.482h-161.331c-13.024-0.2-23.504-10.804-23.504-23.857 0-0.145 0.001-0.29 0.004-0.434v-76.215h554.086v76.237c0.002 0.123 0.004 0.267 0.004 0.412 0 13.052-10.481 23.657-23.486 23.856z" />
<glyph unicode="&#xe90f;" glyph-name="download" d="M804.813 174.95h-585.626c-36.908-1.043-66.431-31.211-66.431-68.275s29.523-67.233 66.335-68.273l585.722-0.002c36.908 1.043 66.431 31.211 66.431 68.275s-29.523 67.233-66.335 68.273zM463.462 250.010c11.014-11.347 26.053-18.735 42.808-19.855 2.043-0.011 3.835-0.574 5.729-0.574s3.635 0.41 5.478 0.563c16.972 1.123 32.030 8.512 43.044 19.85l209.935 216.541c12.204 12.71 19.72 30.002 19.72 49.050s-7.515 36.34-19.743 49.074c-11.992 12.507-28.87 20.294-47.567 20.294s-35.575-7.787-47.568-20.295l-96.739-100.017v324.71c0.114 1.461 0.179 3.163 0.179 4.881 0 36.76-29.8 66.56-66.56 66.56s-66.56-29.8-66.56-66.56c0-1.718 0.065-3.42 0.193-5.105l-0.014-324.486-97.075 99.942c-12.015 12.531-28.893 20.318-47.59 20.318s-35.575-7.787-47.568-20.295c-12.227-12.733-19.742-30.025-19.742-49.073s7.515-36.34 19.743-49.074z" />
<glyph unicode="&#xe910;" glyph-name="edit" d="M5.939 31.573c-3.345-7.738-5.291-16.749-5.291-26.214 0-37.326 30.258-67.584 67.584-67.584 9.556 0 18.65 1.983 26.89 5.561l246.688 103.46-232.107 232.107zM1003.11 773.222l-167.117 167.117c-12.223 12.245-29.12 19.821-47.787 19.821s-35.564-7.575-47.786-19.82l-569.482-569.482 262.554-262.554 569.481 569.412c12.27 12.237 19.861 29.159 19.861 47.855 0 18.628-7.536 35.495-19.726 47.72z" />
<glyph unicode="&#xe911;" glyph-name="electricity_room" horiz-adv-x="530" d="M527.183 536.276c-3.511 6.56-10.317 10.946-18.147 10.946-0.001 0-0.002 0-0.003 0h-177.117l107.485 387.001c0.449 1.599 0.708 3.435 0.708 5.332 0 11.291-9.153 20.445-20.445 20.445 0 0-0.001 0-0.001 0h-240.357c-0.040 0-0.086 0-0.133 0-9.278 0-17.108-6.202-19.57-14.687l-158.579-570.759c-0.455-1.623-0.717-3.488-0.717-5.413 0-4.757 1.597-9.141 4.284-12.645 3.761-4.702 9.556-7.72 16.056-7.72 0.065 0 0.131 0 0.196 0.001h177.248l-107.485-387.001c-0.47-1.618-0.74-3.477-0.74-5.399 0-8.068 4.764-15.024 11.633-18.207 2.659-1.378 5.66-2.161 8.843-2.17 6.938 0.031 13.060 3.487 16.767 8.762l399.051 570.681c2.183 3.145 3.488 7.044 3.488 11.247 0 3.517-0.913 6.82-2.515 9.686zM161.863 65.942l82.662 297.666c0.449 1.599 0.708 3.435 0.708 5.332 0 11.291-9.153 20.445-20.445 20.445 0 0-0.001 0-0.001 0h-177.258l147.209 529.655h197.738l-107.485-386.648c-0.442-1.589-0.697-3.413-0.697-5.297 0-11.295 9.144-20.454 20.433-20.48h164.937zM283.436 683.52c-1.584 0.431-3.403 0.679-5.279 0.679-9.362 0-17.283-6.164-19.928-14.655l-2.864-10.388c-0.504-1.678-0.794-3.606-0.794-5.602 0-9.27 6.256-17.079 14.776-19.435 1.52-0.498 3.108-0.766 4.758-0.766 0.314 0 0.626 0.010 0.935 0.029 0.029-0.003 0.113-0.004 0.198-0.004 9.252 0 17.054 6.21 19.464 14.689l2.895 10.383c0.45 1.604 0.709 3.445 0.709 5.347 0 9.319-6.213 17.187-14.724 19.686zM344.064 899.619c-1.697 0.512-3.648 0.807-5.667 0.807-9.302 0-17.142-6.255-19.545-14.788l-43.501-155.155c-0.493-1.664-0.777-3.575-0.777-5.553 0-9.277 6.244-17.096 14.759-19.484 1.521-0.499 3.108-0.767 4.758-0.767 0.314 0 0.626 0.010 0.935 0.029 0.029-0.003 0.113-0.004 0.198-0.004 9.252 0 17.054 6.21 19.464 14.689l43.466 155.155c0.506 1.681 0.796 3.612 0.796 5.611 0 9.258-6.24 17.059-14.744 19.426z" />
<glyph unicode="&#xe912;" glyph-name="email" d="M511.437 412.16c-69.888 0-430.080 290.662-430.080 290.662v31.898c0 39.588 32.092 71.68 71.68 71.68h716.8c39.588 0 71.68-32.092 71.68-71.68l-0.563-35.84s-356.25-286.72-429.517-286.72zM511.437 313.6c76.8 0 429.517 277.76 429.517 277.76l0.563-430.080c0-39.588-32.092-71.68-71.68-71.68h-716.8c-39.588 0-71.68 32.092-71.68 71.68l0.563 430.080s359.629-277.76 429.517-277.76z" />
<glyph unicode="&#xe913;" glyph-name="export" d="M837.683 388.25h-59.443c-0.49 0.030-1.064 0.048-1.641 0.048-15.552 0-28.16-12.608-28.16-28.16 0-0.611 0.019-1.218 0.058-1.82l-0.004-134.318c0.018-0.267 0.028-0.579 0.028-0.893 0-7.776-6.304-14.080-14.080-14.080-0.28 0-0.558 0.008-0.834 0.024l-446.17-0.002c-0.238-0.014-0.516-0.023-0.796-0.023-7.776 0-14.080 6.304-14.080 14.080 0 0.314 0.010 0.626 0.031 0.935l-0.002 447.958c-0.018 0.267-0.028 0.579-0.028 0.893 0 7.776 6.304 14.080 14.080 14.080 0.28 0 0.558-0.008 0.834-0.024l133.799 0.002c0.49-0.030 1.064-0.048 1.641-0.048 15.552 0 28.16 12.608 28.16 28.16 0 0.611-0.019 1.218-0.058 1.82l0.004 59.668c0.034 0.519 0.054 1.126 0.054 1.737 0 15.552-12.608 28.16-28.16 28.16-0.577 0-1.15-0.017-1.719-0.052l-237.848 0.004c-0.49 0.030-1.064 0.048-1.641 0.048-15.552 0-28.16-12.608-28.16-28.16 0-0.611 0.019-1.218 0.058-1.82l-0.004-657.019c-0.034-0.519-0.054-1.126-0.054-1.737 0-15.552 12.608-28.16 28.16-28.16 0.577 0 1.15 0.017 1.719 0.052l654.258-0.004c0.49-0.030 1.064-0.048 1.641-0.048 15.552 0 28.16 12.608 28.16 28.16 0 0.611-0.019 1.218-0.058 1.82l0.004 238.868c0.034 0.519 0.054 1.126 0.054 1.737 0 15.552-12.608 28.16-28.16 28.16-0.577 0-1.15-0.017-1.719-0.052zM837.683 806.4h-237.926c-0.49 0.030-1.064 0.048-1.641 0.048-15.552 0-28.16-12.608-28.16-28.16 0-0.611 0.019-1.218 0.058-1.82l-0.004-59.668c-0.034-0.519-0.054-1.126-0.054-1.737 0-15.552 12.608-28.16 28.16-28.16 0.577 0 1.15 0.017 1.719 0.052l29.669-0.004c8.692-0.544 15.536-7.726 15.536-16.507 0-3.942-1.379-7.562-3.682-10.404l-237.902-238.919c-5.502-5.283-8.921-12.7-8.921-20.915s3.419-15.632 8.911-20.906l41.635-41.84c5.236-5.518 12.624-8.951 20.813-8.951s15.576 3.433 20.801 8.939l237.938 238.963c2.831 2.569 6.608 4.142 10.752 4.142 8.851 0 16.026-7.175 16.026-16.026 0-0.016 0-0.033 0-0.049v-29.847c-0.034-0.519-0.054-1.126-0.054-1.737 0-15.552 12.608-28.16 28.16-28.16 0.577 0 1.15 0.017 1.719 0.052l59.416-0.004c0.49-0.030 1.064-0.048 1.641-0.048 15.552 0 28.16 12.608 28.16 28.16 0 0.611-0.019 1.218-0.058 1.82l0.004 238.817c-0.057 18.077-14.652 32.726-32.703 32.87z" />
<glyph unicode="&#xe914;" glyph-name="file" d="M497.715 68.198h236.698c24.495 0.539 44.145 20.523 44.145 45.097 0 0.346-0.004 0.69-0.012 1.034l0.001 645.991c0.007 0.293 0.011 0.637 0.011 0.983 0 24.574-19.65 44.558-44.095 45.096l-315.442 0.001v-15.36c0.046-0.765 0.072-1.659 0.072-2.56s-0.026-1.795-0.078-2.683l0.006-125.369c0.008-0.372 0.012-0.81 0.012-1.25 0-34.52-27.528-62.61-61.829-63.517l-121.018-0.002c-1.28 0-2.611 0-3.84 0h-15.36v-481.485c-0.007-0.293-0.011-0.637-0.011-0.983 0-24.574 19.65-44.558 44.095-45.096l236.645-0.001zM506.88 224.512h-154.522c-11.555 0.578-20.705 10.088-20.705 21.734s9.15 21.156 20.653 21.732l154.573 0.002c11.555-0.578 20.705-10.088 20.705-21.734s-9.15-21.156-20.653-21.732zM661.043 335.36h-308.685c-11.555 0.578-20.705 10.088-20.705 21.734s9.15 21.156 20.653 21.732l308.788 0.002c11.544-0.592 20.68-10.095 20.68-21.733 0-11.656-9.164-21.171-20.68-21.734zM352.307 496.64h308.736c11.555-0.578 20.705-10.088 20.705-21.734s-9.15-21.156-20.653-21.732l-308.736-0.002c-12.032 0-21.786 9.754-21.786 21.786s9.754 21.786 21.786 21.786zM236.186 621.722h121.242c20.453 0.569 36.816 17.285 36.816 37.823 0 0.167-0.001 0.333-0.003 0.5v126.388c0.004 0.138 0.006 0.3 0.006 0.462 0 10.374-8.339 18.801-18.68 18.942-5.153-0.020-9.776-2.22-13.007-5.722l-139.582-145.318c-3.446-3.508-5.573-8.321-5.573-13.631 0-10.508 8.331-19.071 18.749-19.443z" />
<glyph unicode="&#xe915;" glyph-name="forms" horiz-adv-x="802" d="M41.253-64h719.653c0.174-0.003 0.38-0.004 0.586-0.004 22.945 0 41.545 18.6 41.545 41.545 0 0.104 0 0.209-0.001 0.313v940.455c0 0.066 0.001 0.144 0.001 0.223 0 22.985-18.633 41.618-41.618 41.618-0.18 0-0.36-0.001-0.54-0.003h-719.625c-0.152 0.002-0.332 0.003-0.513 0.003-22.985 0-41.618-18.633-41.618-41.618 0-0.078 0-0.156 0.001-0.235v-940.386c-0.016-0.424-0.025-0.922-0.025-1.423 0-22.379 18.142-40.521 40.521-40.521 0.575 0 1.147 0.012 1.716 0.036zM83.163 876.471h633.71v-855.113h-633.71v855.113zM548.352 749.275h-323.365c-23.106 0-41.838-18.731-41.838-41.838s18.731-41.838 41.838-41.838h321.829c0.152-0.002 0.332-0.003 0.513-0.003 22.985 0 41.618 18.633 41.618 41.618 0 0.078 0 0.156-0.001 0.235 0.057 0.782 0.090 1.708 0.090 2.641 0 21.652-17.552 39.205-39.205 39.205-0.443 0-0.885-0.007-1.324-0.022zM548.352 578.56h-323.365c-0.522 0.023-1.134 0.037-1.749 0.037-23.106 0-41.838-18.731-41.838-41.838s18.731-41.838 41.838-41.838c0.615 0 1.227 0.013 1.836 0.040l321.742-0.003c0.174-0.003 0.38-0.004 0.586-0.004 22.945 0 41.545 18.6 41.545 41.545 0 0.104 0 0.209-0.001 0.313 0.054 0.756 0.085 1.656 0.085 2.564 0 21.652-17.552 39.205-39.205 39.205-0.441 0-0.881-0.007-1.319-0.022zM548.352 409.6h-40.229c-23.106 0-41.838-18.731-41.838-41.838s18.731-41.838 41.838-41.838h40.448c23.106 0 41.838 18.731 41.838 41.838s-18.731 41.838-41.838 41.838zM358.181 409.6h-133.12c-23.106 0-41.838-18.731-41.838-41.838s18.731-41.838 41.838-41.838h133.12c23.091 0.021 41.801 18.744 41.801 41.838 0 23.106-18.731 41.838-41.838 41.838-0.013 0-0.026 0-0.039 0z" />
<glyph unicode="&#xe916;" glyph-name="head_office" horiz-adv-x="995" d="M623.177 930.743c-3.281-0.006-6.418-0.617-9.307-1.728l-543.156-257.461c-7.29-3.694-12.2-11.131-12.2-19.716 0-0.022 0-0.044 0-0.065v-665.070c0.29-11.574 9.474-20.911 20.958-21.444l835.867-0.002c11.573 0.164 20.891 9.584 20.891 21.18 0 0.093-0.001 0.186-0.002 0.279v729.425c0.002 0.096 0.002 0.21 0.002 0.324 0 11.597-9.319 21.017-20.877 21.18h-271.697v171.593c0 0.040 0 0.088 0 0.136 0 11.493-9.065 20.868-20.436 21.366zM601.907 875.71v-867.533h-167.146v107.257c-0.3 11.529-9.413 20.836-20.835 21.443l-125.451 0.002c-11.31-0.983-20.21-10.075-20.887-21.382l-0.003-107.32h-167.175v629.994zM643.657 694.696h250.734v-686.519h-250.734v686.519zM706.326 651.776c-11.131-1.367-19.819-10.245-20.882-21.349l-0.007-128.828c0.286-11.535 9.407-20.85 20.836-21.443l125.421-0.002c11.483 0.595 20.604 9.91 20.889 21.418l0.001 128.759c-0.286 11.535-9.407 20.85-20.836 21.443l-125.362 0.002zM163.109 608.914c-11.282-1.045-20.147-10.102-20.886-21.377l-0.004-150.246c0.286-11.535 9.407-20.85 20.836-21.443l146.339-0.002c11.483 0.595 20.604 9.91 20.889 21.418l0.001 150.175c-0.271 11.557-9.414 20.894-20.866 21.473l-146.338 0.002zM392.953 608.914c-11.282-1.045-20.147-10.102-20.886-21.377l-0.004-150.246c0.286-11.535 9.407-20.85 20.836-21.443l146.339-0.002c11.483 0.595 20.604 9.91 20.889 21.418l0.001 150.175c-0.271 11.557-9.414 20.894-20.866 21.473l-146.338 0.002zM727.274 608.914h83.588v-85.811h-83.588v85.811zM183.998 565.965h104.477v-107.257h-104.477v107.257zM413.842 565.965h104.477v-107.257h-104.477v107.257zM706.414 437.233c-11.136-1.356-19.83-10.24-20.882-21.35l-0.007-128.798c0.286-11.535 9.407-20.85 20.836-21.443l125.421-0.002c11.47 0.611 20.576 9.92 20.86 21.418l0.001 128.759c-0.286 11.535-9.407 20.85-20.836 21.443l-125.421 0.002zM727.303 394.313h83.588v-85.811h-83.617v85.84zM163.138 372.868c-11.282-1.045-20.147-10.102-20.886-21.377l-0.004-150.246c0.286-11.535 9.407-20.85 20.836-21.443l146.339-0.002c11.483 0.595 20.604 9.91 20.889 21.418l0.001 150.234c-0.3 11.529-9.413 20.836-20.835 21.443l-146.341 0.002zM392.982 372.868c-11.282-1.045-20.147-10.102-20.886-21.377l-0.004-150.246c0.286-11.535 9.407-20.85 20.836-21.443l146.339-0.002c11.483 0.595 20.604 9.91 20.889 21.418l0.001 150.234c-0.286 11.535-9.407 20.85-20.836 21.443l-146.339 0.002zM183.998 329.977h104.477v-107.257h-104.477v107.257zM413.842 329.977h104.477v-107.257h-104.477v107.257zM706.414 222.72c-11.136-1.356-19.83-10.24-20.882-21.35l-0.007-128.827c0.286-11.535 9.407-20.85 20.836-21.443l125.421-0.002c11.483 0.595 20.604 9.91 20.889 21.418l0.001 128.759c-0.286 11.535-9.407 20.85-20.836 21.443l-125.45 0.002zM727.303 179.8h83.588v-85.811h-83.617v85.811zM309.365 93.989h83.588v-85.811h-83.588v85.811z" />
<glyph unicode="&#xe917;" glyph-name="minus" d="M199.168 493.568h574.464c0.569 0.016 1.238 0.026 1.909 0.026 39.305 0 71.168-31.863 71.168-71.168s-31.863-71.168-71.168-71.168c-0.671 0-1.34 0.009-2.007 0.028l-574.366-0.002c-0.569-0.016-1.238-0.026-1.909-0.026-39.305 0-71.168 31.863-71.168 71.168s31.863 71.168 71.168 71.168c0.671 0 1.34-0.009 2.007-0.028z" />
<glyph unicode="&#xe918;" glyph-name="password" d="M819.2 38.4h-614.4c-28.277 0-51.2 22.923-51.2 51.2v409.6c0 28.277 22.923 51.2 51.2 51.2h51.2v102.4c0 141.385 114.615 256 256 256s256-114.615 256-256v-102.4h51.2c28.277 0 51.2-22.923 51.2-51.2v-409.6c0-28.277-22.923-51.2-51.2-51.2zM665.6 652.8c0 84.831-68.769 153.6-153.6 153.6s-153.6-68.769-153.6-153.6v-102.4h307.2v102.4z" />
<glyph unicode="&#xe919;" glyph-name="phone" horiz-adv-x="605" d="M527.127 960.279h-449.164c-43.377-2.080-77.759-37.755-77.759-81.46 0-1.226 0.027-2.446 0.081-3.658l-0.006-854.542c-0.047-1.040-0.074-2.259-0.074-3.484 0-43.696 34.386-79.36 77.575-81.408l449.348-0.007c43.376 2.081 77.757 37.755 77.757 81.459 0 1.21-0.026 2.413-0.078 3.61l0.006 854.544c0.046 1.027 0.073 2.231 0.073 3.442 0 43.714-34.376 79.398-77.569 81.497zM191.721 908.707h221.743c6.159-4.76 10.087-12.15 10.087-20.457s-3.928-15.696-10.028-20.412l-221.802-0.044c-6.195 4.759-10.148 12.169-10.148 20.503s3.954 15.744 10.087 20.458zM302.592 19.689c-1.479-0.143-3.197-0.224-4.934-0.224-30.051 0-54.412 24.361-54.412 54.412s24.361 54.412 54.412 54.412c30.021 0 54.363-24.313 54.412-54.323 0.034-0.704 0.053-1.524 0.053-2.348 0-27.893-21.906-50.669-49.453-52.063zM546.583 205.359h-488.076v611.561h488.076v-611.7z" />
<glyph unicode="&#xe91a;" glyph-name="playground" horiz-adv-x="949" d="M523.321 704.961c0.109-0.002 0.237-0.003 0.365-0.003 9.669 0 17.894 6.177 20.947 14.8 0.984 2.505 1.526 5.227 1.526 8.076 0 6.757-3.052 12.801-7.852 16.829l-250.801 211.065c-4.082 3.2-9.291 5.131-14.952 5.131s-10.87-1.931-15.005-5.171l-250.714-210.997c-4.835-4.056-7.886-10.1-7.886-16.857 0-2.849 0.543-5.572 1.53-8.070 3.049-8.629 11.274-14.806 20.943-14.806 0.128 0 0.257 0.001 0.384 0.003h34.157v-339.197h-16.661c-0.14 0.003-0.305 0.005-0.47 0.005-12.481 0-22.599-10.118-22.599-22.599 0-0.017 0-0.033 0-0.050v-384.051c0.144-12.536 10.34-22.642 22.897-22.642 0.061 0 0.121 0 0.182 0.001h387.889c12.466 0.096 22.546 10.176 22.642 22.632v361.421h16.661c0.038 0 0.083 0 0.129 0 12.434 0 22.513 10.080 22.513 22.513 0 0.045 0 0.090 0 0.135v361.832h34.176zM272.554 908.736l188.823-158.491h-377.645zM404.132-18.29h-342.188v338.77h342.188v-338.77zM443.861 365.764h-342.615v339.197h342.615v-339.197zM925.744 365.764h-387.898c-0.115 0.002-0.251 0.003-0.388 0.003-12.292 0-22.257-9.965-22.257-22.257 0-0.136 0.001-0.272 0.004-0.408v-384.033c0-0.038 0-0.083 0-0.129 0-12.434 10.080-22.513 22.513-22.513 0.045 0 0.090 0 0.135 0h387.891c0.038 0 0.083 0 0.129 0 12.434 0 22.513 10.080 22.513 22.513 0 0.045 0 0.090 0 0.135v384.046c0.002 0.115 0.003 0.251 0.003 0.388 0 12.292-9.965 22.257-22.257 22.257-0.136 0-0.272-0.001-0.408-0.004zM903.102-18.29h-342.615v338.77h342.615v-338.77zM211.892 442.66h121.325c12.466 0.096 22.546 10.176 22.642 22.632v80.323c0 46.008-37.297 83.304-83.304 83.304s-83.304-37.297-83.304-83.304v-80.314c0.096-12.466 10.176-22.546 22.632-22.642zM234.96 545.615c0 20.762 16.831 37.594 37.594 37.594s37.594-16.831 37.594-37.594v-57.672h-75.187v57.672zM172.589 58.607h120.898c0.14-0.003 0.305-0.005 0.47-0.005 12.481 0 22.599 10.118 22.599 22.599 0 0.017 0 0.033 0 0.050v79.884c0 46.008-37.297 83.304-83.304 83.304s-83.304-37.297-83.304-83.304v-79.887c0-0.038 0-0.083 0-0.129 0-12.434 10.080-22.513 22.513-22.513 0.045 0 0.090 0 0.135 0zM195.231 161.135c0 20.88 16.927 37.807 37.807 37.807s37.807-16.927 37.807-37.807v-57.672h-75.615v57.672zM671.132 58.607h121.325c0.038 0 0.083 0 0.129 0 12.434 0 22.513 10.080 22.513 22.513 0 0.045 0 0.090 0 0.135v79.88c0 46.008-37.297 83.304-83.304 83.304s-83.304-37.297-83.304-83.304v-79.887c0-0.038 0-0.083 0-0.129 0-12.434 10.080-22.513 22.513-22.513 0.045 0 0.090 0 0.135 0zM694.201 161.135c0 20.762 16.831 37.594 37.594 37.594s37.594-16.831 37.594-37.594v-57.672h-75.187v57.672z" />
<glyph unicode="&#xe91b;" glyph-name="plus" d="M824.32 545.28h-215.040v215.040c0 40.96-30.72 71.68-71.68 71.68s-71.68-30.72-71.68-71.68v-215.040h-215.040c0 0 0 0-5.12 0-40.96 0-71.68-35.84-66.56-71.68 0-40.96 35.84-71.68 71.68-71.68h215.040v-215.040c0 0 0 0 0-5.12 0-40.96 35.84-71.68 71.68-71.68 40.96 0 71.68 35.84 71.68 71.68v215.040h215.040c0 0 0 0 5.12 0 40.96 0 71.68 35.84 71.68 71.68-5.12 46.080-35.84 76.8-76.8 76.8z" />
<glyph unicode="&#xe91c;" glyph-name="poisition" horiz-adv-x="796" d="M628.508 573.611c-37.806-91.948-126.68-155.508-230.4-155.508s-192.594 63.561-229.797 153.856c-100.717-48.085-168.313-149.642-168.313-266.987 0-0.377 0.001-0.754 0.002-1.13v-265.613c-0.004-0.34-0.006-0.741-0.006-1.142 0-55.588 44.791-100.714 100.25-101.257h595.849c55.53 0.478 100.361 45.604 100.361 101.202 0 0.481-0.003 0.962-0.010 1.442l0.001 265.598c0.001 0.298 0.002 0.651 0.002 1.003 0 117.374-67.707 218.935-166.196 267.755zM571.051 321.82l-184.946-246.101c-6.572-8.738-16.453-14.682-27.747-15.969-0.857-0.059-1.642-0.083-2.433-0.083s-1.575 0.024-2.354 0.072c0.095-0.005 0.080-0.005 0.066-0.005-9.967 0-19.079 3.662-26.064 9.713l-110.201 93.711c-8.954 7.753-14.585 19.138-14.585 31.837 0 10.146 3.594 19.453 9.579 26.717 7.375 9.048 18.608 14.826 31.19 14.826 10.011 0 19.167-3.657 26.206-9.708l77.486-65.946 159.289 211.627c7.413 9.863 19.090 16.174 32.241 16.174 9.328 0 17.914-3.175 24.737-8.504 9.796-7.666 16.090-19.596 16.090-32.995 0-9.579-3.217-18.407-8.629-25.463zM398.279 486.798c116.338 0 210.489 140.004 210.489 258.389 0 116.25-94.239 210.489-210.489 210.489s-210.489-94.239-210.489-210.489c-0.057-118.101 94.037-258.105 210.432-258.105z" />
<glyph unicode="&#xe91d;" glyph-name="preferences" horiz-adv-x="974" d="M973.239 652.8c0-0.021 0-0.045 0-0.069 0-51.863-30.845-96.522-75.191-116.633l-1.609-548.898c0-28.277-22.923-51.2-51.2-51.2s-51.2 22.923-51.2 51.2v548.571c-45.454 20.314-76.555 65.128-76.555 117.207 0 51.769 30.733 96.36 74.95 116.523l1.605 139.299c0 28.277 22.923 51.2 51.2 51.2s51.2-22.923 51.2-51.2v-138.971c45.488-20.236 76.66-64.975 76.8-117.010zM538.039 126.171v-138.971c0-28.277-22.923-51.2-51.2-51.2s-51.2 22.923-51.2 51.2v138.971c-45.454 20.314-76.555 65.128-76.555 117.207 0 51.769 30.733 96.36 74.95 116.523l1.605 548.899c0 28.277 22.923 51.2 51.2 51.2s51.2-22.923 51.2-51.2v-548.571c45.454-20.314 76.555-65.128 76.555-117.207 0-51.769-30.733-96.36-74.95-116.523zM179.639 330.971v-343.771c0-28.277-22.923-51.2-51.2-51.2s-51.2 22.923-51.2 51.2v343.771c-45.454 20.314-76.555 65.128-76.555 117.207 0 51.769 30.733 96.36 74.95 116.523l1.605 344.099c0 28.277 22.923 51.2 51.2 51.2s51.2-22.923 51.2-51.2v-343.771c45.454-20.314 76.555-65.128 76.555-117.207 0-51.769-30.733-96.36-74.95-116.523z" />
<glyph unicode="&#xe91e;" glyph-name="private" horiz-adv-x="767" d="M243.179 641.829v103.852c0.699 51.352 42.49 92.712 93.942 92.712 0.331 0 0.661-0.002 0.991-0.005h105.267c0.293 0.003 0.638 0.005 0.984 0.005 51.443 0 93.225-41.366 93.898-92.649l0.001-103.915h124.32v103.852c-1.447 118.68-97.993 214.332-216.879 214.332-0.817 0-1.633-0.005-2.448-0.014l-105.193 0.001c-0.704 0.008-1.536 0.013-2.368 0.013-118.887 0-215.433-95.652-216.878-214.196l-0.001-103.988h124.32zM-0.222 600.625v-340.238c2.019-179.916 148.339-324.988 328.541-324.988 1.381 0 2.759 0.009 4.136 0.025l101.911-0.002c1.167-0.015 2.546-0.023 3.927-0.023 180.203 0 326.522 145.072 328.54 324.797l0.002 340.429h-767.056zM445.022 288.049v-184.571c0-22.535-18.268-40.804-40.804-40.804s-40.804 18.268-40.804 40.804v184.616c-38.903 16.458-65.703 54.307-65.703 98.416 0 58.852 47.709 106.56 106.56 106.56s106.56-47.709 106.56-106.56c0-44.15-26.849-82.028-65.111-98.198z" />
<glyph unicode="&#xe91f;" glyph-name="projects" horiz-adv-x="951" d="M578.633 96.037c0.001 0.044 0.001 0.096 0.001 0.149 0 5.74-4.592 10.408-10.303 10.53h-185.794c-5.722-0.122-10.314-4.79-10.314-10.53 0-0.052 0-0.104 0.001-0.156v-160.029h-371.493v42.642c-0.003 0.198-0.005 0.431-0.005 0.665 0 22.932 18.385 41.569 41.22 41.977l41.291 0.001v896c-0.004 0.22-0.007 0.48-0.007 0.74 0 22.881 18.304 41.487 41.067 41.974l702.217 0.001c22.873-0.408 41.259-19.046 41.259-41.978 0-0.259-0.002-0.518-0.007-0.776l0.001-895.888h41.253c22.873-0.408 41.258-19.046 41.258-41.978 0-0.234-0.002-0.467-0.006-0.7v-42.68h-371.639v159.963zM320.658 277.358h-103.205c-5.714-0.081-10.315-4.732-10.315-10.458 0-0.078 0.001-0.155 0.003-0.232v-63.989c-0.001-0.044-0.001-0.096-0.001-0.149 0-5.74 4.592-10.408 10.303-10.53h103.216c5.722 0.122 10.314 4.79 10.314 10.53 0 0.052 0 0.104-0.001 0.156v63.992c0.001 0.066 0.002 0.143 0.002 0.22 0 5.726-4.601 10.377-10.308 10.458zM320.658 448h-103.205c-5.714-0.081-10.315-4.732-10.315-10.458 0-0.078 0.001-0.155 0.003-0.232v-63.989c-0.001-0.044-0.001-0.096-0.001-0.149 0-5.74 4.592-10.408 10.303-10.53h103.216c5.722 0.122 10.314 4.79 10.314 10.53 0 0.052 0 0.104-0.001 0.156v63.992c0.001 0.066 0.002 0.143 0.002 0.22 0 5.726-4.601 10.377-10.308 10.458zM320.658 618.642h-103.205c-5.714-0.081-10.315-4.732-10.315-10.458 0-0.078 0.001-0.155 0.003-0.232v-63.989c-0.001-0.044-0.001-0.096-0.001-0.147 0-5.726 4.6-10.377 10.306-10.458h103.212c5.714 0.082 10.314 4.733 10.314 10.458 0 0.052 0 0.103-0.001 0.155v63.992c0.001 0.066 0.002 0.143 0.002 0.22 0 5.726-4.601 10.377-10.308 10.458zM320.658 789.358h-103.205c-5.722-0.122-10.314-4.79-10.314-10.53 0-0.052 0-0.104 0.001-0.156v-63.992c-0.001-0.066-0.002-0.143-0.002-0.22 0-5.726 4.601-10.377 10.308-10.458h103.212c5.714 0.081 10.315 4.732 10.315 10.458 0 0.078-0.001 0.155-0.003 0.232v63.989c0.001 0.044 0.001 0.096 0.001 0.149 0 5.74-4.592 10.408-10.303 10.53zM527.067 277.358h-103.205c-5.714-0.081-10.315-4.732-10.315-10.458 0-0.078 0.001-0.155 0.003-0.232v-63.989c-0.001-0.044-0.001-0.096-0.001-0.149 0-5.74 4.592-10.408 10.303-10.53h103.216c5.722 0.122 10.314 4.79 10.314 10.53 0 0.052 0 0.104-0.001 0.156v63.992c0.001 0.065 0.002 0.142 0.002 0.22 0 5.752-4.643 10.419-10.385 10.459zM527.067 448h-103.205c-5.714-0.081-10.315-4.732-10.315-10.458 0-0.078 0.001-0.155 0.003-0.232v-63.989c-0.001-0.044-0.001-0.096-0.001-0.149 0-5.74 4.592-10.408 10.303-10.53h103.216c5.722 0.122 10.314 4.79 10.314 10.53 0 0.052 0 0.104-0.001 0.156v63.992c0.001 0.065 0.002 0.142 0.002 0.22 0 5.752-4.643 10.419-10.385 10.459zM527.067 618.642h-103.205c-5.714-0.081-10.315-4.732-10.315-10.458 0-0.078 0.001-0.155 0.003-0.232v-63.989c-0.001-0.044-0.001-0.096-0.001-0.147 0-5.726 4.6-10.377 10.306-10.458h103.212c5.714 0.082 10.314 4.733 10.314 10.458 0 0.052 0 0.103-0.001 0.155v63.992c0.001 0.065 0.002 0.142 0.002 0.22 0 5.752-4.643 10.419-10.385 10.459zM527.067 789.358h-103.205c-5.722-0.122-10.314-4.79-10.314-10.53 0-0.052 0-0.104 0.001-0.156v-63.992c-0.001-0.066-0.002-0.143-0.002-0.22 0-5.726 4.601-10.377 10.308-10.458h103.212c5.714 0.081 10.315 4.732 10.315 10.458 0 0.078-0.001 0.155-0.003 0.232v63.989c0.001 0.044 0.001 0.096 0.001 0.147 0 5.766-4.633 10.45-10.38 10.531zM733.477 277.358h-103.278c-5.714-0.081-10.315-4.732-10.315-10.458 0-0.078 0.001-0.155 0.003-0.232v-63.989c-0.001-0.044-0.001-0.096-0.001-0.149 0-5.74 4.592-10.408 10.303-10.53h103.216c5.722 0.122 10.314 4.79 10.314 10.53 0 0.052 0 0.104-0.001 0.156v63.992c0.001 0.066 0.002 0.143 0.002 0.22 0 5.726-4.601 10.377-10.308 10.458zM733.477 448h-103.278c-5.714-0.081-10.315-4.732-10.315-10.458 0-0.078 0.001-0.155 0.003-0.232v-63.989c-0.001-0.044-0.001-0.096-0.001-0.149 0-5.74 4.592-10.408 10.303-10.53h103.216c5.722 0.122 10.314 4.79 10.314 10.53 0 0.052 0 0.104-0.001 0.156v63.992c0.001 0.066 0.002 0.143 0.002 0.22 0 5.726-4.601 10.377-10.308 10.458zM733.477 618.642h-103.278c-5.714-0.081-10.315-4.732-10.315-10.458 0-0.078 0.001-0.155 0.003-0.232v-63.989c-0.001-0.044-0.001-0.096-0.001-0.147 0-5.726 4.6-10.377 10.306-10.458h103.212c5.714 0.082 10.314 4.733 10.314 10.458 0 0.052 0 0.103-0.001 0.155v63.992c0.001 0.066 0.002 0.143 0.002 0.22 0 5.726-4.601 10.377-10.308 10.458zM733.477 789.358h-103.278c-5.722-0.122-10.314-4.79-10.314-10.53 0-0.052 0-0.104 0.001-0.156v-63.992c-0.001-0.066-0.002-0.143-0.002-0.22 0-5.726 4.601-10.377 10.308-10.458h103.212c5.714 0.081 10.315 4.732 10.315 10.458 0 0.078-0.001 0.155-0.003 0.232v63.989c0.001 0.044 0.001 0.096 0.001 0.149 0 5.74-4.592 10.408-10.303 10.53z" />
<glyph unicode="&#xe920;" glyph-name="public" horiz-adv-x="1325" d="M348.642-64v34.033c0 179.682 0-4.939 0 174.682-0.312 5.3-0.49 11.497-0.49 17.736 0 177.446 143.849 321.295 321.295 321.295 11.672 0 23.198-0.622 34.548-1.836 148.661-23.527 263.504-147.362 273.095-299.758 3.902-200.254 1.131-35.39 1.131-234.769-0.496-4.261-1.343-8.117-2.53-11.82l-627.049 0.436zM1047.371 325.602c19.353 6.503 41.638 10.255 64.8 10.255 111.648 0 202.933-87.187 209.484-197.19 2.424-12.785 3.795-26.822 3.795-41.179 0-10.664-0.757-21.151-2.219-31.411l-234.178 1.176v36.141c0 109.628-0.723-24.576 0 85.052 0.663 87.823-0.060 54.754-41.984 137.276zM235.761 66.711h-233.111c-0.843 9.758-2.349 19.155-2.65 28.552 0 121.615-0.964-0.542 0 121.133 1.265 142.336 97.22 124.265 224.738 120.471 18.683-1.585 35.535-4.122 52.020-7.65-1.913-2.113-1.468-5.094-1.468-8.18 0-1.022-0.049-2.034-0.144-3.031-33.782-74.203-38.481-32.822-37.697-113.477 1.265-123.844 0-3.855 0-127.699-0.372-3.824-0.967-7.269-1.792-10.625zM662.588 540.521c-111.337 2.876-200.495 93.816-200.495 205.579 0 2.162 0.033 4.316 0.1 6.462-0.008-0.291-0.008-0.265-0.008-0.238 0 112.768 89.847 204.551 201.862 207.67 111.895-4.256 200.756-95.763 200.756-208.024 0-0.516-0.002-1.032-0.006-1.547 0.028-1.185 0.044-2.674 0.044-4.167 0-112.406-90.134-203.76-202.069-205.731zM81.619 537.871c1.254 76.548 63.602 138.12 140.331 138.12 0.049 0 0.097 0 0.146 0 74.319-5.266 132.621-66.855 132.621-142.061 0-77.687-62.212-140.843-139.533-142.368-74.805 5.299-133.366 67.17-133.366 142.718 0 1.242 0.016 2.479 0.047 3.713zM1245.545 533.052c0.048-1.357 0.076-2.951 0.076-4.552 0-75.549-61.245-136.794-136.794-136.794s-136.794 61.245-136.794 136.794c0 2.364 0.060 4.714 0.178 7.048-0.062 1.029-0.089 2.624-0.089 4.224 0 75.549 61.245 136.794 136.794 136.794s136.794-61.245 136.794-136.794c0-2.364-0.060-4.714-0.178-7.048z" />
<glyph unicode="&#xe921;" glyph-name="report" horiz-adv-x="766" d="M764.855 631.808c0 0.044 0 0.096 0 0.147 0 36.672-29.625 66.425-66.248 66.632h-87.133c-52.294 0.29-94.575 42.75-94.575 95.084 0 0.155 0 0.31 0.001 0.464v99.304c0 0.079 0.001 0.172 0.001 0.266 0 35.845-28.366 65.065-63.876 66.437l-274.849 0.004c-42.994-0.249-77.752-35.16-77.752-78.188 0-0.129 0-0.258 0.001-0.387v-765.64c0-0.087-0.001-0.191-0.001-0.294 0-43.044 34.749-77.971 77.724-78.261h509.687c43.035 0.249 77.825 35.192 77.825 78.262 0 0.103 0 0.207-0.001 0.31v515.714h-0.805zM667.794-64h-509.659c-87.379 0.58-157.99 71.549-157.99 159.009 0 0.207 0 0.414 0.001 0.62v765.701h60.197v-765.659c0-0.109-0.001-0.238-0.001-0.367 0-54.167 43.745-98.117 97.834-98.448h509.618v-60.855zM554.496 803.474c0-0.066 0-0.144 0-0.221 0-36.984 29.836-67 66.752-67.289h77.266c0.066 0 0.145 0 0.224 0 15.249 0 29.645-3.648 42.365-10.12-13.394 23.646-27.726 43.855-44.058 62.248l-110.658 116.685c-12.445 11.929-26.35 22.505-41.374 31.389 5.726-12.276 9.703-27.508 9.703-43.669 0-0.029 0-0.057 0-0.086v-89.23z" />
<glyph unicode="&#xe922;" glyph-name="residents-club" horiz-adv-x="1692" d="M1372.763 485.247c106.508 0.135 192.798 86.508 192.798 193.035 0 106.61-86.425 193.035-193.035 193.035s-193.035-86.425-193.035-193.035c0-0.104 0-0.208 0-0.312 0.236-106.481 86.623-192.723 193.152-192.723 0.042 0 0.084 0 0.126 0zM1372.763 793.866c63.948-0.067 115.762-51.923 115.762-115.88 0-63.999-51.881-115.88-115.88-115.88s-115.88 51.881-115.88 115.88c0.135 63.986 52.003 115.813 115.992 115.88zM1372.763 407.797c-55.019-0.058-106.806-13.836-152.143-38.095-9.76-5.98-17.344-18.333-17.344-32.456 0-21.322 17.285-38.607 38.607-38.607 6.17 0 12.002 1.447 17.175 4.021 32.794 17.67 72.011 28.159 113.668 28.278 119.678-0.298 218.929-87.225 238.394-201.357l-238.357-1.433c-21.224 0-38.43-17.206-38.43-38.43s17.206-38.43 38.43-38.43h280.299c0.035 0 0.077 0 0.118 0 21.236 0 38.455 17.198 38.489 38.426-0.37 175.753-142.928 318.082-318.728 318.082-0.063 0-0.125 0-0.188 0zM322.986 128.148h-241.988c19.667 115.565 118.917 202.492 238.527 202.79 41.706-0.119 80.903-10.608 115.213-29.022 3.744-1.957 9.719-3.481 16.051-3.481 21.322 0 38.607 17.285 38.607 38.607 0 14.267-7.738 26.726-19.247 33.409-43.785 23.51-95.573 37.288-150.574 37.346-0.071 0-0.134 0-0.197 0-175.8 0-318.358-142.329-318.728-318.043 0.033-21.267 17.253-38.465 38.489-38.465 0.042 0 0.083 0 0.125 0h283.781c21.211 0.017 38.4 17.216 38.4 38.43 0 21.224-17.206 38.43-38.43 38.43-0.010 0-0.021 0-0.031 0zM319.557 485.247c106.508 0.135 192.798 86.508 192.798 193.035 0 106.61-86.425 193.035-193.035 193.035s-193.035-86.425-193.035-193.035c0-0.104 0-0.208 0-0.312 0.202-106.474 86.575-192.723 193.093-192.723 0.062 0 0.125 0 0.187 0zM319.557 793.866c63.948-0.067 115.762-51.923 115.762-115.88 0-63.999-51.881-115.88-115.88-115.88s-115.88 51.881-115.88 115.88c0.135 63.986 52.003 115.813 115.992 115.88zM846.16 458.051c138.090 0.471 249.851 112.522 249.851 250.678 0 138.446-112.233 250.679-250.679 250.679s-250.678-112.232-250.679-250.678c0.336-138.518 112.705-250.679 251.27-250.679 0.083 0 0.167 0 0.25 0zM846.16 881.367c95.014-0.437 171.869-77.561 171.869-172.636 0-95.345-77.292-172.637-172.637-172.637s-172.636 77.291-172.637 172.636c0.336 95.417 77.764 172.638 173.228 172.638 0.063 0 0.125 0 0.188 0zM846.16 394.199c0 0 0 0 0 0-231.624 0-419.432-187.6-419.769-419.146 0.034-21.264 17.253-38.462 38.489-38.462 0.042 0 0.083 0 0.125 0h762.081c0.035 0 0.077 0 0.118 0 21.236 0 38.455 17.198 38.489 38.426-0.337 231.498-188.010 419.047-419.52 419.181zM505.97 13.45c20.317 171.518 164.867 303.275 340.19 303.275s319.873-131.757 340.034-301.657l-680.224-1.619z" />
<glyph unicode="&#xe923;" glyph-name="rooms" horiz-adv-x="941" d="M513.54 692.343l96.933 96.634-39.911 39.783-114.044-113.659v-210.25h-57.022v-56.851h57.022v-56.808h57.022v56.808h370.664v-454.593h-370.664v284.126h-57.022v-56.808h-228.131v-56.851h228.131v-170.467h-399.197v170.467h57.022v56.851h-57.022v227.275h228.088v56.851h-228.088v397.828h399.197v-56.851h57.022v113.659h-513.326v-1022.845h941.098v568.209h-427.772v187.492z" />
<glyph unicode="&#xe924;" glyph-name="search" d="M907.162 52.89c-9.265-9.262-22.063-14.991-36.198-14.991s-26.934 5.729-36.199 14.991l-161.28 161.28c-59.075-44.563-133.722-71.373-214.63-71.373-197.939 0-358.4 160.461-358.4 358.4s160.461 358.4 358.4 358.4c197.939 0 358.4-160.461 358.4-358.4 0-80.909-26.81-155.556-72.031-215.542l161.938-160.368c9.262-9.265 14.991-22.063 14.991-36.198s-5.729-26.934-14.991-36.199zM640.922 681.165c-46.327 46.328-110.328 74.982-181.021 74.982-141.385 0-256-114.615-256-256s114.615-256 256-256c70.693 0 134.694 28.655 181.021 74.983 46.311 46.324 74.953 110.313 74.953 180.992s-28.643 134.668-74.954 180.993z" />
<glyph unicode="&#xe925;" glyph-name="settings" d="M974.921 561.883h-49.079c-10.6 37.495-24.236 70.101-41.215 100.59l35.802 32.165c9.261 9.008 15.007 21.588 15.007 35.511s-5.746 26.503-14.996 35.5l-91.001 90.928c-8.987 9.276-21.558 15.033-35.474 15.033s-26.487-5.757-35.462-15.020l-34.609-34.61c-28.272 16.706-60.962 30.434-95.545 39.485l-2.686 49.676c-0.041 26.993-21.933 48.86-48.933 48.86-0.077 0-0.154 0-0.231-0.001h-129.158c-0.044 0-0.095 0-0.147 0-27.025 0-48.933-21.908-48.933-48.933 0-0.077 0-0.154 0.001-0.232v-49.067c-37.505-10.652-70.106-24.31-100.602-41.294l-32.226 35.809c-8.987 9.276-21.558 15.033-35.474 15.033s-26.487-5.757-35.462-15.020l-91.002-90.93c-9.261-9.008-15.007-21.588-15.007-35.511s5.746-26.503 14.996-35.5l34.608-34.534c-16.703-28.273-30.41-60.968-39.418-95.559l-49.67-2.672c-0.044 0-0.095 0-0.147 0-27.025 0-48.933-21.908-48.933-48.933 0-0.077 0-0.154 0.001-0.232v-129.085c0-0.065 0-0.142 0-0.22 0-27.025 21.908-48.933 48.933-48.933 0.052 0 0.103 0 0.155 0h49.144c10.6-37.495 24.236-70.101 41.215-100.59l-35.802-32.238c-9.257-8.996-15.001-21.564-15.001-35.474s5.744-26.479 14.99-35.463l91.001-90.928c8.987-9.276 21.558-15.033 35.474-15.033s26.487 5.757 35.462 15.020l34.609 34.536c28.27-16.649 60.959-30.352 95.528-39.408l2.703-49.68c0-0.065 0-0.142 0-0.22 0-27.025 21.908-48.933 48.933-48.933 0.052 0 0.103 0 0.155 0h129.162c0.044 0 0.095 0 0.147 0 27.025 0 48.933 21.908 48.933 48.933 0 0.077 0 0.154-0.001 0.232v49.067c37.519 10.669 70.119 24.301 100.635 41.233l32.193-35.747c8.987-9.276 21.558-15.033 35.474-15.033s26.487 5.757 35.462 15.020l91.002 90.93c9.257 8.996 15.001 21.564 15.001 35.474s-5.744 26.479-14.99 35.463l-34.681 34.535c16.703 28.273 30.41 60.968 39.418 95.559l49.743 2.672c0.044 0 0.097 0 0.15 0 27.025 0 48.933 21.908 48.933 48.933 0 0.206-0.001 0.411-0.004 0.617v129.066c0 0.065 0 0.142 0 0.22 0 27.025-21.908 48.933-48.933 48.933-0.052 0-0.103 0-0.155 0zM511.049 219.867c-125.464 0.167-227.109 101.914-227.109 227.401 0 125.59 101.811 227.401 227.401 227.401s227.401-101.811 227.401-227.401c-0.042-125.599-101.869-227.401-227.474-227.401-0.077 0-0.154 0-0.232 0z" />
<glyph unicode="&#xe926;" glyph-name="stairway" horiz-adv-x="949" d="M533.483 223.78c0.38-0.008 0.761-0.012 1.144-0.012 14.329 0 27.303 5.807 36.759 15.251 11.563 10.301 19.367 24.732 21.101 40.974 0.21 2.221 0.318 4.471 0.318 6.747 0 16.557-5.698 31.783-15.127 43.677l-151.481 189.617h-56.85v-43.785h39.901l139.010-171.705c2.642-5.416 4.188-11.464 4.346-17.979-0.399-5.129-2.761-9.708-6.357-13.003-2.495-2.617-6.016-4.248-9.918-4.248-0.236 0-0.47 0.006-0.64 0.017-0.209-0.007-0.419-0.011-0.629-0.011-5.717 0-10.826 2.603-14.232 6.719l-130.648 161.015h-52.641c-47.831 0.304-86.511 39.171-86.511 87.074 0 0.795 0.011 1.588 0.029 2.262v148.297c0 0.040 0 0.080 0 0.12 0 12.991 10.363 23.562 23.305 23.898l50.525-0.001c12.911-0.335 23.274-10.905 23.274-23.897 0-0.040 0-0.080 0-0.113v-87.217l124.292-50.141 14.83 41.313-97.103 37.076v56.813c0.003 0.241 0.004 0.482 0.004 0.723 0 36.369-29.077 65.947-65.328 66.756l-50.585-0.002c-36.195-0.983-65.234-30.632-65.234-67.064 0-0.132 0-0.265 0.001-0.376l0.003-148.146c-0.026-1.063-0.039-2.13-0.039-3.2 0-71.238 57.42-129.066 128.565-129.725h31.779l118.016-146.284c10.842-13.099 27.225-21.444 45.557-21.444 0.218 0 0.436 0.001 0.62 0.003zM158.543 101.606c-0.562-0.020-1.222-0.032-1.886-0.032-16.873 0-31.991 7.514-42.191 19.379-10.139 11.303-16.301 26.226-16.301 42.587 0 18.487 7.866 35.136 20.435 46.784l115.859 109.147 18.714 115.465 42.372-6.709-21.186-130.648-126.411-119.702c-4.074-3.373-6.65-8.432-6.65-14.092 0-4.622 1.717-8.842 4.549-12.058 3.096-4.187 8.041-6.884 13.617-6.884 4.586 0 8.746 1.826 11.793 4.79l134.882 126.407 22.952 139.123 42.372-6.356-25.423-154.659-145.479-137.357c-9.964-9.476-23.473-15.305-38.344-15.305-1.293 0-2.576 0.044-3.847 0.131zM310.378 785.567c-0.969-0.039-2.106-0.060-3.249-0.060-48.207 0-87.287 39.080-87.287 87.287s39.080 87.287 87.287 87.287c48.207 0 87.287-39.080 87.287-87.287 0-0.004 0-0.007 0-0.011 0.006-0.384 0.010-0.837 0.010-1.292 0-46.799-37.405-84.862-83.95-85.923zM310.378 916.568c-0.484 0.019-1.053 0.030-1.624 0.030-24.104 0-43.644-19.54-43.644-43.644s19.54-43.644 43.644-43.644c24.043 0 43.546 19.442 43.643 43.463 0.002 0.172 0.003 0.364 0.003 0.557 0 23.456-18.67 42.551-41.96 43.236zM324.855-64h-324.502v43.432h282.483v98.163h179.023v96.044h176.905v97.81h310.025v-43.432h-267.652v-98.163h-176.905v-95.691h-179.377v-98.163z" />
<glyph unicode="&#xe927;" glyph-name="sygment_type" d="M842.803 589.773h-661.606c-15.241 0-27.597-12.356-27.597-27.597v-496.179c0-15.241 12.356-27.597 27.597-27.597h661.606c15.241 0 27.597 12.356 27.597 27.597v496.179c0 15.241-12.356 27.597-27.597 27.597zM236.339 668.518h551.322c15.201 0.029 27.517 12.344 27.546 27.543 0 15.363-12.339 78.748-27.546 78.748h-551.322c-15.36 0-27.546-63.539-27.546-78.746 0.029-15.201 12.344-27.517 27.543-27.546zM319.027 853.658h385.946c15.227 0 27.571 12.344 27.571 27.571s-12.344 27.571-27.571 27.571h-385.946c-15.227 0-27.571-12.344-27.571-27.571s12.344-27.571 27.571-27.571z" />
<glyph unicode="&#xe928;" glyph-name="tick" horiz-adv-x="1192" d="M1193.122 736.229l-742.131-798.828-208.573 224.525 0.755 0.862-244.035 262.575 208.573 224.525 244.035-262.575 532.803 573.44z" />
<glyph unicode="&#xe929;" glyph-name="uncheked" horiz-adv-x="745" d="M661.597 789.225h-111.709v21.411c-0.026 27.572-22.371 49.917-49.941 49.943h-6.193c-11.766 57.138-61.656 99.491-121.437 99.491s-109.671-42.353-121.299-98.69l-6.329-0.801c-27.572-0.026-49.917-22.371-49.943-49.941v-21.413h-111.709c-45.964-0.079-83.197-37.345-83.223-83.314v-686.595c0.053-45.951 37.276-83.19 83.216-83.27h578.474c45.947 0.079 83.17 37.319 83.223 83.265v686.597c-0.026 45.938-37.207 83.184-83.118 83.316zM250.275 805.050h244.177v-90.903h-244.177v90.903zM372.364 904.471c28.925-0.046 53.637-18.034 63.607-43.428l-127.374-0.465c10.141 25.85 34.847 43.832 63.76 43.892zM689.338 19.316c0-15.424-12.503-27.927-27.927-27.927h-578.281c-15.424 0-27.927 12.503-27.927 27.927v686.592c0 15.424 12.503 27.927 27.927 27.927h111.709v-25.135c0.026-27.572 22.371-49.917 49.941-49.943h255.258c27.572 0.026 49.917 22.371 49.943 49.941v25.137h111.709c15.424 0 27.927-12.503 27.927-27.927v-686.592zM559.756 560.5h-374.784c-14.073-1.571-24.915-13.402-24.915-27.764s10.842-26.193 24.789-27.753l374.911-0.012c14.073 1.571 24.915 13.402 24.915 27.764s-10.842 26.193-24.789 27.753zM559.756 422.307h-374.784c-13.976-1.669-24.708-13.452-24.708-27.741s10.732-26.072 24.575-27.728l374.917-0.013c13.976 1.669 24.708 13.452 24.708 27.741s-10.732 26.072-24.575 27.728zM559.756 284.16h-374.784c-14.073-1.571-24.915-13.402-24.915-27.764s10.842-26.193 24.789-27.753l374.911-0.012c14.073 1.571 24.915 13.402 24.915 27.764s-10.842 26.193-24.789 27.753z" />
<glyph unicode="&#xe92a;" glyph-name="user_group" horiz-adv-x="1561" d="M875.673 396.934c22.089 22.77 39.353 50.357 50.054 81.021 3.258 11.351 5.975 23.886 8.004 36.651 11.562 7.521 20.316 16.79 25.041 28.156 5.093 16.281 8.749 34.917 10.377 54.132 0.638 4.395 0.964 8.323 0.964 12.327 0 12.847-3.356 24.91-9.24 35.36 12.025 116.351-25.364 139.376-50.338 143.49-10.772 1.081-20.416 5.204-28.255 11.486-7.966 17.2-24.495 29.326-44.011 31.013-0.954-0.033-1.834-0.059-2.72-0.059-9.455 0-18.203 3.030-25.325 8.173-8.214 8.14-18.879 14.032-30.794 16.515-12.108-2.243-22.196-8.024-29.826-16.141-6.894-5.336-15.625-8.536-25.104-8.536-0.801 0-1.597 0.023-2.387 0.068-19.589-1.701-36.101-13.832-43.998-30.784-7.9-6.521-17.565-10.641-28.131-11.715-25.202-4.133-62.519-27.158-50.754-143.943-5.691-10.084-9.044-22.142-9.044-34.982 0-3.984 0.323-7.892 0.944-11.701 1.68-19.802 5.36-38.434 10.843-56.277 4.342-9.791 13.097-19.060 24.099-24.448 2.589-14.942 5.28-27.481 8.604-39.759 10.779-30.212 28.366-58.238 50.928-81.393l-0.624 0.048c-3.753-162.33-344.942-72.179-272.186-364.142 23.169-82.5 321.484-97.586 367.39-94.338 45.761-3.248 344.004 11.837 367.245 94.338 73.261 291.313-267.278 203.616-271.753 365.441zM1290.34 516.606c21.311 21.9 37.996 48.418 48.404 77.899 3.081 11.075 5.601 23.288 7.45 35.72 11.143 7.176 19.598 16.122 24.145 27.096 4.888 15.69 8.439 33.681 10.079 52.221 0.627 4.296 0.944 8.084 0.944 11.946 0 12.395-3.268 24.028-8.99 34.082 11.583 112.331-24.435 134.489-48.47 138.531-10.418 1.032-19.744 5.028-27.311 11.121-7.677 16.582-23.621 28.265-42.44 29.864-0.852-0.024-1.625-0.045-2.403-0.045-9.18 0-17.679 2.914-24.623 7.869-7.928 7.849-18.222 13.535-29.722 15.94-11.844-2.069-21.742-7.633-29.243-15.501-6.631-5.189-15.062-8.308-24.221-8.308-0.754 0-1.504 0.021-2.248 0.063-18.906-1.616-34.85-13.299-42.493-29.642-7.6-6.333-16.927-10.328-27.13-11.343-24.25-4.059-60.267-26.218-48.863-138.889-5.517-9.785-8.767-21.484-8.767-33.941 0-3.79 0.301-7.51 0.88-11.137 1.711-19.181 5.259-37.169 10.48-54.429 4.214-9.345 12.654-18.275 23.248-23.501 2.399-14.495 4.919-26.707 8.051-38.67 10.374-29.136 27.324-56.177 49.086-78.506l-0.55 0.046c-1.949-84.233-98.091-98.163-175.611-136.707 23.261-25.157 53.451-43.59 87.536-52.277 84.61-34.337 206.736-84.285 187.681-253.76 62.507-1.371 325.237 15.374 346.458 91.378 71.24 281.353-257.101 196.759-261.359 352.882zM541.341 325.116c35.749 8.422 66.253 27.196 89.058 52.945-77.437 39.083-174.229 52.725-176.178 137.318h-0.577c21.761 22.269 38.737 49.314 49.203 79.406 3.043 11.018 5.563 23.229 7.433 35.654 11.123 7.296 19.562 16.226 24.155 27.169 4.923 15.728 8.453 33.727 10.017 52.286 0.608 4.219 0.919 7.992 0.919 11.837 0 12.4-3.234 24.045-8.904 34.138 11.658 112.32-24.432 134.479-48.467 138.521-10.418 1.032-19.744 5.028-27.311 11.121-7.677 16.582-23.621 28.265-42.44 29.864-0.824-0.023-1.565-0.044-2.311-0.044-9.19 0-17.652 3.117-24.387 8.352-7.293 7.756-17.009 13.306-27.942 15.468-12.238-2.371-22.544-8.066-30.581-16.044-6.797-4.866-15.284-7.783-24.452-7.783-0.817 0-1.629 0.023-2.434 0.069-18.898-1.617-34.842-13.3-42.485-29.642-7.607-6.318-16.93-10.311-27.126-11.343-24.254-4.060-60.271-26.219-48.867-138.89-5.544-9.713-8.812-21.346-8.812-33.741 0-3.862 0.317-7.65 0.927-11.339 1.622-19.125 5.174-37.118 10.466-54.351 4.203-9.437 12.65-18.374 23.26-23.579 2.366-14.427 4.886-26.639 8.039-38.595 10.336-28.611 27.048-55.133 48.446-77.061-4.445-156.079-332.786-71.486-262.556-352.55 21.654-76.004 284.023-92.75 346.458-91.45-18.406 169.331 103.937 218.629 187.448 252.265z" />
<glyph unicode="&#xe92b;" glyph-name="user_status" horiz-adv-x="767" d="M605.37 597.589c-38.189-86.401-123.14-145.602-221.918-145.602s-183.729 59.201-221.307 144.058c-96.577-43.892-161.835-139.817-162.145-251.017v-312.753c0.248-52.922 43.207-95.727 96.163-95.727 0.154 0 0.309 0 0.463 0.001h573.839c0.163-0.001 0.356-0.002 0.549-0.002 52.946 0 95.892 42.812 96.109 95.707v312.733c-0.265 111.311-65.645 207.288-160.054 251.881zM383.562 516.548c112.055 0 202.74 131.123 202.74 242.027 0 111.97-90.77 202.74-202.74 202.74s-202.74-90.77-202.74-202.74c0-110.904 90.63-242.027 202.74-242.027zM412.329 359.562c0.531 0.024 1.153 0.038 1.778 0.038 22.908 0 41.479-18.571 41.479-41.479s-18.571-41.479-41.479-41.479c-0.413 0-0.825 0.006-1.236 0.018-22.322 0.671-40.211 18.977-40.211 41.46 0 22.291 17.583 40.475 39.636 41.439zM471.014 67.397c-4.514-1.918-9.759-3.060-15.263-3.123-38.874 0-47.038 0-85.942 0-0.636-0.048-1.378-0.076-2.125-0.076-16.432 0-29.753 13.321-29.753 29.753s13.321 29.753 29.753 29.753c0.497 0 0.991-0.012 1.482-0.036 9.301 0.003 3.273 0.003 14.068 0.003v22.301c0 10.521 0 21.096 0 31.781-0.552 2.849-2.447 5.16-4.986 6.28-14.432 2.373-25.27 14.705-25.27 29.568 0 0.69 0.023 1.374 0.069 2.053 1.518 15.384 14.465 27.375 30.213 27.375 0.723 0 1.441-0.025 2.151-0.075q13.219 0.005 26.37 0.005c0.471 0.026 1.021 0.041 1.576 0.041 16.553 0 29.973-13.419 29.973-29.973 0-0.554-0.015-1.105-0.045-1.652 0.003-28.527 0.003-57.403 0.003-87.595 10.959 0 5.479 0.329 15.288 0 0.109 0.001 0.238 0.002 0.367 0.002 14.301 0 26.206-10.26 28.756-23.821 0.483-2.083 0.744-4.266 0.744-6.51 0-11.628-7.006-21.619-17.026-25.984z" />
<glyph unicode="&#xe92c;" glyph-name="username" d="M667.187 712.038c-2.556-80.906-68.756-145.521-150.048-145.521-1.519 0-3.033 0.023-4.541 0.067-1.081-0.046-2.613-0.069-4.15-0.069-81.292 0-147.492 64.616-150.042 145.288 2.523 81.192 68.757 145.858 150.095 145.858 1.519 0 3.032-0.023 4.54-0.067 1.050 0.044 2.546 0.066 4.046 0.066 81.337 0 147.571-64.666 150.095-145.39zM633.856 556.493c-33.758-23.738-75.719-37.938-120.996-37.938-45.466 0-87.588 14.318-122.102 38.691-137.881-30.398-237.158-109.963-237.158-203.71v-207.053c0.372-13.849 11.687-24.934 25.591-24.934 0.003 0 0.006 0 0.009 0h51.2c0.431-0.027 0.935-0.043 1.442-0.043 12.778 0 23.244 9.896 24.153 22.441l0.005 161.615c0 13.312 7.629 7.987 17.050 7.987 0.14 0.004 0.305 0.007 0.47 0.007 8.966 0 16.271-7.113 16.579-16.004l0.001-195.203 0.256 51.2c0.988-25.235 6.962-48.839 16.956-70.185s52.778-44.964 204.689-44.964c152.986 0 205.158 46.080 205.158 46.080 9.532 20.295 15.491 43.976 16.425 68.942l0.266-50.868v194.97c0.51 9.033 7.96 16.165 17.075 16.165s16.565-7.132 17.073-16.12 0.002-146.375 0.002-153.645c0.914-12.624 11.38-22.52 24.158-22.52 0.507 0 1.011 0.016 1.511 0.046l51.131-0.003c0.003 0 0.006 0 0.009 0 13.904 0 25.22 11.085 25.591 24.9l0.001 207.19c0 93.491-98.714 172.851-236.544 202.957z" />
<glyph unicode="&#xe92d;" glyph-name="users" horiz-adv-x="1571" d="M881.257 396.772c22.236 22.817 39.607 50.49 50.363 81.267 3.27 11.374 6.007 23.961 8.059 36.776 11.622 7.569 20.421 16.876 25.169 28.291 5.107 16.32 8.801 35.020 10.488 54.296 0.651 4.464 0.981 8.424 0.981 12.461 0 12.899-3.374 25.011-9.288 35.499 12.083 116.795-25.51 139.912-50.423 144.064-10.791 1.070-20.47 5.124-28.401 11.313-7.989 17.403-24.792 29.633-44.59 31.095-0.794-0.020-1.518-0.037-2.246-0.037-9.647 0-18.583 3.043-25.901 8.222-8.23 8.179-18.921 14.12-30.87 16.665-12.149-2.289-22.256-8.116-29.897-16.28-7.014-5.384-15.876-8.608-25.491-8.608-0.714 0-1.424 0.018-2.13 0.053-19.875-1.477-36.678-13.707-44.651-30.871-7.954-6.413-17.629-10.463-28.184-11.533-25.258-4.171-62.739-27.288-50.844-144.445-5.704-10.157-9.064-22.294-9.064-35.215 0-3.969 0.317-7.864 0.927-11.661 1.719-19.937 5.413-38.674 10.893-56.632 4.36-9.801 13.159-19.108 24.213-24.513 2.671-15.084 5.407-27.669 8.76-40 10.786-30.243 28.428-58.367 51.063-81.602l-0.159 0.049c-3.815-163.054-346.308-72.83-273.254-365.61 23.229-82.818 322.742-97.967 368.864-94.713 46.010-3.254 345.411 11.895 368.752 94.713 72.942 292.555-268.653 204.463-273.141 366.957zM1297.59 516.959c21.453 22.013 38.21 48.711 48.585 78.405 3.11 10.939 5.73 23.112 7.708 35.499 11.265 7.31 19.772 16.325 24.277 27.395 4.958 15.763 8.534 33.815 10.148 52.429 0.614 4.254 0.926 8.034 0.926 11.887 0 12.475-3.273 24.187-9.007 34.321 11.403 112.657-24.507 134.989-48.747 139.029-10.448 1.126-19.782 5.174-27.369 11.3-7.667 16.691-23.671 28.466-42.575 30.096-0.861-0.024-1.641-0.045-2.427-0.045-9.214 0-17.745 2.922-24.717 7.89-7.966 7.895-18.321 13.608-29.891 16.004-11.753-2.172-21.552-7.763-28.983-15.618-6.668-5.173-15.123-8.278-24.302-8.278-0.776 0-1.546 0.022-2.311 0.066-18.983-1.673-34.977-13.438-42.628-29.872-7.618-6.373-16.954-10.423-27.173-11.522-24.357-4.060-60.604-26.392-49.158-139.509-5.548-9.802-8.817-21.527-8.817-34.015 0-3.838 0.309-7.604 0.903-11.275 1.688-19.221 5.261-37.269 10.543-54.57 4.144-9.487 12.644-18.496 23.342-23.679 2.513-14.494 5.133-26.667 8.371-38.586 10.398-29.287 27.431-56.442 49.303-78.852l-0.042 0.043c-1.908-84.501-98.416-98.528-176.296-137.244 23.35-25.244 53.647-43.745 87.853-52.473 109.433-21.449 189.941-115.494 189.941-228.342 0-9.317-0.549-18.505-1.616-27.535 62.836-0.253 326.663 16.58 347.985 92.889 70.137 282.343-259.675 197.281-263.94 354.164zM545.722 324.615c35.975 8.448 66.675 27.33 89.619 53.237-77.836 39.12-174.906 52.923-176.926 137.76v0c21.83 22.367 38.863 49.522 49.367 79.732 3.106 10.942 5.726 23.115 7.708 35.5 11.242 7.364 19.736 16.366 24.278 27.411 4.899 15.758 8.435 33.814 10.037 52.422 0.621 4.29 0.938 8.103 0.938 11.99 0 12.431-3.234 24.107-8.907 34.232 11.404 112.763-24.506 135.094-48.745 139.134-10.449 1.119-19.785 5.168-27.368 11.299-7.686 16.677-23.68 28.442-42.573 30.096-0.844-0.024-1.603-0.045-2.366-0.045-9.191 0-17.656 3.103-24.406 8.32-7.334 7.792-17.091 13.379-28.071 15.585-12.265-2.401-22.585-8.115-30.643-16.107-6.78-4.88-15.257-7.807-24.418-7.807-0.844 0-1.682 0.025-2.513 0.074-19.019-1.632-35.062-13.409-42.731-29.872-7.621-6.368-16.955-10.416-27.172-11.522-24.359-4.060-60.493-26.392-49.159-139.397-5.488-9.778-8.72-21.461-8.72-33.899 0-3.88 0.314-7.686 0.919-11.394 1.604-19.178 5.142-37.234 10.42-54.531 4.144-9.53 12.647-18.542 23.352-23.716 2.506-14.481 5.127-26.655 8.369-38.572 10.301-28.772 27.095-55.47 48.631-77.518-4.417-157.065-334.117-71.779-263.531-354.122 21.434-76.197 285.149-93.030 347.879-91.683-20.087 170.124 102.681 219.613 186.62 253.391z" />
</font>
</defs>
</svg>
