<svg width="59" height="73" viewBox="0 0 42 52" fill="none" xmlns="http://www.w3.org/2000/svg">
    <path d="M36.2274 6.81298H31.523V4.70841C31.523 4.0275 30.7803 3.71803 30.0994 3.71803H26.4473C25.5808 1.24203 23.4142 0.00402318 20.9382 0.00402318C18.4895 -0.0880361 16.2621 1.41347 15.4291 3.71803H11.8389C11.158 3.71803 10.4771 4.0275 10.4771 4.70841V6.81298H5.7726C2.98476 6.84271 0.704007 9.04195 0.572968 11.8268V47.2955C0.572968 50.0191 3.04897 51.9999 5.7726 51.9999H36.2274C38.951 51.9999 41.427 50.0191 41.427 47.2955V11.827C41.296 9.04195 39.0153 6.84271 36.2274 6.81298ZM12.953 6.19403H16.3575C16.9518 6.12152 17.4292 5.6694 17.5337 5.07984C17.9003 3.48344 19.3008 2.3375 20.9382 2.29437C22.5604 2.34354 23.9399 3.49304 24.2808 5.07984C24.3918 5.68978 24.9007 6.14771 25.5188 6.19403H29.0471V11.146H12.953V6.19403ZM38.951 47.2956C38.951 48.6574 37.5892 49.524 36.2274 49.524H5.7726C4.41079 49.524 3.04897 48.6574 3.04897 47.2956V11.827C3.17527 10.4094 4.34965 9.31505 5.7726 9.2891H10.477V12.446C10.5424 13.1396 11.1431 13.6584 11.8388 13.6222H30.0992C30.8078 13.6609 31.4273 13.1492 31.5229 12.446V9.28898H36.2273C37.6501 9.31505 38.8246 10.4093 38.9509 11.8268V47.2956H38.951Z" fill="#1EBAE5"/>
    <path d="M16.2337 27.6734C15.7694 27.1839 14.9986 27.1563 14.5005 27.6115L10.5388 31.3874L8.86756 29.6541C8.40323 29.1647 7.6324 29.1372 7.13431 29.5923C6.65482 30.0946 6.65482 30.885 7.13431 31.3874L9.67216 33.9872C9.89182 34.2331 10.2091 34.3692 10.5387 34.3586C10.8653 34.354 11.1767 34.2205 11.4053 33.9872L16.2335 29.4066C16.7121 28.9675 16.7441 28.2235 16.3049 27.7449C16.2824 27.7199 16.2586 27.6961 16.2337 27.6734Z" fill="#1EBAE5"/>
    <path d="M33.999 30.335H19.762C19.0783 30.335 18.524 30.8893 18.524 31.573C18.524 32.2568 19.0783 32.811 19.762 32.811H33.999C34.6828 32.811 35.237 32.2568 35.237 31.573C35.237 30.8893 34.6828 30.335 33.999 30.335Z" fill="#1EBAE5"/>
    <path d="M16.2337 17.7693C15.7694 17.2799 14.9986 17.2523 14.5005 17.7075L10.5388 21.4833L8.86756 19.7501C8.40323 19.2607 7.6324 19.233 7.13431 19.6882C6.65482 20.1906 6.65482 20.981 7.13431 21.4833L9.67216 24.0832C9.89182 24.3291 10.2091 24.4651 10.5387 24.4546C10.8653 24.45 11.1767 24.3164 11.4053 24.0832L16.2335 19.5026C16.7121 19.0635 16.7441 18.3194 16.3049 17.8409C16.2824 17.8159 16.2586 17.7921 16.2337 17.7693Z" fill="#1EBAE5"/>
    <path d="M33.999 20.431H19.762C19.0783 20.431 18.524 20.9853 18.524 21.669C18.524 22.3528 19.0783 22.907 19.762 22.907H33.999C34.6828 22.907 35.237 22.3528 35.237 21.669C35.237 20.9853 34.6828 20.431 33.999 20.431Z" fill="#1EBAE5"/>
    <path d="M16.2337 37.5773C15.7694 37.0878 14.9986 37.0603 14.5005 37.5154L10.5388 41.2913L8.86756 39.558C8.40323 39.0686 7.6324 39.0411 7.13431 39.4962C6.65482 39.9985 6.65482 40.7889 7.13431 41.2913L9.67216 43.8911C9.89182 44.137 10.2091 44.2731 10.5387 44.2625C10.8653 44.2579 11.1767 44.1244 11.4053 43.8911L16.2335 39.3105C16.7121 38.8714 16.7441 38.1274 16.3049 37.6488C16.2824 37.6239 16.2586 37.6001 16.2337 37.5773Z" fill="#1EBAE5"/>
    <path d="M33.999 40.239H19.762C19.0783 40.239 18.524 40.7933 18.524 41.477C18.524 42.1608 19.0783 42.715 19.762 42.715H33.999C34.6828 42.715 35.237 42.1608 35.237 41.477C35.237 40.7933 34.6828 40.239 33.999 40.239Z" fill="#1EBAE5"/>
</svg>
