<svg width="52" height="52" viewBox="0 0 52 52" fill="none" xmlns="http://www.w3.org/2000/svg">
<path d="M33.5834 15.167H14.0834C13.4854 15.167 13 15.6524 13 16.2504C13 16.8484 13.4854 17.3337 14.0834 17.3337H33.5834C34.1814 17.3337 34.6667 16.8484 34.6667 16.2504C34.6667 15.6524 34.1814 15.167 33.5834 15.167Z" fill="#1EBAE5"/>
<path d="M7.58337 39C5.79151 39 4.33337 40.4581 4.33337 42.25C4.33337 44.0419 5.79151 45.5 7.58337 45.5C9.37524 45.5 10.8334 44.0419 10.8334 42.25C10.8334 40.4581 9.37514 39 7.58337 39ZM7.58337 43.3334C6.98537 43.3334 6.50001 42.848 6.50001 42.25C6.50001 41.652 6.98537 41.1666 7.58337 41.1666C8.18137 41.1666 8.66664 41.652 8.66664 42.25C8.66664 42.848 8.18137 43.3334 7.58337 43.3334Z" fill="#1EBAE5"/>
<path d="M7.58337 30.333C5.79151 30.333 4.33337 31.7911 4.33337 33.583C4.33337 35.3749 5.79151 36.833 7.58337 36.833C9.37524 36.833 10.8334 35.3749 10.8334 33.583C10.8334 31.7911 9.37514 30.333 7.58337 30.333ZM7.58337 34.6663C6.98537 34.6663 6.50001 34.1809 6.50001 33.5829C6.50001 32.9849 6.98537 32.4996 7.58337 32.4996C8.18137 32.4996 8.66674 32.985 8.66674 33.583C8.66674 34.181 8.18137 34.6663 7.58337 34.6663Z" fill="#1EBAE5"/>
<path d="M7.58337 21.667C5.79151 21.667 4.33337 23.1251 4.33337 24.917C4.33337 26.7089 5.79151 28.167 7.58337 28.167C9.37524 28.167 10.8334 26.7089 10.8334 24.917C10.8334 23.1252 9.37514 21.667 7.58337 21.667ZM7.58337 26.0004C6.98537 26.0004 6.50001 25.515 6.50001 24.917C6.50001 24.319 6.98537 23.8336 7.58337 23.8336C8.18137 23.8336 8.66674 24.319 8.66674 24.917C8.66674 25.515 8.18137 26.0004 7.58337 26.0004Z" fill="#1EBAE5"/>
<path d="M7.58337 13C5.79151 13 4.33337 14.4581 4.33337 16.25C4.33337 18.0419 5.79151 19.5 7.58337 19.5C9.37524 19.5 10.8334 18.0419 10.8334 16.25C10.8334 14.4581 9.37514 13 7.58337 13ZM7.58337 17.3334C6.98537 17.3334 6.50001 16.848 6.50001 16.25C6.50001 15.652 6.98537 15.1666 7.58337 15.1666C8.18137 15.1666 8.66664 15.652 8.66664 16.25C8.66664 16.848 8.18137 17.3334 7.58337 17.3334Z" fill="#1EBAE5"/>
<path d="M46.319 10.8334C44.8024 10.8334 43.3766 11.4249 42.3041 12.4974L39.3163 15.4852L39 15.8015V7.58337C39 5.7915 37.5419 4.33337 35.75 4.33337H30.134C29.6855 3.0745 28.4939 2.16673 27.0834 2.16673H23.2397C22.4749 0.845 21.0556 0 19.5 0C17.9444 0 16.5251 0.845 15.7604 2.16663H11.9167C10.5062 2.16663 9.3146 3.0745 8.8661 4.33327H3.25C1.45813 4.33327 0 5.7914 0 7.58327V48.75C0 50.5419 1.45813 52 3.25 52H35.75C37.5419 52 39 50.5419 39 48.75V31.863L47.3416 23.5214C47.3438 23.5192 47.346 23.5192 47.3481 23.517C47.3503 23.5149 47.3503 23.5126 47.3525 23.5105L50.336 20.527C51.4106 19.4545 52 18.0289 52 16.51C52 13.3791 49.452 10.8334 46.319 10.8334ZM10.8334 5.41663C10.8334 4.81863 11.3187 4.33327 11.9167 4.33327H16.4494C16.9065 4.33327 17.316 4.0429 17.4699 3.61177C17.7775 2.74727 18.5944 2.16663 19.5 2.16663C20.4056 2.16663 21.2225 2.74727 21.5301 3.61177C21.684 4.04513 22.0935 4.33327 22.5506 4.33327H27.0833C27.6813 4.33327 28.1666 4.81863 28.1666 5.41663V6.5H10.8334V5.41663ZM36.8334 48.75C36.8334 49.348 36.348 49.8334 35.75 49.8334H3.25C2.652 49.8334 2.16663 49.348 2.16663 48.75V7.58337C2.16663 6.98537 2.652 6.5 3.25 6.5H8.66663V7.58337C8.66663 8.18137 9.152 8.66673 9.75 8.66673H29.25C29.848 8.66673 30.3334 8.18137 30.3334 7.58337V6.5H35.75C36.348 6.5 36.8334 6.98537 36.8334 7.58337V17.9682L30.8317 23.9699C30.6801 23.8897 30.5154 23.8334 30.3334 23.8334H14.0834C13.4854 23.8334 13 24.3187 13 24.9167C13 25.5147 13.4854 26 14.0834 26H28.8015L22.3015 32.5H14.0834C13.4854 32.5 13 32.9854 13 33.5834C13 34.1814 13.4854 34.6667 14.0834 34.6667H21.3634L19.7384 41.1667H14.0834C13.4854 41.1667 13 41.6521 13 42.2501C13 42.8481 13.4854 43.3335 14.0834 43.3335H20.5834C20.6722 43.3335 20.7589 43.3226 20.8455 43.2988L29.5121 41.1322C29.5381 41.1257 29.5555 41.1018 29.5815 41.0932C29.718 41.0477 29.8415 40.9783 29.9476 40.8873C29.9671 40.87 29.9975 40.8678 30.017 40.8483L36.8334 34.0298V48.75ZM23.556 34.8335C24.2559 35.0371 25.2915 35.4879 26.3164 36.5149C27.3434 37.5419 27.7962 38.5797 27.9999 39.2774L22.0719 40.7615L23.556 34.8335ZM29.8241 37.9751C29.471 37.0825 28.8838 36.0186 27.846 34.983C26.8125 33.9495 25.7509 33.3601 24.8581 33.0091L40.0833 17.784L45.0494 22.75L29.8241 37.9751ZM48.8041 18.9951L46.5811 21.2181L41.6151 16.2521L43.8381 14.027C44.5011 13.3619 45.383 12.9979 46.3233 12.9979C48.2581 12.9979 49.8333 14.573 49.8333 16.5122C49.8334 17.4504 49.4671 18.3321 48.8041 18.9951Z" fill="#1EBAE5"/>
</svg>
