<svg width="19" height="27" viewBox="0 0 19 27" fill="none" xmlns="http://www.w3.org/2000/svg">
<path fill-rule="evenodd" clip-rule="evenodd" d="M15 21.0457V15H4V22L6.5 20L7.95794 21.2497L11.593 18L15 21.0457ZM12.5 0H2.00276C0.896666 0 0 0.898338 0 2.00733V24.9927C0 26.1013 0.890926 27 1.99742 27H17.0026C18.1057 27 19 26.1018 19 25.0092V7.5V7L13 0H12.5ZM12 1H1.99558C1.44574 1 1 1.45526 1 1.99546V25.0045C1 25.5543 1.45471 26 1.99996 26H17C17.5523 26 18 25.5551 18 25.0066V8H13.9979C12.8945 8 12 7.11344 12 5.99408V1ZM13 1.5V5.99122C13 6.54835 13.4507 7 13.9967 7H17.7L13 1.5ZM3 14V24H16V14H3ZM7 18C7.55228 18 8 17.5523 8 17C8 16.4477 7.55228 16 7 16C6.44772 16 6 16.4477 6 17C6 17.5523 6.44772 18 7 18Z" fill="#1EBAE5"/>
</svg>
