<svg xmlns="http://www.w3.org/2000/svg" width="60" height="60" viewBox="0 0 60 60">
  <defs>
    <style>
      .cls-1 {
        fill: #1ebae5;
        fill-rule: evenodd;
      }
    </style>
  </defs>
  <path class="cls-1" d="M169.431,468a4.944,4.944,0,0,1-4.919-4.956v-3.776a1.175,1.175,0,0,1,1.168-1.18h5.157v-8.506l-8.936,9a1.166,1.166,0,0,1-1.658,0,1.184,1.184,0,0,1,0-1.668l10.592-10.672V433.1a1.176,1.176,0,0,1,1.171-1.18h0a1.175,1.175,0,0,1,1.171,1.18h0v10.779l1.319-1.33a1.171,1.171,0,0,1,1.658,0l5.64,5.683,1.37-1.382a13.591,13.591,0,1,1,24.9,1.1l7.652,7.715a4.478,4.478,0,0,1-.021,6.286,4.408,4.408,0,0,1-3.12,1.31h-0.022a4.337,4.337,0,0,1-3.054-1.242v1.013a4.943,4.943,0,0,1-4.919,4.956Zm3.749-20.781v10.866h27.65a1.175,1.175,0,0,1,1.171,1.18h0v3.776a2.572,2.572,0,1,0,5.144,0V459.67l-5.363-5.4a13.425,13.425,0,0,1-5.936,1.377,13.571,13.571,0,0,1-11.594-6.554l-1.639,1.65a1.167,1.167,0,0,1-1.657,0l-5.64-5.682Zm-6.325,15.823a2.59,2.59,0,0,0,2.572,2.6h30.957a4.944,4.944,0,0,1-.731-2.6v-0.951a1.084,1.084,0,0,1,0-.114,1.084,1.084,0,0,1,0-.114v-1.418h-32.8Zm37-10.033,7.249,7.3a2.018,2.018,0,0,0,1.446.6h0.01a2.106,2.106,0,0,0,1.5-3.571l-7.248-7.3a13.739,13.739,0,0,1-2.954,2.972v0Zm-17.883-5.648a11.346,11.346,0,1,0-1.365-5.41,11.358,11.358,0,0,0,.41,3.034l6.206-6.253H188.3a1.175,1.175,0,0,1-1.173-1.179h0a1.175,1.175,0,0,1,1.171-1.18h5.631a1.175,1.175,0,0,1,1.171,1.18h0v5.664a1.175,1.175,0,0,1-1.171,1.18h0a1.174,1.174,0,0,1-1.173-1.178v-2.68ZM157.34,461.489a1.179,1.179,0,1,1,.833.346,1.185,1.185,0,0,1-.833-0.346v0Zm37.288-11.916a1.18,1.18,0,0,1,1.18-1.18,6.3,6.3,0,0,0,6.286-6.286,1.18,1.18,0,0,1,2.36,0,8.663,8.663,0,0,1-8.653,8.653,1.179,1.179,0,0,1-1.177-1.183v0ZM158.179,430.66a1.18,1.18,0,0,1,0-2.36h1.3v-5.193a1.179,1.179,0,0,1,1.178-1.18h5.2a1.18,1.18,0,0,1,1.18,1.18V428.3h1.887V415.552a1.18,1.18,0,0,1,1.18-1.18h5.193a1.18,1.18,0,0,1,1.18,1.18V428.3h1.9v-7.908a1.18,1.18,0,0,1,1.179-1.18h5.42a1.18,1.18,0,0,1,1.18,1.18V428.3h1.077a1.18,1.18,0,0,1,0,2.36H158.179Zm22.552-2.36h3.059v-6.727h-3.059V428.3Zm-9.451,0h2.832V416.728H171.28V428.3Zm-9.442,0h2.833v-4.013h-2.833V428.3Zm45.248,0.116V412.955a4.929,4.929,0,0,1,.737-2.6H175.454a1.18,1.18,0,0,1,0-2.36h36.591A4.963,4.963,0,0,1,217,412.955v10.623a1.18,1.18,0,0,1-1.18,1.18h-6.373v3.658a1.184,1.184,0,0,1-2.367.006v-0.005h0.005Zm2.36-15.461V422.4h5.193v-9.443a2.6,2.6,0,0,0-5.2,0Zm-12.935,8.885a1.18,1.18,0,0,1,0-2.36h5.839a1.18,1.18,0,0,1,0,2.36h-5.839Zm-6.428,0a1.18,1.18,0,0,1,0-2.36h1.934a1.18,1.18,0,0,1,0,2.36h-1.934Zm11.429-5.453a0.928,0.928,0,1,1-.016,0Zm-14.077.345a1.18,1.18,0,0,1,0-2.36h9.143a1.18,1.18,0,0,1,0,2.36h-9.143Z" transform="translate(-157 -408)"/>
</svg>
